<?xml version="1.0" encoding="UTF-8" standalone="no"?><!DOCTYPE svg PUBLIC "-//W3C//DTD SVG 1.1//EN" "http://www.w3.org/Graphics/SVG/1.1/DTD/svg11.dtd"><svg width="100%" height="100%" viewBox="0 0 413 166" version="1.1" xmlns="http://www.w3.org/2000/svg" xmlns:xlink="http://www.w3.org/1999/xlink" xml:space="preserve" xmlns:serif="http://www.serif.com/" style="fill-rule:evenodd;clip-rule:evenodd;stroke-linecap:round;stroke-linejoin:round;stroke-miterlimit:1.5;"><text x="106.57px" y="163.953px" style="font-family:'PingFangSC-Regular', 'PingFang SC', sans-serif;font-size:10px;fill:#25fbc3;">ネオ東京警察署</text><g transform="matrix(10,0,0,10,87.55,163.85343)"></g><text x="1.5px" y="163.853px" style="font-family:'GigaSans-SemiBold', 'Giga Sans';font-size:10px;fill:#00ffc7;">NT POLICE DEPT</text><g transform="matrix(0.75,0,0,0.75,-0.491181,-314.278702)"><text x="524.781px" y="441.844px" style="font-family:'GigaSans-SemiBold', 'Giga Sans';font-size:13.333px;fill:#00ffc7;">V</text><text x="526.341px" y="459.177px" style="font-family:'GigaSans-SemiBold', 'Giga Sans';font-size:13.333px;fill:#00ffc7;">3</text><text x="528.527px" y="476.511px" style="font-family:'GigaSans-SemiBold', 'Giga Sans';font-size:13.333px;fill:#00ffc7;">.</text><g transform="matrix(13.333333,0,0,13.333333,534.480758,493.844029)"></g><text x="526.494px" y="493.844px" style="font-family:'GigaSans-SemiBold', 'Giga Sans';font-size:13.333px;fill:#00ffc7;">5</text></g><g transform="matrix(10,0,0,10,385.677881,163.85343)"></g><text x="200.638px" y="163.853px" style="font-family:'GigaSans-SemiBold', 'Giga Sans';font-size:10px;fill:#00ffc7;">F<tspan x="206.918px " y="163.853px ">O</tspan>R A<tspan x="232.768px " y="163.853px ">U</tspan>THORIZED PERSONEL ONL<tspan x="378.208px " y="163.853px ">Y</tspan></text><rect x="1.5" y="1.5" width="382.504" height="145.218" style="fill:none;stroke:#00ffc7;stroke-width:3px;"/><path d="M1.5,70.603l382.504,0c20.377,0 26.431,-4.728 26.657,-26.657c0.437,-42.444 0,-42.446 0,-42.446l-26.657,0" style="fill:none;stroke:#00ffc7;stroke-width:3px;"/><path d="M30.17,84.501l0,50.31c0,3.105 -2.521,5.626 -5.626,5.626l-11.252,0c-3.105,0 -5.626,-2.521 -5.626,-5.626l0,-50.31c0,-3.105 2.521,-5.626 5.626,-5.626l11.252,0c3.105,0 5.626,2.521 5.626,5.626Z" style="fill:#00ffc7;"/><path d="M59.094,84.501l0,50.31c0,3.105 -2.521,5.626 -5.626,5.626l-11.252,0c-3.105,0 -5.626,-2.521 -5.626,-5.626l0,-50.31c0,-3.105 2.521,-5.626 5.626,-5.626l11.252,0c3.105,0 5.626,2.521 5.626,5.626Z" style="fill:#00ffc7;"/><path d="M88.018,84.501l0,50.31c0,3.105 -2.521,5.626 -5.626,5.626l-11.252,0c-3.105,0 -5.626,-2.521 -5.626,-5.626l0,-50.31c0,-3.105 2.521,-5.626 5.626,-5.626l11.252,0c3.105,0 5.626,2.521 5.626,5.626Z" style="fill:#00ffc7;"/><path d="M116.942,84.501l0,50.31c0,3.105 -2.521,5.626 -5.626,5.626l-11.252,0c-3.105,0 -5.626,-2.521 -5.626,-5.626l0,-50.31c0,-3.105 2.521,-5.626 5.626,-5.626l11.252,0c3.105,0 5.626,2.521 5.626,5.626Z" style="fill:#00ffc7;"/><path d="M145.866,84.501l0,50.31c0,3.105 -2.521,5.626 -5.626,5.626l-11.252,0c-3.105,0 -5.626,-2.521 -5.626,-5.626l0,-50.31c0,-3.105 2.521,-5.626 5.626,-5.626l11.252,0c3.105,0 5.626,2.521 5.626,5.626Z" style="fill:#00ffc7;"/><path d="M174.79,84.501l0,50.31c0,3.105 -2.521,5.626 -5.626,5.626l-11.252,0c-3.105,0 -5.626,-2.521 -5.626,-5.626l0,-50.31c0,-3.105 2.521,-5.626 5.626,-5.626l11.252,0c3.105,0 5.626,2.521 5.626,5.626Z" style="fill:#00ffc7;"/><path d="M203.714,84.501l0,50.31c0,3.105 -2.521,5.626 -5.626,5.626l-11.252,0c-3.105,0 -5.626,-2.521 -5.626,-5.626l0,-50.31c0,-3.105 2.521,-5.626 5.626,-5.626l11.252,0c3.105,0 5.626,2.521 5.626,5.626Z" style="fill:#00ffc7;"/><path d="M232.638,84.501l0,50.31c0,3.105 -2.521,5.626 -5.626,5.626l-11.252,0c-3.105,0 -5.626,-2.521 -5.626,-5.626l0,-50.31c0,-3.105 2.521,-5.626 5.626,-5.626l11.252,0c3.105,0 5.626,2.521 5.626,5.626Z" style="fill:#00ffc7;"/><path d="M261.562,84.501l0,50.31c0,3.105 -2.521,5.626 -5.626,5.626l-11.252,0c-3.105,0 -5.626,-2.521 -5.626,-5.626l0,-50.31c0,-3.105 2.521,-5.626 5.626,-5.626l11.252,0c3.105,0 5.626,2.521 5.626,5.626Z" style="fill:#00ffc7;"/><path d="M290.486,84.501l0,50.31c0,3.105 -2.521,5.626 -5.626,5.626l-11.252,0c-3.105,0 -5.626,-2.521 -5.626,-5.626l0,-50.31c0,-3.105 2.521,-5.626 5.626,-5.626l11.252,0c3.105,0 5.626,2.521 5.626,5.626Z" style="fill:#00ffc7;"/><path d="M319.41,84.501l0,50.31c0,3.105 -2.521,5.626 -5.626,5.626l-11.252,0c-3.105,0 -5.626,-2.521 -5.626,-5.626l0,-50.31c0,-3.105 2.521,-5.626 5.626,-5.626l11.252,0c3.105,0 5.626,2.521 5.626,5.626Z" style="fill:#00ffc7;"/><path d="M348.335,84.501l0,50.31c0,3.105 -2.521,5.626 -5.626,5.626l-11.252,0c-3.105,0 -5.626,-2.521 -5.626,-5.626l0,-50.31c0,-3.105 2.521,-5.626 5.626,-5.626l11.252,0c3.105,0 5.626,2.521 5.626,5.626Z" style="fill:#00ffc7;"/><path d="M377.259,84.501l0,50.31c0,3.105 -2.521,5.626 -5.626,5.626l-11.252,0c-3.105,0 -5.626,-2.521 -5.626,-5.626l0,-50.31c0,-3.105 2.521,-5.626 5.626,-5.626l11.252,0c3.105,0 5.626,2.521 5.626,5.626Z" style="fill:#00ffc7;"/></svg>