<?xml version="1.0" encoding="UTF-8" standalone="no"?><!DOCTYPE svg PUBLIC "-//W3C//DTD SVG 1.1//EN" "http://www.w3.org/Graphics/SVG/1.1/DTD/svg11.dtd"><svg width="100%" height="100%" viewBox="0 0 1080 700" version="1.1" xmlns="http://www.w3.org/2000/svg" xmlns:xlink="http://www.w3.org/1999/xlink" xml:space="preserve" xmlns:serif="http://www.serif.com/" style="fill-rule:evenodd;clip-rule:evenodd;stroke-linecap:round;stroke-linejoin:round;stroke-miterlimit:1.5;"><rect x="0" y="0" width="1080" height="700" style="fill:#101827;"/><g><rect x="66.519" y="71.724" width="114.318" height="114.318" style="fill:#868686;stroke:#fff;stroke-width:1px;"/><text x="94.874px" y="55.424px" style="font-family:'AndaleMono', 'Andale Mono', monospace;font-size:16px;fill:#fff;">SECTOR</text><g transform="matrix(1,0,0,1,75.67,208.913)"><text x="0px" y="0px" style="font-family:'AndaleMono', 'Andale Mono', monospace;font-size:12px;fill:#fff;">conditions</text><g transform="matrix(12,0,0,12,100.816406,12)"></g><text x="0px" y="12px" style="font-family:'AndaleMono', 'Andale Mono', monospace;font-size:12px;fill:#fff;">to show sector</text></g></g><g><g><rect x="606.519" y="271.519" width="358.136" height="358.136" style="fill:#868686;stroke:#fff;stroke-width:1px;"/><text x="634.874px" y="255.22px" style="font-family:'AndaleMono', 'Andale Mono', monospace;font-size:16px;fill:#fff;">SECTOR</text><rect x="614.11" y="398.582" width="100.318" height="100.318" style="fill:#212936;stroke:#fff;stroke-width:0.88px;"/><rect x="735.428" y="398.582" width="100.318" height="100.318" style="fill:#212936;stroke:#fff;stroke-width:0.88px;"/><rect x="735.428" y="512.067" width="100.318" height="100.318" style="fill:#212936;stroke:#fff;stroke-width:0.88px;"/><rect x="852.428" y="398.582" width="100.318" height="100.318" style="fill:#212936;stroke:#fff;stroke-width:0.88px;"/><rect x="852.428" y="288.789" width="100.318" height="100.318" style="fill:#212936;stroke:#fff;stroke-width:0.88px;"/><rect x="737.043" y="288.789" width="100.318" height="100.318" style="fill:#21362b;stroke:#fff;stroke-width:0.88px;"/><rect x="759" y="512.067" width="54" height="20.933" style="fill:#fff;fill-opacity:0.5;"/><rect x="772.087" y="406.501" width="27" height="20.933" style="fill:#fff;fill-opacity:0.5;"/><rect x="759" y="477.967" width="54" height="20.933" style="fill:#fff;fill-opacity:0.5;"/><rect x="735.428" y="422.967" width="15" height="47.933" style="fill:#fff;fill-opacity:0.5;"/><rect x="699.428" y="422.967" width="15" height="47.933" style="fill:#fff;fill-opacity:0.5;"/><rect x="852.428" y="422.967" width="15" height="47.933" style="fill:#fff;fill-opacity:0.5;"/><rect x="821.428" y="422.967" width="15" height="47.933" style="fill:#fff;fill-opacity:0.5;"/><g transform="matrix(9.025057,0,0,9.025057,804.511858,491.712731)"></g><text x="766.6px" y="491.713px" style="font-family:'AndaleMono', 'Andale Mono', monospace;font-size:9.025px;fill:#fff;">gateway</text><rect x="875.587" y="398.582" width="54" height="20.933" style="fill:#fff;fill-opacity:0.5;"/><g transform="matrix(9.025057,0,0,9.025057,921.098858,412.327691)"></g><text x="883.187px" y="412.328px" style="font-family:'AndaleMono', 'Andale Mono', monospace;font-size:9.025px;fill:#fff;">gateway</text><rect x="875.174" y="368.174" width="54" height="20.933" style="fill:#fff;fill-opacity:0.5;"/><g transform="matrix(9.025057,0,0,9.025057,920.685858,381.919619)"></g><text x="882.774px" y="381.92px" style="font-family:'AndaleMono', 'Andale Mono', monospace;font-size:9.025px;fill:#fff;">gateway</text><g transform="matrix(9.025057,0,0,9.025057,804.511858,524.549616)"></g><text x="766.6px" y="524.55px" style="font-family:'AndaleMono', 'Andale Mono', monospace;font-size:9.025px;fill:#fff;">gateway</text><g transform="matrix(12,0,0,12,825.222742,622.240937)"></g><text x="746.01px" y="622.241px" style="font-family:'AndaleMono', 'Andale Mono', monospace;font-size:12px;fill:#fff;">entry scene</text><g transform="matrix(8,0,0,8,704.523589,410.500073)"></g><text x="622.91px" y="410.5px" style="font-family:'AndaleMono', 'Andale Mono', monospace;font-size:8px;fill:#fff;">SCENE:POINT+CLICK</text><g transform="matrix(8,0,0,8,825.841589,608.485474)"></g><text x="744.228px" y="608.485px" style="font-family:'AndaleMono', 'Andale Mono', monospace;font-size:8px;fill:#fff;">SCENE:POINT+CLICK</text><g transform="matrix(8,0,0,8,942.841589,299.500073)"></g><text x="861.228px" y="299.5px" style="font-family:'AndaleMono', 'Andale Mono', monospace;font-size:8px;fill:#fff;">SCENE:POINT+CLICK</text><g transform="matrix(8,0,0,8,942.841589,488.500073)"></g><text x="861.228px" y="488.5px" style="font-family:'AndaleMono', 'Andale Mono', monospace;font-size:8px;fill:#fff;">SCENE:POINT+CLICK</text><g transform="matrix(8,0,0,8,828.619227,299.500073)"></g><text x="747.006px" y="299.5px" style="font-family:'AndaleMono', 'Andale Mono', monospace;font-size:8px;fill:#fff;">SCENE:DNA MACHINE</text><g><path d="M777.354,577.82c-0.984,-3.762 -1.386,-5.076 -3.675,-7.169c-1.38,-1.262 -5.711,-2.582 -5.711,-2.582c-2.122,-0.416 -3.096,0.332 -3.396,1.764c0,0 0.116,0.783 1.081,1.309c0.965,0.526 1.413,3.484 1.698,5.235c0.192,1.184 0.745,5.931 2.316,5.889c0.725,-0.019 0.574,-0.012 0.922,-0.045c2.843,-0.291 5.304,-1.976 6.766,-4.402Z" style="fill:#ffdc40;"/><path d="M740.646,577.82c1.292,-3.108 1.849,-5.076 3.675,-7.169c1.238,-1.419 5.711,-2.582 5.711,-2.582c2.122,-0.416 3.096,0.332 3.396,1.764c0,0 -0.116,0.783 -1.081,1.309c-0.965,0.526 -1.413,3.484 -1.698,5.235c-0.282,1.733 -3.114,4.4 -3.239,5.845c-2.843,-0.291 -5.304,-1.976 -6.766,-4.402Z" style="fill:#ffdc40;"/><path d="M769.675,582.266c0.024,-1.453 0.9,-7.022 -0.877,-8.9c-1.777,-1.877 -2.699,-2.61 -4.112,-2.552c-1.413,0.058 -2.347,1.424 -10.175,0.491c-0.966,-0.115 -2.658,10.394 -2.174,10.961" style="fill:#ffc838;"/><path d="M748.075,582.267c-0.618,-0.03 -1.081,-0.062 -1.081,-0.095c0.002,-1.586 0.611,-6.966 2.352,-8.805c1.777,-1.877 2.699,-2.61 4.112,-2.552c1.413,0.058 1.742,0.606 1.698,1.636c-0.044,1.03 0.176,4.995 -0.309,5.562c-0.485,0.567 -1.25,2.869 -0.463,4.253" style="fill:#feb333;"/><path d="M752.212,570.803c0.785,0.731 1.696,1.322 2.635,1.648c2.187,0.758 6.329,0.894 8.49,0.164c1.969,-0.665 4.064,-3.188 4.476,-4.545c0.413,-1.358 0.233,-3.813 -2.933,-5.107c-2.025,-0.828 -3.628,-1.731 -5.866,-1.636c-0.204,0.009 -0.418,0.025 -0.639,0.048c2.248,2.591 -1.412,8.16 -2.911,7.477c-1.561,-0.71 -2.784,0.586 -3.252,1.952Z" style="fill:#fee77f;"/><path d="M758.376,561.374c-2.199,0.233 -5.115,1.169 -6.616,2.242c-1.266,0.905 -2.363,2.602 -1.544,4.453c0.429,0.967 1.137,1.934 1.996,2.734c0.468,-1.365 1.692,-2.662 3.252,-1.952c1.5,0.683 5.159,-4.886 2.911,-7.477Z" style="fill:#ffdc40;"/><path d="M763.028,577.686l0,-6.066" style="fill:none;stroke:#fff;stroke-width:1.59px;"/><path d="M754.847,577.686l0,-6.066" style="fill:none;stroke:#fff;stroke-width:1.59px;"/><path d="M757.684,560.386c0.417,-0.239 0.865,-0.369 1.331,-0.369c2.215,0 4.013,2.932 4.013,6.544c0,3.612 -1.798,6.544 -4.013,6.544c-1.031,0 -1.971,-0.635 -2.682,-1.678c1.562,-0.896 2.682,-3.324 2.682,-6.175c0,-1.931 -0.514,-3.668 -1.331,-4.866Z" style="fill:#feaa7b;"/><path d="M756.332,571.427c-0.817,-1.198 -1.331,-2.935 -1.331,-4.866c0,-2.851 1.121,-5.279 2.682,-6.175c0.817,1.198 1.331,2.935 1.331,4.866c0,2.851 -1.121,5.279 -2.682,6.175Z" style="fill:#fc945f;"/><path d="M756.656,557.119c-1.882,0.015 -3.382,-0.141 -3.661,-0.537c-0.823,-1.166 -1.366,-2.559 -1.389,-4.581c-0.023,-2.022 0.13,-4.808 1.698,-6.544c1.039,-1.151 0.991,-1.054 2.47,-1.8c0.538,-0.271 1.378,-0.417 1.235,-0.654c-0.326,-0.542 -0.812,-0.817 0.663,-0.818c0.403,-0 0.992,0.053 1.666,0.169c0.092,0.142 0.186,0.302 0.295,0.486c0.651,1.095 0.737,2.103 0,2.618c-1.091,0.762 -0.617,2.29 -0.617,2.29c0,0 -0.899,0.553 -1.344,1.472c-0.444,0.919 -0.049,2.624 -0.663,3.108c-0.648,0.51 -0.555,3.382 -0.352,4.791Z" style="fill:#753615;"/><path d="M759.337,542.354c1.79,0.308 4.182,1.062 5.294,2.449c1.531,1.909 1.995,3.413 1.947,4.908c-0.047,1.494 -0.164,4.656 -0.772,5.889c-0.401,0.814 -5.496,1.489 -9.151,1.519c-0.203,-1.409 -0.295,-4.28 0.352,-4.791c0.614,-0.484 0.219,-2.189 0.663,-3.108c0.444,-0.919 1.344,-1.472 1.344,-1.472c0,0 -0.473,-1.529 0.617,-2.29c0.737,-0.515 0.651,-1.523 0,-2.618c-0.109,-0.184 -0.203,-0.344 -0.295,-0.486l0,0Z" style="fill:#925330;"/><path d="M753.458,554.619c-0.724,-0.204 -0.909,-0.969 -1.578,-0.421c0,0 -0.814,0.203 -0.428,1.403c0.386,1.2 0.25,1.531 0.463,1.963c0.213,0.432 0.628,1.253 1.389,0.818" style="fill:#fb935e;"/><path d="M764.622,554.619c0.724,-0.204 0.909,-0.969 1.578,-0.421c0,0 0.814,0.203 0.428,1.403c-0.386,1.2 -0.25,1.531 -0.463,1.963c-0.213,0.432 -0.628,1.253 -1.389,0.818" style="fill:#ffa97b;"/><path d="M758.819,547.754c0.066,-0.003 0.131,-0.005 0.196,-0.006l0.005,0c1.556,0.04 3.648,0.355 4.626,1.309c0.978,0.955 1.178,1.829 0.977,2.454c-0.101,0.313 -0.05,0.694 0.022,1.029c0.094,0.436 0.415,1.217 0.545,1.589c0.259,0.744 0.086,1.212 0,1.8c-0.086,0.587 -0.178,1.771 -0.309,2.945c-0.13,1.173 -0.794,1.747 -1.698,3.108c-0.516,0.778 -2.868,1.111 -4.957,1c0.005,-0.06 0.011,-0.12 0.018,-0.182l-1.081,-2.618c-0.526,-0.436 -0.564,-1.25 -0.309,-2.29c-0.277,-0.222 -0.689,-4.897 0.154,-5.562c0.614,-0.484 0.219,-2.189 0.663,-3.108c0.315,-0.651 0.858,-1.201 1.148,-1.466l0,0Z" style="fill:#ffc7ac;"/><path d="M758.225,562.98c-1.567,-0.083 -2.986,-0.417 -3.373,-1c-0.904,-1.361 -1.568,-1.935 -1.698,-3.108c-0.13,-1.173 -0.222,-2.357 -0.309,-2.945c-0.086,-0.587 -0.259,-1.055 0,-1.8c0.13,-0.372 0.45,-1.153 0.545,-1.589c0.072,-0.334 0.123,-0.716 0.022,-1.029c-0.201,-0.625 -0.002,-1.499 0.977,-2.454c0.937,-0.914 3.094,-1.248 4.626,-1.309c-0.29,0.265 -1.029,0.821 -1.344,1.472c-0.444,0.919 -0.049,2.624 -0.663,3.108c-0.844,0.665 -0.431,5.34 -0.154,5.562c-0.255,1.04 -0.217,1.854 0.309,2.29l1.081,2.618c-0.007,0.062 -0.013,0.122 -0.018,0.182Z" style="fill:#feaa7b;"/><path d="M756.771,558.273c0.754,-0.321 1.612,-0.437 1.883,-0.546c0.147,-0.06 0.281,0.043 0.361,0.237c0.08,-0.194 0.213,-0.297 0.361,-0.237c0.368,0.149 1.823,0.31 2.624,0.982c0.764,0.64 1.132,1.033 1.123,2.015c0.667,-0.458 1.265,-1.057 1.773,-1.571c-0.529,3.285 -2.512,6.096 -4.985,6.654l0.03,-0.063c-1.324,-0.381 -1.879,-1.372 -1.698,-2.945l-0.042,-0.101c0.249,-0.159 0.451,-0.413 0.591,-0.727c0.04,-0.092 0.127,-0.151 0.222,-0.151l0,-0.002l0.048,-0c0.068,-0 0.129,0.042 0.156,0.108c0.201,0.481 0.543,0.828 0.978,0.927c0.772,0.176 1.581,-0.487 1.939,-1.526l-0.136,0c-0.524,-0.665 -0.741,-0.858 -1.544,-1.145c-0.802,-0.287 -0.998,-0.203 -1.389,-1.145c-0.02,-0.047 -0.037,-0.095 -0.052,-0.142c-0.015,0.047 -0.032,0.095 -0.052,0.142c-0.391,0.942 -0.587,0.858 -1.389,1.145c-0.133,0.048 -0.25,0.092 -0.355,0.137l-0.057,-0.137c-0.46,-0.381 -0.547,-1.051 -0.391,-1.908l0,0Z" style="fill:#925330;"/><path d="M759.911,565.806c-0.293,0.066 -0.592,0.1 -0.896,0.1c-2.88,0 -5.29,-3.081 -5.881,-6.754c0.509,0.513 1.107,1.113 1.773,1.571c-0.009,-0.982 0.36,-1.375 1.123,-2.015c0.212,-0.178 0.47,-0.32 0.741,-0.435c-0.156,0.857 -0.069,1.526 0.391,1.908l0.057,0.137c-0.528,0.226 -0.752,0.453 -1.189,1.008l-0.136,0c0.358,1.039 1.166,1.703 1.939,1.526c0.132,-0.03 0.255,-0.083 0.368,-0.155l0.042,0.101c-0.181,1.573 0.374,2.563 1.698,2.945l-0.03,0.063l-0,0Z" style="fill:#73351a;"/></g><g id="vrouw"><path d="M930.424,455.901l-2.185,0c-1.363,0 -2.469,-1.106 -2.469,-2.469l0,-2.674c0,-1.011 0.82,-1.831 1.831,-1.831l2.787,0c1.08,0 1.956,0.877 1.956,1.956l0,3.097c0,1.06 -0.861,1.921 -1.921,1.921l0,-0Z" style="fill:#d1ac82;"/><path d="M935.396,452.993l2.956,0c2.961,0 5.365,2.462 5.365,5.495l0,11.201l-29.423,0l0,-11.201c0,-3.033 2.404,-5.495 5.365,-5.495l2.9,0c0,3.629 2.876,6.574 6.419,6.574c3.543,0 6.419,-2.946 6.419,-6.574Z" style="fill:#c7094f;"/><path d="M933.539,452.993l1.857,0c0,3.629 -2.876,6.574 -6.419,6.574c-3.543,0 -6.419,-2.946 -6.419,-6.574l1.857,0c0,2.579 2.044,4.672 4.562,4.672c2.518,0 4.562,-2.093 4.562,-4.672Z" style="fill:#ffb600;"/><path d="M933.539,452.993c0,2.579 -2.044,4.672 -4.562,4.672c-2.518,0 -4.562,-2.093 -4.562,-4.672l9.124,0Z" style="fill:#eec79e;"/><path d="M938.807,435.762l0,12.759c0,1.608 -1.305,2.913 -2.913,2.913l-13.25,0c-1.898,0 -3.44,-1.541 -3.44,-3.44l0,-11.843c0,-4.613 3.745,-8.358 8.358,-8.358l3.276,0c4.398,0 7.968,3.57 7.968,7.968l0,0Z" style="fill:#084f7b;"/><path d="M938.859,441.102l0,1.676c0,1.045 -0.849,1.894 -1.894,1.894l-16.304,0c-0.775,0 -1.405,-0.629 -1.405,-1.405l0,-2.138c0,-0.828 0.672,-1.5 1.5,-1.5l16.629,0c0.813,0 1.474,0.66 1.474,1.474Z" style="fill:#d1ac82;"/><path d="M937.053,439.319l0,5.995c0,3.378 -2.743,6.121 -6.121,6.121l-3.693,0c-3.58,0 -6.487,-2.907 -6.487,-6.487l0,-5.541c0,-2.677 2.173,-4.849 4.849,-4.849l6.689,0c2.628,0 4.763,2.134 4.763,4.763Z" style="fill:#eac8a2;"/><path d="M938.24,437.119l0,2.509l-5.806,0c-2.804,0 -5.08,-2.276 -5.08,-5.08l0,-0.626c0,-1.05 0.852,-1.902 1.902,-1.902l3.885,0c2.814,0 5.099,2.285 5.099,5.099Z" style="fill:#0a4f78;"/></g></g></g><g><text x="345.305px" y="208.913px" style="font-family:'AndaleMono', 'Andale Mono', monospace;font-size:16px;fill:#fff;">conditions</text><rect x="336.153" y="71.724" width="114.318" height="114.318" style="fill:#868686;stroke:#fff;stroke-width:1px;"/><text x="364.508px" y="55.424px" style="font-family:'AndaleMono', 'Andale Mono', monospace;font-size:16px;fill:#fff;">SECTOR</text></g><g><text x="615.431px" y="208.913px" style="font-family:'AndaleMono', 'Andale Mono', monospace;font-size:16px;fill:#fff;">conditions</text><rect x="606.279" y="71.724" width="114.318" height="114.318" style="fill:#868686;stroke:#fff;stroke-width:1px;"/><text x="634.634px" y="55.424px" style="font-family:'AndaleMono', 'Andale Mono', monospace;font-size:16px;fill:#fff;">SECTOR</text></g><g><text x="485.414px" y="112.583px" style="font-family:'AndaleMono', 'Andale Mono', monospace;font-size:16px;fill:#fff;">SCENE:FLY</text><g><path d="M450.963,128.883l155.316,0" style="fill:none;"/><path d="M575.446,118.605l30.834,10.278l-30.834,10.278l0,-20.556Z" style="fill:#fff;"/><path d="M450.963,128.883l130.649,0" style="fill:none;stroke:#fff;stroke-width:5.5px;stroke-linecap:butt;"/></g></g><g><text x="215.288px" y="112.583px" style="font-family:'AndaleMono', 'Andale Mono', monospace;font-size:16px;fill:#fff;">SCENE:FLY</text><g><path d="M180.837,128.883l155.316,0" style="fill:none;"/><path d="M305.32,118.605l30.834,10.278l-30.834,10.278l0,-20.556Z" style="fill:#fff;"/><path d="M180.837,128.883l130.649,0" style="fill:none;stroke:#fff;stroke-width:5.5px;stroke-linecap:butt;"/></g></g></svg>