<?xml version="1.0" encoding="UTF-8" standalone="no"?><!DOCTYPE svg PUBLIC "-//W3C//DTD SVG 1.1//EN" "http://www.w3.org/Graphics/SVG/1.1/DTD/svg11.dtd"><svg width="100%" height="100%" viewBox="0 0 1080 700" version="1.1" xmlns="http://www.w3.org/2000/svg" xmlns:xlink="http://www.w3.org/1999/xlink" xml:space="preserve" xmlns:serif="http://www.serif.com/" style="fill-rule:evenodd;clip-rule:evenodd;stroke-linecap:round;stroke-linejoin:round;stroke-miterlimit:1.5;"><rect x="0" y="0" width="1080" height="700" style="fill:#101827;"/><g id="SETTING"><rect x="723.071" y="272.966" width="325.206" height="181.568" style="fill:#868686;stroke:#fff;stroke-width:1px;"/><rect x="723.071" y="298.318" width="325.206" height="112.127" style="fill:#212936;stroke:#fff;stroke-width:1px;"/><path d="M1029.046,325.439l0,25.541c0,7.048 -5.722,12.77 -12.77,12.77l-263.206,0c-7.048,0 -12.77,-5.722 -12.77,-12.77l0,-25.541c0,-7.048 5.722,-12.77 12.77,-12.77l263.206,0c7.048,0 12.77,5.722 12.77,12.77Z" style="fill:#fff;fill-opacity:0.16;"/><g transform="matrix(12,0,0,12,935.080437,340.847114)"></g><text x="834.264px" y="340.847px" style="font-family:'AndaleMono', 'Andale Mono', monospace;font-size:12px;fill:#fff;">Dedicated view</text><g transform="matrix(16,0,0,16,903.788471,256.666057)"></g><text x="723.071px" y="256.666px" style="font-family:'AndaleMono', 'Andale Mono', monospace;font-size:16px;fill:#fff;">SCENE:GAME <tspan x="826.976px " y="256.666px ">S</tspan>ETTINGS</text></g><g id="FLY"><rect x="723.563" y="43.292" width="325.206" height="181.568" style="fill:#868686;stroke:#fff;stroke-width:1px;"/><g transform="matrix(16,0,0,16,809.977064,26.991992)"></g><text x="723.563px" y="26.992px" style="font-family:'AndaleMono', 'Andale Mono', monospace;font-size:16px;fill:#fff;">SCENE:FLY</text><rect x="723.563" y="68.644" width="325.206" height="112.127" style="fill:#212936;stroke:#fff;stroke-width:1px;"/><g transform="matrix(16,0,0,16,915.992689,61.190873)"></g><text x="733.563px" y="61.191px" style="font-family:'AndaleMono', 'Andale Mono', monospace;font-size:16px;fill:#fff;">LOCATION: FLY SCENE</text><path d="M728.563,180.771l152.603,-65.511l162.603,65.511l-315.206,0Z" style="fill:#fff;fill-opacity:0.16;"/></g><g id="MAP"><rect x="32.238" y="272.966" width="325.206" height="181.568" style="fill:#868686;stroke:#fff;stroke-width:1px;"/><g transform="matrix(16,0,0,16,118.651785,256.666057)"></g><text x="32.238px" y="256.666px" style="font-family:'AndaleMono', 'Andale Mono', monospace;font-size:16px;fill:#fff;">SCENE:MAP</text><rect x="32.238" y="298.318" width="325.206" height="112.127" style="fill:#212936;stroke:#fff;stroke-width:1px;"/><g transform="matrix(16,0,0,16,119.050223,290.864938)"></g><text x="42.238px" y="290.865px" style="font-family:'AndaleMono', 'Andale Mono', monospace;font-size:16px;fill:#fff;">MAP VIEW</text><g transform="matrix(12,0,0,12,223.716392,201.957208)"></g><text x="166.107px" y="201.957px" style="font-family:'AndaleMono', 'Andale Mono', monospace;font-size:12px;fill:#fff;">Evidence</text></g><g id="ESPER"><rect x="377.397" y="272.966" width="325.206" height="181.568" style="fill:#868686;stroke:#fff;stroke-width:1px;"/><g transform="matrix(16,0,0,16,598.232917,256.666057)"></g><text x="377.397px" y="256.666px" style="font-family:'AndaleMono', 'Andale Mono', monospace;font-size:16px;fill:#fff;">SCENE:ESPER INVESTIGATE</text><rect x="377.397" y="298.318" width="325.206" height="112.127" style="fill:#212936;stroke:#fff;stroke-width:1px;"/><g transform="matrix(16,0,0,16,416.201667,290.864938)"></g><text x="387.397px" y="290.865px" style="font-family:'AndaleMono', 'Andale Mono', monospace;font-size:16px;fill:#fff;">TBD</text></g><g id="P-C" serif:id="P+C"><rect x="32.309" y="43.292" width="325.206" height="181.568" style="fill:#868686;stroke:#fff;stroke-width:1px;"/><rect x="32.309" y="68.644" width="325.206" height="156.216" style="fill:#212936;stroke:#fff;stroke-width:1px;"/><g transform="matrix(16,0,0,16,195.535247,26.991992)"></g><text x="32.309px" y="26.992px" style="font-family:'AndaleMono', 'Andale Mono', monospace;font-size:16px;fill:#fff;">SCENE:POINT+CLICK</text><g transform="matrix(16,0,0,16,311.152435,61.190873)"></g><text x="42.309px" y="61.191px" style="font-family:'AndaleMono', 'Andale Mono', monospace;font-size:16px;fill:#fff;">LOCATION: INSIDE or OUTSIDE</text><g transform="matrix(16,0,0,16,128.722747,162.769174)"></g><text x="42.309px" y="162.769px" style="font-family:'AndaleMono', 'Andale Mono', monospace;font-size:16px;fill:#fff;">Detective</text><g transform="matrix(16,0,0,16,340.663021,162.769174)"></g><text x="244.647px" y="162.769px" style="font-family:'AndaleMono', 'Andale Mono', monospace;font-size:16px;fill:#fff;">Personages</text><g transform="matrix(1,0,0,1,141.192596,149.87107)"><text x="126.084px" y="25.751px" style="font-family:'AndaleMono', 'Andale Mono', monospace;font-size:12px;fill:#fff;">based on</text><g transform="matrix(12,0,0,12,190.894324,39.251498)"></g><text x="118.883px" y="39.251px" style="font-family:'AndaleMono', 'Andale Mono', monospace;font-size:12px;fill:#fff;">conditions</text></g><g><path d="M106.15,134.581c-1.254,-4.794 -1.767,-6.469 -4.684,-9.136c-1.759,-1.608 -7.279,-3.291 -7.279,-3.291c-2.704,-0.53 -3.946,0.423 -4.328,2.248c0,0 0.148,0.998 1.377,1.668c1.23,0.67 1.801,4.44 2.164,6.672c0.245,1.508 0.95,7.559 2.952,7.506c0.924,-0.024 0.731,-0.015 1.175,-0.057c3.624,-0.37 6.76,-2.518 8.622,-5.61Z" style="fill:#ffdc40;"/><path d="M59.368,134.581c1.647,-3.961 2.357,-6.469 4.684,-9.136c1.577,-1.808 7.279,-3.291 7.279,-3.291c2.704,-0.53 3.946,0.423 4.328,2.248c0,0 -0.148,0.998 -1.377,1.668c-1.23,0.67 -1.801,4.44 -2.164,6.672c-0.359,2.209 -3.968,5.608 -4.127,7.449c-3.624,-0.37 -6.76,-2.518 -8.622,-5.61Z" style="fill:#ffdc40;"/><path d="M96.363,140.248c0.031,-1.852 1.147,-8.949 -1.118,-11.342c-2.265,-2.393 -3.439,-3.326 -5.24,-3.252c-1.801,0.073 -2.991,1.815 -12.968,0.625c-1.232,-0.147 -3.388,13.246 -2.77,13.969" style="fill:#ffc838;"/><path d="M68.836,140.248c-0.787,-0.038 -1.378,-0.079 -1.378,-0.121c0.002,-2.021 0.778,-8.877 2.997,-11.221c2.265,-2.393 3.439,-3.326 5.24,-3.252c1.801,0.073 2.22,0.773 2.164,2.085c-0.056,1.312 0.224,6.366 -0.393,7.089c-0.618,0.723 -1.593,3.656 -0.59,5.421" style="fill:#feb333;"/><path d="M74.108,125.639c1,0.931 2.161,1.685 3.358,2.1c2.787,0.966 8.066,1.139 10.82,0.208c2.509,-0.848 5.179,-4.062 5.705,-5.793c0.526,-1.73 0.296,-4.86 -3.738,-6.509c-2.581,-1.055 -4.623,-2.205 -7.475,-2.085c-0.26,0.011 -0.533,0.032 -0.814,0.062c2.865,3.302 -1.799,10.399 -3.71,9.529c-1.989,-0.905 -3.549,0.747 -4.145,2.487Z" style="fill:#fee77f;"/><path d="M81.963,113.622c-2.803,0.297 -6.519,1.49 -8.431,2.857c-1.614,1.154 -3.012,3.316 -1.967,5.675c0.546,1.233 1.449,2.465 2.544,3.484c0.596,-1.74 2.156,-3.393 4.145,-2.487c1.911,0.87 6.575,-6.227 3.71,-9.529Z" style="fill:#ffdc40;"/><path d="M87.893,134.41l0,-7.731" style="fill:none;stroke:#fff;stroke-width:2.03px;"/><path d="M77.466,134.41l0,-7.731" style="fill:none;stroke:#fff;stroke-width:2.03px;"/><path d="M81.081,112.363c0.531,-0.305 1.102,-0.47 1.696,-0.47c2.823,0 5.115,3.737 5.115,8.34c0,4.603 -2.292,8.34 -5.115,8.34c-1.314,0 -2.512,-0.809 -3.418,-2.138c1.99,-1.142 3.418,-4.236 3.418,-7.869c0,-2.461 -0.655,-4.674 -1.696,-6.201Z" style="fill:#feaa7b;"/><path d="M79.359,126.434c-1.041,-1.527 -1.696,-3.741 -1.696,-6.201c0,-3.634 1.428,-6.727 3.418,-7.869c1.041,1.527 1.696,3.741 1.696,6.201c0,3.634 -1.428,6.727 -3.418,7.869Z" style="fill:#fc945f;"/><path d="M79.772,108.199c-2.398,0.019 -4.31,-0.179 -4.666,-0.684c-1.049,-1.486 -1.741,-3.261 -1.77,-5.838c-0.029,-2.577 0.165,-6.127 2.164,-8.34c1.325,-1.466 1.263,-1.344 3.148,-2.293c0.686,-0.346 1.756,-0.531 1.574,-0.834c-0.416,-0.691 -1.034,-1.041 0.845,-1.043c0.514,-0 1.264,0.067 2.123,0.215c0.117,0.181 0.237,0.385 0.376,0.619c0.83,1.395 0.939,2.68 0,3.336c-1.39,0.971 -0.787,2.919 -0.787,2.919c0,0 -1.146,0.705 -1.712,1.876c-0.566,1.172 -0.063,3.345 -0.845,3.961c-0.825,0.65 -0.707,4.31 -0.449,6.105Z" style="fill:#753615;"/><path d="M83.189,89.382c2.282,0.393 5.329,1.354 6.747,3.121c1.951,2.432 2.542,4.35 2.482,6.255c-0.06,1.905 -0.21,5.934 -0.984,7.506c-0.511,1.037 -7.005,1.898 -11.662,1.935c-0.259,-1.796 -0.377,-5.455 0.449,-6.105c0.782,-0.617 0.279,-2.79 0.845,-3.961c0.566,-1.172 1.712,-1.876 1.712,-1.876c0,0 -0.603,-1.948 0.787,-2.919c0.939,-0.656 0.83,-1.94 0,-3.336c-0.139,-0.234 -0.259,-0.438 -0.376,-0.619l0,0Z" style="fill:#925330;"/><path d="M75.696,105.013c-0.923,-0.26 -1.158,-1.236 -2.012,-0.537c0,0 -1.038,0.259 -0.546,1.788c0.492,1.53 0.319,1.951 0.59,2.502c0.271,0.551 0.801,1.597 1.77,1.042" style="fill:#fb935e;"/><path d="M89.924,105.013c0.923,-0.26 1.158,-1.236 2.012,-0.537c0,0 1.038,0.259 0.546,1.788c-0.492,1.53 -0.319,1.951 -0.59,2.502c-0.271,0.551 -0.801,1.597 -1.77,1.042" style="fill:#ffa97b;"/><path d="M82.528,96.264c0.084,-0.003 0.167,-0.006 0.249,-0.008l0.006,0c1.983,0.05 4.65,0.452 5.896,1.668c1.247,1.217 1.501,2.331 1.245,3.127c-0.129,0.399 -0.064,0.885 0.028,1.311c0.12,0.556 0.529,1.551 0.694,2.025c0.33,0.948 0.11,1.545 0,2.293c-0.11,0.749 -0.227,2.258 -0.393,3.753c-0.166,1.495 -1.012,2.227 -2.164,3.961c-0.658,0.991 -3.655,1.416 -6.318,1.274c0.006,-0.076 0.014,-0.153 0.023,-0.232l-1.377,-3.336c-0.67,-0.556 -0.719,-1.593 -0.393,-2.919c-0.353,-0.284 -0.879,-6.241 0.197,-7.089c0.782,-0.617 0.279,-2.79 0.845,-3.961c0.401,-0.83 1.093,-1.531 1.463,-1.868l0,0Z" style="fill:#ffc7ac;"/><path d="M81.771,115.669c-1.997,-0.106 -3.805,-0.531 -4.299,-1.274c-1.152,-1.735 -1.998,-2.466 -2.164,-3.961c-0.166,-1.495 -0.283,-3.004 -0.393,-3.753c-0.11,-0.749 -0.33,-1.345 0,-2.293c0.165,-0.474 0.574,-1.469 0.694,-2.025c0.092,-0.426 0.157,-0.912 0.028,-1.311c-0.257,-0.796 -0.002,-1.91 1.245,-3.127c1.194,-1.165 3.944,-1.591 5.896,-1.668c-0.37,0.338 -1.311,1.046 -1.712,1.876c-0.566,1.172 -0.063,3.345 -0.845,3.961c-1.075,0.848 -0.549,6.805 -0.197,7.089c-0.325,1.326 -0.277,2.363 0.393,2.919l1.377,3.336c-0.009,0.078 -0.017,0.156 -0.023,0.232Z" style="fill:#feaa7b;"/><path d="M79.919,109.67c0.961,-0.409 2.055,-0.557 2.399,-0.696c0.188,-0.076 0.358,0.055 0.46,0.302c0.102,-0.247 0.272,-0.378 0.46,-0.302c0.469,0.189 2.323,0.395 3.344,1.251c0.973,0.816 1.443,1.316 1.431,2.568c0.85,-0.583 1.612,-1.347 2.26,-2.002c-0.674,4.186 -3.201,7.769 -6.353,8.48l0.038,-0.08c-1.688,-0.486 -2.395,-1.748 -2.164,-3.753l-0.053,-0.129c0.318,-0.203 0.575,-0.526 0.753,-0.927c0.051,-0.117 0.162,-0.192 0.283,-0.192l0,-0.003l0.061,-0c0.086,-0 0.165,0.054 0.199,0.138c0.256,0.613 0.692,1.055 1.246,1.182c0.984,0.225 2.015,-0.621 2.471,-1.945l-0.173,0c-0.668,-0.848 -0.945,-1.094 -1.967,-1.459c-1.023,-0.366 -1.272,-0.259 -1.77,-1.459c-0.025,-0.06 -0.047,-0.121 -0.066,-0.181c-0.019,0.06 -0.041,0.121 -0.066,0.181c-0.498,1.201 -0.748,1.094 -1.77,1.459c-0.169,0.061 -0.318,0.118 -0.452,0.175l-0.072,-0.175c-0.586,-0.486 -0.697,-1.339 -0.498,-2.431l0,0Z" style="fill:#925330;"/><path d="M83.92,119.271c-0.373,0.084 -0.754,0.128 -1.142,0.128c-3.67,0 -6.742,-3.926 -7.495,-8.608c0.648,0.654 1.41,1.419 2.26,2.002c-0.011,-1.252 0.458,-1.752 1.431,-2.568c0.27,-0.227 0.599,-0.408 0.945,-0.555c-0.198,1.092 -0.088,1.945 0.498,2.431l0.072,0.175c-0.673,0.289 -0.958,0.577 -1.515,1.284l-0.173,0c0.456,1.324 1.487,2.17 2.471,1.945c0.168,-0.038 0.325,-0.105 0.469,-0.198l0.053,0.129c-0.231,2.004 0.476,3.267 2.164,3.753l-0.038,0.08l-0,0Z" style="fill:#73351a;"/></g><path d="M261.043,108.441l0,25.541c0,7.048 -5.722,12.77 -12.77,12.77l-59.937,0c-7.048,0 -12.77,-5.722 -12.77,-12.77l0,-25.541c0,-7.048 5.722,-12.77 12.77,-12.77l59.937,0c7.048,0 12.77,5.722 12.77,12.77Z" style="fill:#fff;fill-opacity:0.16;"/><g transform="matrix(12,0,0,12,239.908146,123.849402)"></g><text x="196.701px" y="123.849px" style="font-family:'AndaleMono', 'Andale Mono', monospace;font-size:12px;fill:#fff;">Dialog</text><path d="M237.65,186.549l0,25.541c0,7.048 -5.722,12.77 -12.77,12.77l-59.937,0c-7.048,0 -12.77,-5.722 -12.77,-12.77l0,-25.541c0,-7.048 5.722,-12.77 12.77,-12.77l59.937,0c7.048,0 12.77,5.722 12.77,12.77Z" style="fill:#fff;fill-opacity:0.16;"/><rect x="32.309" y="173.779" width="85.477" height="51.081" style="fill:#fff;fill-opacity:0.16;"/><rect x="32.309" y="359" width="85.477" height="51.081" style="fill:#fff;fill-opacity:0.16;"/><g transform="matrix(1,0,0,1,-71.146116,166.427275)"><text x="120.989px" y="25.751px" style="font-family:'AndaleMono', 'Andale Mono', monospace;font-size:12px;fill:#fff;">GATEWAY</text><g transform="matrix(12,0,0,12,185.799925,39.251498)"></g><text x="106.587px" y="39.251px" style="font-family:'AndaleMono', 'Andale Mono', monospace;font-size:12px;fill:#fff;">click areas</text></g><g transform="matrix(1,0,0,1,-71.146116,351.537719)"><text x="135.392px" y="25.751px" style="font-family:'AndaleMono', 'Andale Mono', monospace;font-size:12px;fill:#fff;">Map</text><g transform="matrix(12,0,0,12,185.799925,39.251498)"></g><text x="106.587px" y="39.251px" style="font-family:'AndaleMono', 'Andale Mono', monospace;font-size:12px;fill:#fff;">click areas</text></g><g id="vrouw"><path d="M296.057,123.438l-2.664,0c-1.661,0 -3.01,-1.349 -3.01,-3.01l0,-3.26c0,-1.233 1,-2.233 2.233,-2.233l3.399,0c1.316,0 2.385,1.069 2.385,2.385l0,3.776c0,1.293 -1.049,2.342 -2.342,2.342l0,-0Z" style="fill:#d1ac82;"/><path d="M302.118,119.892l3.604,0c3.61,0 6.541,3.002 6.541,6.699l0,13.657l-35.874,0l0,-13.657c0,-3.698 2.931,-6.699 6.541,-6.699l3.535,0c0,4.424 3.507,8.016 7.826,8.016c4.319,0 7.826,-3.592 7.826,-8.016Z" style="fill:#c7094f;"/><path d="M299.854,119.892l2.264,0c0,4.424 -3.507,8.016 -7.826,8.016c-4.319,0 -7.826,-3.592 -7.826,-8.016l2.264,0c0,3.144 2.492,5.697 5.562,5.697c3.07,0 5.562,-2.552 5.562,-5.697Z" style="fill:#ffb600;"/><path d="M299.854,119.892c0,3.144 -2.492,5.697 -5.562,5.697c-3.07,0 -5.562,-2.552 -5.562,-5.697l11.124,0Z" style="fill:#eec79e;"/><path d="M306.277,98.883l0,15.557c0,1.96 -1.592,3.552 -3.552,3.552l-16.155,0c-2.315,0 -4.194,-1.879 -4.194,-4.194l0,-14.44c0,-5.624 4.566,-10.19 10.19,-10.19l3.995,0c5.362,0 9.715,4.353 9.715,9.715l0,0Z" style="fill:#084f7b;"/><path d="M306.341,105.394l0,2.044c0,1.274 -1.035,2.309 -2.309,2.309l-19.879,0c-0.946,0 -1.713,-0.767 -1.713,-1.713l0,-2.607c0,-1.009 0.82,-1.829 1.829,-1.829l20.275,0c0.992,0 1.797,0.805 1.797,1.797Z" style="fill:#d1ac82;"/><path d="M304.138,103.22l0,7.309c0,4.119 -3.344,7.463 -7.463,7.463l-4.503,0c-4.365,0 -7.909,-3.544 -7.909,-7.909l0,-6.756c0,-3.263 2.649,-5.913 5.913,-5.913l8.155,0c3.205,0 5.807,2.602 5.807,5.807Z" style="fill:#eac8a2;"/><path d="M305.586,100.538l0,3.059l-7.079,0c-3.418,0 -6.193,-2.775 -6.193,-6.193l0,-0.764c0,-1.28 1.039,-2.319 2.319,-2.319l4.736,0c3.431,0 6.217,2.786 6.217,6.217Z" style="fill:#0a4f78;"/></g></g><g id="VQ-TEST" serif:id="VQ TEST"><rect x="377.397" y="43.292" width="325.206" height="181.568" style="fill:#868686;stroke:#fff;stroke-width:1px;"/><rect x="377.397" y="68.644" width="325.206" height="112.127" style="fill:#212936;stroke:#fff;stroke-width:1px;"/><path d="M572.739,108.441l0,25.541c0,7.048 -5.722,12.77 -12.77,12.77l-59.937,0c-7.048,0 -12.77,-5.722 -12.77,-12.77l0,-25.541c0,-7.048 5.722,-12.77 12.77,-12.77l59.937,0c7.048,0 12.77,5.722 12.77,12.77Z" style="fill:#fff;fill-opacity:0.16;"/><g id="vrouw1" serif:id="vrouw"><path d="M433.208,149.35l-4.662,0c-2.907,0 -5.267,-2.36 -5.267,-5.267l0,-5.704c0,-2.157 1.75,-3.907 3.907,-3.907l5.946,0c2.303,0 4.173,1.87 4.173,4.173l0,6.607c0,2.262 -1.836,4.098 -4.098,4.098l0,-0.001Z" style="fill:#d1ac82;"/><path d="M443.815,143.147l6.306,0c6.317,0 11.445,5.252 11.445,11.722l0,23.895l-62.769,0l0,-23.895c0,-6.47 5.128,-11.722 11.445,-11.722l6.186,0c0,7.741 6.136,14.025 13.694,14.025c7.558,0 13.694,-6.284 13.694,-14.025Z" style="fill:#c7094f;"/><path d="M439.853,143.147l3.962,0c0,7.741 -6.136,14.025 -13.694,14.025c-7.558,0 -13.694,-6.284 -13.694,-14.025l3.962,0c0,5.501 4.361,9.967 9.732,9.967c5.371,0 9.732,-4.466 9.732,-9.967Z" style="fill:#ffb600;"/><path d="M439.853,143.147c0,5.501 -4.361,9.967 -9.732,9.967c-5.371,0 -9.732,-4.466 -9.732,-9.967l19.464,0Z" style="fill:#eec79e;"/><path d="M451.09,106.387l0,27.22c0,3.43 -2.785,6.215 -6.215,6.215l-28.266,0c-4.05,0 -7.338,-3.288 -7.338,-7.338l0,-25.265c0,-9.841 7.99,-17.83 17.83,-17.83l6.99,0c9.381,0 16.998,7.617 16.998,16.998l0.001,0.001Z" style="fill:#084f7b;"/><path d="M451.202,117.779l0,3.576c0,2.229 -1.81,4.04 -4.04,4.04l-34.782,0c-1.654,0 -2.997,-1.343 -2.997,-2.997l0,-4.561c0,-1.766 1.434,-3.201 3.201,-3.201l35.475,0c1.735,0 3.144,1.408 3.144,3.144Z" style="fill:#d1ac82;"/><path d="M447.348,113.975l0,12.788c0,7.207 -5.851,13.057 -13.057,13.057l-7.879,0c-7.638,0 -13.839,-6.201 -13.839,-13.839l0,-11.822c0,-5.71 4.636,-10.345 10.345,-10.345l14.27,0c5.607,0 10.16,4.553 10.16,10.16Z" style="fill:#eac8a2;"/><path d="M449.882,109.283l0,5.353l-12.386,0c-5.981,0 -10.837,-4.856 -10.837,-10.837l0,-1.336c0,-2.239 1.818,-4.058 4.058,-4.058l8.287,0c6.003,0 10.878,4.874 10.878,10.878Z" style="fill:#0a4f78;"/></g><g id="VQ"><path d="M696.981,90.288l0,14.047l-85.24,0l0,-14.047c0,-2.584 2.098,-4.682 4.682,-4.682l75.875,0c2.584,0 4.682,2.098 4.682,4.682l0.001,0Z" style="fill:#21252e;stroke:#171a1f;stroke-width:2.31px;"/><path d="M701.057,107.322l0,68.319c0,1.894 -1.537,3.431 -3.431,3.431l-88.447,0c-1.894,0 -3.431,-1.537 -3.431,-3.431l0,-68.319c0,-1.894 1.537,-3.431 3.431,-3.431l88.447,0c1.894,0 3.431,1.537 3.431,3.431Z" style="fill:#4b403c;"/><path d="M606.112,165.389c-0.863,-0.698 -0.603,-19.169 0.112,-19.922c14.241,-15.005 33.902,-21.866 50.308,-21.53c15.893,0.325 31.819,9.526 42.108,20.237c0.865,0.9 1.657,27.999 1.657,27.999c-2.261,2.628 -7.333,5.689 -10.874,6.148c-13.554,1.755 -46.672,1.244 -56.422,0.349c-8.571,-0.787 -19.839,-7.578 -26.888,-13.279Z" style="fill:#c9c9c9;"/><path d="M607.09,106.689c-0.466,-0.712 2.114,-2.4 2.58,-1.688c6.062,9.264 15.244,15.765 27.976,19.145c0.822,0.218 -4.277,3.282 -5.099,3.064c-13.56,-3.599 -19,-10.655 -25.457,-20.521Z" style="fill:#262626;"/><path d="M605.518,126.624c-0.76,-0.382 -1.067,-1.31 -0.685,-2.07c0.382,-0.76 1.31,-1.067 2.07,-0.685c5.727,2.88 12.264,4.526 19.672,4.855c0.85,0.038 -3.482,4.016 -4.332,3.978c-7.879,-0.35 -10.633,-3.016 -16.725,-6.079l0,0.001Z" style="fill:#262626;"/><path d="M624.49,105.223c-0.405,-0.748 2.306,-2.216 2.711,-1.468c4.056,7.49 10.426,13.801 19.343,18.829c0.741,0.418 -4.116,1.76 -4.858,1.343c-9.48,-5.346 -12.884,-10.74 -17.196,-18.703l0.001,0Z" style="fill:#262626;"/><path d="M641.284,105.239c-0.294,-0.799 2.599,-1.864 2.893,-1.066c2.433,6.604 6.598,12.825 12.629,18.644c0.612,0.591 -4.827,1.7 -5.439,1.109c-6.4,-6.174 -7.502,-11.68 -10.083,-18.688Z" style="fill:#262626;"/><path d="M656.059,104.572c-0.082,-0.847 2.987,-1.142 3.069,-0.295c0.601,6.246 2.612,12.544 6.13,18.904c0.412,0.745 -4.972,1.491 -5.384,0.746c-3.739,-6.761 -3.175,-12.715 -3.814,-19.354l0,-0.001Z" style="fill:#262626;"/><path d="M671.191,104.486c0.196,-0.828 3.196,-0.118 3,0.71c-1.536,6.493 -1.542,13.447 0.1,20.899c0.183,0.831 -0.343,1.654 -1.174,1.837c-0.831,0.183 -3.647,-1.403 -3.83,-2.234c-1.749,-7.942 0.266,-14.291 1.903,-21.212l-0.001,0Z" style="fill:#262626;"/><path d="M690.412,103.713c0.542,-0.656 2.919,1.308 2.377,1.963c-5.639,6.826 -9.003,15.034 -9.841,24.784c-0.073,0.848 -4.45,-0.88 -4.377,-1.728c0.896,-10.421 5.815,-17.724 11.841,-25.02l-0.001,0.001Z" style="fill:#262626;"/><path d="M700.154,118.684c0.633,-0.569 2.695,1.723 2.062,2.292c-4.375,3.936 -7.897,8.751 -10.507,14.509c-0.351,0.775 -4.098,-1.778 -3.747,-2.553c2.793,-6.164 7.508,-10.034 12.191,-14.248l0.001,0.001Z" style="fill:#262626;"/><g id="iris"><circle cx="653.417" cy="148.93" r="25.142" style="fill:url(#_Radial1);"/><circle cx="653.614" cy="149.128" r="24.431" style="fill:url(#_Radial2);"/><circle cx="653.417" cy="148.93" r="25.142" style="fill:url(#_Radial3);"/><circle cx="653.417" cy="148.93" r="7.437" style="fill:#171a1f;"/></g><path d="M605.111,164.765c-0.597,-0.607 -0.588,-1.584 0.019,-2.18c0.607,-0.597 1.584,-0.588 2.18,0.019c10.948,11.139 22.18,14.676 33.952,14.676c4.05,0 33.873,0.667 41.604,0.667c10.69,0 14.423,-4.244 17.092,-7.248c0.565,-0.636 2.87,1.412 2.305,2.048c-3.033,3.413 -1.879,6.326 -14.023,6.326c-7.774,0 -54.28,0.859 -57.95,0c-8.553,-2.001 -17.073,-6.06 -25.179,-14.308l-0,-0.001Z" style="fill:#76625a;"/><path d="M606.211,145.111c15.123,-15.804 31.737,-21.128 47.206,-21.184c24.169,-0.087 42.896,15.318 47.695,20.718" style="fill:none;stroke:#584943;stroke-width:3.08px;"/><path d="M702.603,106.235l0,70.515c0,1.955 -1.587,3.542 -3.542,3.542l-91.29,0c-1.955,0 -3.542,-1.587 -3.542,-3.542l0,-70.515c0,-1.955 1.587,-3.542 3.542,-3.542l91.29,0c1.955,0 3.542,1.587 3.542,3.542Zm-4.018,1.453c0,-0.688 -0.559,-1.247 -1.247,-1.247l-87.993,0c-0.688,0 -1.247,0.559 -1.247,1.247l0,67.674c0,0.688 0.559,1.247 1.247,1.247l87.993,0c0.688,0 1.247,-0.559 1.247,-1.247l0,-67.674Z" style="fill:#171a1f;"/><path d="M686.184,90.136l0,2.679c0,0.739 -0.6,1.34 -1.34,1.34l-47.934,0c-0.739,0 -1.34,-0.6 -1.34,-1.34l0,-2.679c0,-0.739 0.6,-1.34 1.34,-1.34l47.934,0c0.739,0 1.34,0.6 1.34,1.34Z" style="fill:#16171c;stroke:#171a1f;stroke-width:1.03px;"/><g><path d="M672.957,91.372l-3.183,0" style="fill:none;stroke:#ff0d00;stroke-width:2.06px;"/><path d="M672.957,91.372l-3.183,0" style="fill:none;stroke:#ff4900;stroke-width:1.03px;"/></g><g><path d="M677.87,91.372l-3.183,0" style="fill:none;stroke:#ff0d00;stroke-width:2.06px;"/><path d="M677.87,91.372l-3.183,0" style="fill:none;stroke:#ff4900;stroke-width:1.03px;"/></g><g><path d="M682.799,91.372l-3.183,0" style="fill:none;stroke:#ff0d00;stroke-width:2.06px;"/><path d="M682.799,91.372l-3.183,0" style="fill:none;stroke:#ff4900;stroke-width:1.03px;"/></g><g><path d="M658.148,91.528l-3.183,0" style="fill:none;stroke:#436238;stroke-width:2.06px;"/><path d="M658.148,91.528l-3.183,0" style="fill:none;stroke:#56864a;stroke-width:1.03px;"/></g><g><path d="M663.061,91.528l-3.183,0" style="fill:none;stroke:#436238;stroke-width:2.06px;"/><path d="M663.061,91.528l-3.183,0" style="fill:none;stroke:#56864a;stroke-width:1.03px;"/></g><g><path d="M667.99,91.528l-3.183,0" style="fill:none;stroke:#436238;stroke-width:2.06px;"/><path d="M667.99,91.528l-3.183,0" style="fill:none;stroke:#56864a;stroke-width:1.03px;"/></g><g><path d="M643.34,91.528l-3.183,0" style="fill:none;stroke:#436238;stroke-width:2.06px;"/><path d="M643.34,91.528l-3.183,0" style="fill:none;stroke:#56864a;stroke-width:1.03px;"/></g><g><path d="M648.252,91.528l-3.183,0" style="fill:none;stroke:#436238;stroke-width:2.06px;"/><path d="M648.252,91.528l-3.183,0" style="fill:none;stroke:#56864a;stroke-width:1.03px;"/></g><g><path d="M653.182,91.528l-3.183,0" style="fill:none;stroke:#436238;stroke-width:2.06px;"/><path d="M653.182,91.528l-3.183,0" style="fill:none;stroke:#56864a;stroke-width:1.03px;"/></g></g><g transform="matrix(12,0,0,12,551.603516,123.849402)"></g><text x="508.396px" y="123.849px" style="font-family:'AndaleMono', 'Andale Mono', monospace;font-size:12px;fill:#fff;">Dialog</text><g transform="matrix(16,0,0,16,656.24073,61.190873)"></g><text x="387.397px" y="61.191px" style="font-family:'AndaleMono', 'Andale Mono', monospace;font-size:16px;fill:#fff;">LOCATION: INTERROGATION ROOM</text><g transform="matrix(16,0,0,16,502.217292,26.991992)"></g><text x="377.397px" y="26.992px" style="font-family:'AndaleMono', 'Andale Mono', monospace;font-size:16px;fill:#fff;">SCENE:VQ TEST</text></g><defs><radialGradient id="_Radial1" cx="0" cy="0" r="1" gradientUnits="userSpaceOnUse" gradientTransform="matrix(-25.14228,0,-0,-25.14228,653.416572,148.930157)"><stop offset="0" style="stop-color:#c8c54c;stop-opacity:0"/><stop offset="0.51" style="stop-color:#c8c54c;stop-opacity:0.74"/><stop offset="1" style="stop-color:#c8c54c;stop-opacity:1"/></radialGradient><radialGradient id="_Radial2" cx="0" cy="0" r="1" gradientUnits="userSpaceOnUse" gradientTransform="matrix(-24.430396,0,-0,-24.430396,653.614615,149.1282)"><stop offset="0" style="stop-color:#aa9e6c;stop-opacity:0"/><stop offset="0.58" style="stop-color:#aa9e6c;stop-opacity:0.19"/><stop offset="0.8" style="stop-color:#aa9e6c;stop-opacity:0.6"/><stop offset="1" style="stop-color:#aa9e6c;stop-opacity:1"/></radialGradient><radialGradient id="_Radial3" cx="0" cy="0" r="1" gradientUnits="userSpaceOnUse" gradientTransform="matrix(-25.14228,0,-0,-25.14228,653.416572,148.930157)"><stop offset="0" style="stop-color:#454e3e;stop-opacity:0"/><stop offset="0.58" style="stop-color:#454e3e;stop-opacity:0.19"/><stop offset="0.8" style="stop-color:#454e3e;stop-opacity:0.6"/><stop offset="1" style="stop-color:#454e3e;stop-opacity:1"/></radialGradient></defs></svg>