<?xml version="1.0" encoding="UTF-8" standalone="no"?><!DOCTYPE svg PUBLIC "-//W3C//DTD SVG 1.1//EN" "http://www.w3.org/Graphics/SVG/1.1/DTD/svg11.dtd"><svg width="100%" height="100%" viewBox="0 0 765 1000" version="1.1" xmlns="http://www.w3.org/2000/svg" xmlns:xlink="http://www.w3.org/1999/xlink" xml:space="preserve" xmlns:serif="http://www.serif.com/" style="fill-rule:evenodd;clip-rule:evenodd;stroke-linejoin:round;stroke-miterlimit:2;"><path d="M70.778,664.388c-3.158,-1.686 -14.351,-9.391 -16.944,-11.843c-6.025,-5.699 -9.037,-13.402 -9.037,-23.111l0,-359.016c0,-9.709 3.012,-17.413 9.037,-23.111c2.246,-2.124 13.142,-10.71 16.944,-12.74c0,0 234.999,-125.458 296.917,-158.514c9.241,-4.933 20.343,-4.886 29.542,0.126c61.018,33.247 290.689,158.388 290.689,158.388c2.652,1.416 18.515,8.887 22.917,13.056c6.24,5.91 9.36,13.508 9.36,22.795l0,357.896c0,9.287 -3.12,16.885 -9.36,22.795c-4.696,4.448 -20.803,12.152 -22.917,13.28c0,0 -215.6,118.026 -284.515,155.752c-13.044,7.141 -28.814,7.208 -41.918,0.179c-69.97,-37.53 -290.714,-155.931 -290.714,-155.931Zm40.509,-349.238l0,298.446l237.968,127.043l0,-298.446l-237.968,-127.043Zm271.213,-172.903l-231.291,121.798l231.291,123.479l224.995,-123.479l-224.995,-121.798Zm271.213,467.987l0,-298.446l-237.968,130.01l0,299.179l237.968,-130.744Z"/></svg>