<?xml version="1.0" encoding="UTF-8" standalone="no"?><!DOCTYPE svg PUBLIC "-//W3C//DTD SVG 1.1//EN" "http://www.w3.org/Graphics/SVG/1.1/DTD/svg11.dtd"><svg width="100%" height="100%" viewBox="0 0 256 256" version="1.1" xmlns="http://www.w3.org/2000/svg" xmlns:xlink="http://www.w3.org/1999/xlink" xml:space="preserve" xmlns:serif="http://www.serif.com/" style="fill-rule:evenodd;clip-rule:evenodd;stroke-linecap:round;stroke-linejoin:round;stroke-miterlimit:1.5;"><path d="M128,256l128,-128l-0,69.287c0,32.405 -26.308,58.713 -58.713,58.713l-39.64,0l-29.647,-0Z" style="fill:#00445b;"/><path d="M106.417,-0l90.87,0c16.099,0 30.693,6.493 41.304,17.001l-59.865,171.021l-161.725,50.569c-10.508,-10.611 -17.001,-25.205 -17.001,-41.304l0,-90.87l106.417,-106.417Z" style="fill:#005d7c;"/><path d="M144.896,256l-86.183,-0c-16.306,0 -31.068,-6.662 -41.712,-17.409l112.987,-112.689l0.072,-0.371l108.531,-108.53c10.748,10.643 17.409,25.406 17.409,41.712l0,86.183l-111.104,111.104Z" style="fill:#004d67;"/><path d="M-0,128l0,-69.287c0,-32.405 26.308,-58.713 58.713,-58.713l69.287,-0l-128,128Z" style="fill:#0c6b8a;"/><path d="M233.846,59.422l0,137.156c0,20.569 -16.699,37.268 -37.268,37.268l-137.156,0c-20.569,0 -37.268,-16.699 -37.268,-37.268l0,-137.156c0,-20.569 16.699,-37.268 37.268,-37.268l137.156,0c20.569,0 37.268,16.699 37.268,37.268Z" style="fill:#00445b;"/><path d="M212.781,44.976l0,27.337l-165.887,0l0,-27.337c0,-5.029 4.083,-9.112 9.112,-9.112l147.662,0c5.029,0 9.112,4.083 9.112,9.112Z" style="fill:#21252e;stroke:#171a1f;stroke-width:4.5px;"/><g><path d="M220.715,78.127l0,132.957c0,3.686 -2.992,6.678 -6.678,6.678l-172.128,0c-3.686,0 -6.678,-2.992 -6.678,-6.678l0,-132.957c0,-3.686 2.992,-6.678 6.678,-6.678l172.128,0c3.686,0 6.678,2.992 6.678,6.678Z" style="fill:#4b403c;"/><path d="M35.94,191.132c-1.68,-1.359 -1.174,-37.305 0.217,-38.771c27.715,-29.202 65.977,-42.554 97.905,-41.901c30.93,0.633 61.924,18.539 81.947,39.383c1.683,1.752 3.225,54.489 3.225,54.489c-4.401,5.115 -14.271,11.071 -21.162,11.964c-26.378,3.416 -90.83,2.421 -109.804,0.679c-16.681,-1.532 -38.61,-14.747 -52.328,-25.843Z" style="fill:#c9c9c9;"/><path d="M37.843,76.896c-0.907,-1.385 4.114,-4.671 5.021,-3.285c11.797,18.028 29.667,30.681 54.445,37.259c1.6,0.425 -8.323,6.388 -9.924,5.963c-26.39,-7.005 -36.977,-20.736 -49.542,-39.937Z" style="fill:#262626;"/><path d="M34.784,115.692c-1.479,-0.744 -2.077,-2.549 -1.333,-4.028c0.744,-1.479 2.549,-2.077 4.028,-1.333c11.146,5.604 23.867,8.808 38.284,9.449c1.654,0.074 -6.777,7.815 -8.431,7.741c-15.334,-0.682 -20.693,-5.87 -32.548,-11.83Z" style="fill:#262626;"/><path d="M71.706,74.043c-0.788,-1.456 4.488,-4.313 5.276,-2.857c7.893,14.576 20.291,26.858 37.643,36.643c1.442,0.813 -8.011,3.426 -9.454,2.613c-18.449,-10.404 -25.074,-20.901 -33.466,-36.399Z" style="fill:#262626;"/><path d="M104.388,74.073c-0.572,-1.554 5.058,-3.628 5.63,-2.074c4.734,12.852 12.84,24.96 24.578,36.284c1.192,1.15 -9.393,3.309 -10.585,2.159c-12.456,-12.016 -14.599,-22.731 -19.623,-36.369Z" style="fill:#262626;"/><path d="M133.142,72.776c-0.159,-1.648 5.814,-2.223 5.972,-0.575c1.17,12.155 5.084,24.412 11.929,36.79c0.801,1.449 -9.677,2.901 -10.478,1.452c-7.276,-13.157 -6.179,-24.745 -7.423,-37.666Z" style="fill:#262626;"/><path d="M162.591,72.607c0.381,-1.611 6.22,-0.23 5.839,1.381c-2.99,12.637 -3,26.169 0.195,40.673c0.356,1.617 -0.667,3.219 -2.284,3.575c-1.617,0.356 -7.097,-2.731 -7.453,-4.348c-3.404,-15.456 0.517,-27.813 3.704,-41.281Z" style="fill:#262626;"/><path d="M199.997,71.103c1.055,-1.277 5.68,2.545 4.626,3.821c-10.974,13.284 -17.521,29.259 -19.152,48.233c-0.142,1.65 -8.66,-1.713 -8.518,-3.363c1.743,-20.28 11.316,-34.494 23.045,-48.692Z" style="fill:#262626;"/><path d="M218.956,100.239c1.231,-1.107 5.244,3.353 4.013,4.46c-8.514,7.66 -15.369,17.031 -20.447,28.236c-0.683,1.508 -7.975,-3.46 -7.292,-4.969c5.436,-11.996 14.611,-19.528 23.725,-27.728Z" style="fill:#262626;"/><g id="iris"><circle cx="128" cy="159.102" r="48.93" style="fill:url(#_Radial1);"/><circle cx="128.385" cy="159.487" r="47.545" style="fill:url(#_Radial2);"/><circle cx="128" cy="159.102" r="48.93" style="fill:url(#_Radial3);"/><circle cx="128" cy="159.102" r="14.474" style="fill:#171a1f;"/></g><path d="M33.992,189.918c-1.161,-1.181 -1.144,-3.082 0.037,-4.242c1.181,-1.161 3.082,-1.144 4.242,0.037c21.306,21.678 43.166,28.561 66.075,28.561c7.881,0 65.921,1.299 80.967,1.299c20.804,0 28.068,-8.259 33.264,-14.106c1.1,-1.238 5.585,2.748 4.485,3.986c-5.903,6.642 -3.656,12.311 -27.29,12.311c-15.129,0 -105.635,1.671 -112.778,0c-16.646,-3.894 -33.226,-11.793 -49.002,-27.845Z" style="fill:#76625a;"/><path d="M36.132,151.669c29.431,-30.756 61.765,-41.118 91.868,-41.226c47.035,-0.169 83.481,29.81 92.82,40.319" style="fill:none;stroke:#584943;stroke-width:6px;"/><path d="M223.723,76.012l0,137.231c0,3.804 -3.089,6.893 -6.893,6.893l-177.661,0c-3.804,0 -6.893,-3.089 -6.893,-6.893l0,-137.231c0,-3.804 3.089,-6.893 6.893,-6.893l177.661,0c3.804,0 6.893,3.089 6.893,6.893Zm-7.82,2.827c0,-1.339 -1.087,-2.426 -2.426,-2.426l-171.246,0c-1.339,0 -2.426,1.087 -2.426,2.426l0,131.702c0,1.339 1.087,2.426 2.426,2.426l171.246,0c1.339,0 2.426,-1.087 2.426,-2.426l0,-131.702Z" style="fill:#171a1f;"/></g><path d="M191.77,44.681l0,5.214c0,1.439 -1.168,2.607 -2.607,2.607l-93.285,0c-1.439,0 -2.607,-1.168 -2.607,-2.607l0,-5.214c0,-1.439 1.168,-2.607 2.607,-2.607l93.285,0c1.439,0 2.607,1.168 2.607,2.607Z" style="fill:#16171c;stroke:#171a1f;stroke-width:2px;"/><g id="LED-bar" serif:id="LED bar"><g><path d="M166.028,47.087l-6.194,0" style="fill:none;stroke:#ff0d00;stroke-width:4px;"/><path d="M166.028,47.087l-6.194,0" style="fill:none;stroke:#ff4900;stroke-width:2px;"/></g><g><path d="M175.589,47.087l-6.194,0" style="fill:none;stroke:#ff0d00;stroke-width:4px;"/><path d="M175.589,47.087l-6.194,0" style="fill:none;stroke:#ff4900;stroke-width:2px;"/></g><g><path d="M185.182,47.087l-6.194,0" style="fill:none;stroke:#ff0d00;stroke-width:4px;"/><path d="M185.182,47.087l-6.194,0" style="fill:none;stroke:#ff4900;stroke-width:2px;"/></g><g><path d="M137.208,47.389l-6.194,0" style="fill:none;stroke:#436238;stroke-width:4px;"/><path d="M137.208,47.389l-6.194,0" style="fill:none;stroke:#56864a;stroke-width:2px;"/></g><g><path d="M146.769,47.389l-6.194,0" style="fill:none;stroke:#436238;stroke-width:4px;"/><path d="M146.769,47.389l-6.194,0" style="fill:none;stroke:#56864a;stroke-width:2px;"/></g><g><path d="M156.362,47.389l-6.194,0" style="fill:none;stroke:#436238;stroke-width:4px;"/><path d="M156.362,47.389l-6.194,0" style="fill:none;stroke:#56864a;stroke-width:2px;"/></g><g><path d="M108.389,47.389l-6.194,0" style="fill:none;stroke:#436238;stroke-width:4px;"/><path d="M108.389,47.389l-6.194,0" style="fill:none;stroke:#56864a;stroke-width:2px;"/></g><g><path d="M117.95,47.389l-6.194,0" style="fill:none;stroke:#436238;stroke-width:4px;"/><path d="M117.95,47.389l-6.194,0" style="fill:none;stroke:#56864a;stroke-width:2px;"/></g><g><path d="M127.543,47.389l-6.194,0" style="fill:none;stroke:#436238;stroke-width:4px;"/><path d="M127.543,47.389l-6.194,0" style="fill:none;stroke:#56864a;stroke-width:2px;"/></g></g><defs><radialGradient id="_Radial1" cx="0" cy="0" r="1" gradientUnits="userSpaceOnUse" gradientTransform="matrix(-48.930031,0,-0,-48.930031,128,159.101644)"><stop offset="0" style="stop-color:#c8c54c;stop-opacity:0"/><stop offset="0.51" style="stop-color:#c8c54c;stop-opacity:0.74"/><stop offset="1" style="stop-color:#c8c54c;stop-opacity:1"/></radialGradient><radialGradient id="_Radial2" cx="0" cy="0" r="1" gradientUnits="userSpaceOnUse" gradientTransform="matrix(-47.544615,0,-0,-47.544615,128.385417,159.487061)"><stop offset="0" style="stop-color:#aa9e6c;stop-opacity:0"/><stop offset="0.58" style="stop-color:#aa9e6c;stop-opacity:0.19"/><stop offset="0.8" style="stop-color:#aa9e6c;stop-opacity:0.6"/><stop offset="1" style="stop-color:#aa9e6c;stop-opacity:1"/></radialGradient><radialGradient id="_Radial3" cx="0" cy="0" r="1" gradientUnits="userSpaceOnUse" gradientTransform="matrix(-48.930031,0,-0,-48.930031,128,159.101644)"><stop offset="0" style="stop-color:#454e3e;stop-opacity:0"/><stop offset="0.58" style="stop-color:#454e3e;stop-opacity:0.19"/><stop offset="0.8" style="stop-color:#454e3e;stop-opacity:0.6"/><stop offset="1" style="stop-color:#454e3e;stop-opacity:1"/></radialGradient></defs></svg>