<?xml version="1.0" encoding="UTF-8" standalone="no"?><!DOCTYPE svg PUBLIC "-//W3C//DTD SVG 1.1//EN" "http://www.w3.org/Graphics/SVG/1.1/DTD/svg11.dtd"><svg width="100%" height="100%" viewBox="0 0 256 256" version="1.1" xmlns="http://www.w3.org/2000/svg" xmlns:xlink="http://www.w3.org/1999/xlink" xml:space="preserve" xmlns:serif="http://www.serif.com/" style="fill-rule:evenodd;clip-rule:evenodd;stroke-linecap:round;stroke-linejoin:round;stroke-miterlimit:1.5;"><g id="animatie"><g><path d="M17.267,238.733c-10.666,-10.666 -17.267,-25.398 -17.267,-41.659l0,-138.146c0,-32.523 26.404,-58.927 58.927,-58.927l138.146,0c16.261,0 30.993,6.601 41.659,17.267l-221.465,221.465Z" style="fill:#52d9d4;"/><path d="M238.733,17.267l-221.465,221.465c10.666,10.666 25.398,17.267 41.659,17.267l138.146,0c32.523,0 58.927,-26.404 58.927,-58.927l0,-138.146c0,-16.261 -6.601,-30.993 -17.267,-41.659Z" style="fill:#3fd5cf;"/><path d="M118.644,137.356l-101.377,101.377c-10.666,-10.666 -17.267,-25.398 -17.267,-41.659l-0,-55.333l118.644,-118.644l8.125,22.446l0.781,61.438l-9.672,9.423l0.767,20.953Z" style="fill:#3fd5cf;stroke:#37d3cd;stroke-width:1px;"/><path d="M117.609,138.391l-100.342,100.342c10.666,10.666 25.398,17.267 41.659,17.267l17.007,0l41.676,-41.676l0,-75.934Z" style="fill:#33d2cc;"/><path d="M136.25,119.75l35.243,-35.243l35.855,40.079l-73.71,73.71l2.613,-78.546Z" style="fill:#33d2cc;"/><path d="M114.062,256l28.464,-28.464l-6.782,-17.207l0,-93.926l-19.22,0l0,99.333l-40.906,40.906l38.444,-0.641Z" style="fill:#2dcac4;stroke:#2dcac4;stroke-width:1px;"/></g><g><path id="shade" d="M122.371,54.397c-0.738,-0.856 -1.173,-1.903 -1.173,-3.032c0,-2.892 2.846,-5.238 6.351,-5.238c3.116,0 5.712,1.855 6.249,4.3c-1.152,-1.335 -3.042,-2.206 -5.178,-2.206c-3.505,0 -6.351,2.347 -6.351,5.238c0,0.321 0.035,0.634 0.102,0.939Zm3.021,43.521c-2.453,-0.249 -3.138,-1.714 -3.138,-1.714c0,0 3.485,-0.789 5.297,-0.789c2.231,0 5.033,0.694 6.35,1.228c0.517,0.21 1.351,0.689 1.549,0.762c-1.751,0.707 -3.728,1.107 -5.781,1.107c-1.492,0 -2.929,-0.208 -4.275,-0.594Zm19.974,-28.068c-1.481,-1.115 -2.465,-3.079 -2.465,-5.314c0,-3.469 2.371,-6.286 5.292,-6.286c1.535,0 2.918,0.778 3.886,2.02c-0.818,-0.616 -1.788,-0.972 -2.827,-0.972c-2.921,0 -5.292,2.817 -5.292,6.286c0,1.646 0.533,3.145 1.407,4.266Zm23.245,21.456c-0.198,-0.147 -0.386,-0.309 -0.566,-0.487c-2.065,-2.044 -2.065,-5.364 0,-7.408c2.065,-2.044 5.419,-2.044 7.485,0c0.18,0.178 0.344,0.366 0.492,0.561c-2.073,-1.542 -5.032,-1.38 -6.918,0.487c-1.886,1.867 -2.05,4.796 -0.492,6.848Zm26.222,22.94c-0.211,-0.128 -0.41,-0.281 -0.592,-0.462c-1.239,-1.227 -1.239,-3.219 0,-4.445c1.239,-1.227 3.252,-1.227 4.491,0c0.182,0.18 0.338,0.377 0.467,0.586c-1.223,-0.739 -2.842,-0.585 -3.898,0.462c-1.057,1.047 -1.212,2.649 -0.467,3.859l-0.001,0.001Z" style="fill:#2b3d3c;"/><path id="knee" d="M138.29,164.999c4.08,0 7.392,3.113 7.392,6.946c0,3.834 -3.313,6.946 -7.392,6.946c-4.08,0 -7.392,-3.113 -7.392,-6.946c0,-3.834 3.313,-6.946 7.392,-6.946Zm-1.002,52.27c2.407,0 4.361,1.836 4.361,4.096c0,2.261 -1.954,4.096 -4.361,4.096c-2.407,0 -4.361,-1.836 -4.361,-4.096c0,-2.261 1.954,-4.096 4.361,-4.096Zm-20.57,-52.27c4.08,0 7.392,3.113 7.392,6.946c0,3.834 -3.313,6.946 -7.392,6.946c-4.08,0 -7.392,-3.113 -7.392,-6.946c0,-3.834 3.313,-6.946 7.392,-6.946Zm1.002,52.27c2.407,0 4.361,1.836 4.361,4.096c0,2.261 -1.954,4.096 -4.361,4.096c-2.407,0 -4.361,-1.836 -4.361,-4.096c0,-2.261 1.954,-4.096 4.361,-4.096Zm27.644,-147.418c-0.873,-1.121 -1.407,-2.62 -1.407,-4.266c0,-3.469 2.371,-6.286 5.292,-6.286c1.039,0 2.009,0.356 2.827,0.972c0.873,1.121 1.407,2.62 1.407,4.266c0,3.469 -2.371,6.286 -5.292,6.286c-1.039,0 -2.009,-0.356 -2.827,-0.972Zm23.245,21.456c-1.558,-2.051 -1.394,-4.981 0.492,-6.848c1.886,-1.867 4.846,-2.029 6.918,-0.487c1.558,2.051 1.394,4.981 -0.492,6.848c-1.886,1.867 -4.846,2.029 -6.918,0.487Zm26.222,22.94c-0.746,-1.21 -0.591,-2.813 0.467,-3.859c1.057,-1.047 2.676,-1.2 3.898,-0.462c0.746,1.21 0.591,2.813 -0.467,3.859c-1.057,1.047 -2.676,1.2 -3.898,0.462Zm-85.602,-53.976c0.873,1.121 1.407,2.62 1.407,4.266c0,3.469 -2.371,6.286 -5.292,6.286c-1.039,0 -2.009,-0.356 -2.827,-0.972c-0.873,-1.121 -1.407,-2.62 -1.407,-4.266c0,-3.469 2.371,-6.286 5.292,-6.286c1.039,0 2.009,0.356 2.827,0.972Zm-23.245,23.701c1.558,2.051 1.394,4.981 -0.492,6.848c-1.886,1.867 -4.846,2.029 -6.918,0.487c-1.558,-2.051 -1.394,-4.981 0.492,-6.848c1.886,-1.867 4.846,-2.029 6.918,-0.487Zm-26.222,25.955c0.746,1.21 0.591,2.813 -0.467,3.859c-1.057,1.047 -2.676,1.2 -3.898,0.462c-0.746,-1.21 -0.591,-2.813 0.467,-3.859c1.057,-1.047 2.676,-1.2 3.898,-0.462Zm54.965,3.16c-0.253,-0.981 -0.386,-2.001 -0.386,-3.05c0,-5.715 3.969,-10.613 9.589,-12.632c0.021,0.013 2.491,1.107 5.735,1.107c2.053,0 4.002,-0.395 5.753,-1.102c0.204,0.073 0.405,0.151 0.605,0.232c4.127,2.441 6.849,6.614 6.849,11.347c0,1.17 -0.166,2.306 -0.479,3.39c1.954,-0.183 3.764,0.322 5.034,1.579c2.771,2.743 1.929,8.03 -1.88,11.798c-3.808,3.77 -9.15,4.604 -11.92,1.861c-1.409,-1.394 -1.884,-3.448 -1.508,-5.625c-1.444,0.401 -2.979,0.617 -4.569,0.617c-1.9,0 -3.72,-0.308 -5.399,-0.871c0.458,2.27 0.003,4.43 -1.461,5.879c-2.771,2.743 -8.112,1.909 -11.92,-1.861c-3.808,-3.77 -4.651,-9.056 -1.88,-11.798c1.865,-1.846 4.897,-2.071 7.839,-0.872l-0.002,0.001Zm7.642,-58.689c-0.067,-0.305 -0.102,-0.618 -0.102,-0.939c0,-2.892 2.846,-5.238 6.351,-5.238c2.136,0 4.028,0.872 5.178,2.206c0.067,0.305 0.102,0.618 0.102,0.939c0,2.892 -2.846,5.238 -6.351,5.238c-2.136,0 -4.028,-0.872 -5.178,-2.206Zm-0.493,40.95c-3.605,-2.173 -5.971,-5.813 -5.971,-9.931c0,-6.65 6.166,-12.049 13.76,-12.049c2.022,0 3.942,0.382 5.672,1.07c3.605,2.173 5.971,5.813 5.971,9.931c0,6.65 -6.166,12.049 -13.76,12.049c-2.022,0 -3.942,-0.382 -5.672,-1.07Z" style="fill:#354a49;"/><path id="light" d="M121.877,95.346c-4.768,-1.893 -8.088,-6.1 -8.088,-10.979c0,-6.65 6.166,-12.049 13.76,-12.049c2.891,0 5.574,0.782 7.789,2.117c-1.73,-0.687 -3.651,-1.07 -5.672,-1.07c-7.595,0 -13.76,5.399 -13.76,12.049c0,4.12 2.366,7.758 5.971,9.931Zm2.053,2.057c-5.619,2.02 -9.589,6.917 -9.589,12.632c0,4.733 2.722,8.905 6.849,11.347c-5.288,-2.149 -8.966,-6.893 -8.966,-12.394c0,-5.865 4.18,-10.869 10.033,-12.785c0.52,0.437 1.08,0.838 1.672,1.201Zm-14.701,-37.133c-0.818,-0.616 -1.788,-0.972 -2.827,-0.972c-2.921,0 -5.292,2.817 -5.292,6.286c0,1.646 0.533,3.145 1.407,4.266c-1.481,-1.115 -2.465,-3.079 -2.465,-5.314c0,-3.469 2.371,-6.286 5.292,-6.286c1.535,0 2.918,0.778 3.886,2.02Zm-23.245,23.701c-2.073,-1.542 -5.032,-1.38 -6.918,0.487c-1.886,1.867 -2.05,4.796 -0.492,6.848c-0.198,-0.147 -0.386,-0.309 -0.566,-0.487c-2.065,-2.044 -2.065,-5.364 0,-7.408c2.065,-2.044 5.419,-2.044 7.485,0c0.18,0.178 0.344,0.366 0.492,0.561Zm-26.222,25.955c-1.223,-0.739 -2.842,-0.585 -3.898,0.462c-1.057,1.047 -1.212,2.649 -0.467,3.859c-0.211,-0.128 -0.41,-0.281 -0.592,-0.462c-1.239,-1.227 -1.239,-3.219 0,-4.445c1.239,-1.227 3.252,-1.227 4.491,0c0.182,0.18 0.338,0.377 0.467,0.586l-0.001,0.001Z" style="fill:#486564;"/><path d="M203.131,113.613c0.287,0.419 0.541,0.834 0.737,1.223c1.15,2.278 3.258,6.103 4.766,7.602c1.509,1.498 3.147,3.427 3.735,4.181c0.589,0.754 -0.839,1.867 -1.68,1.042c-0.84,-0.825 -6.158,-5.826 -8.221,-7.079c-0.291,-0.177 -0.668,-0.423 -1.102,-0.718c0.229,1.622 1.125,4.147 1.414,5.071c0.618,1.978 -2.075,1.791 -2.285,0.444c-0.252,-1.606 -1.369,-4.818 -2.517,-5.745c-1.015,-0.817 -2.62,-3.099 -2.56,-4.038l-0.694,-0.513c-0.107,-0.08 -0.152,-0.216 -0.115,-0.344c0.037,-0.127 0.15,-0.218 0.283,-0.228c0.992,-0.051 2.559,-0.246 3.439,-0.895c0.223,-0.164 0.408,-0.39 0.559,-0.651c0.469,-0.811 0.621,-1.967 0.669,-2.741c0.013,-0.135 0.105,-0.251 0.234,-0.295c0.13,-0.044 0.274,-0.007 0.367,0.092c0.746,0.785 2.032,2.216 2.971,3.589l0.001,0.001Zm-41.854,-45.345c1.49,1.64 2.702,3.527 3.451,5.078c1.243,2.575 4.165,5 6.186,6.094c2.02,1.095 3.992,2.758 2.438,3.935c-1.554,1.178 -1.215,3.985 -1.895,5.378c-0.68,1.393 -3.773,2.218 -5.691,1.023c-1.918,-1.195 -3.098,-5.22 -5.045,-7.205c-1.947,-1.985 -9.278,-6.572 -11.789,-9.275c-2.512,-2.703 -2.144,-3.801 0.85,-4.747c1.238,-0.391 1.911,-1.534 2.659,-2.516c1.072,-1.407 2.3,-2.481 5.576,-0.524c1.173,0.701 2.278,1.675 3.261,2.758l0,0.001Zm24.541,24.508c1.299,2.341 2.649,4.85 3.958,6.198c1.921,1.98 4.902,4.852 6.459,5.79c1.954,1.176 2.113,5.62 0.824,6.41c-1.283,0.786 -5.03,-0.068 -6.068,-1.23c-1.038,-1.162 -1.989,-2.775 -4.381,-5.624c-2.392,-2.849 -11.658,-6.722 -17.675,-11.036c-0.673,-0.483 -0.405,-2.767 -0.405,-2.767c0,0 2.874,1.489 4.173,0.718c0.78,-0.463 1.804,-2.695 2.484,-4.51c0.346,-0.924 0.603,-1.74 0.694,-2.162c0.274,-1.266 2.48,-0.98 6.9,3.524c0.942,0.96 1.972,2.768 3.038,4.691Zm-78.317,-30.185c-1.118,-2.843 -2.614,-5.401 -3.237,-5.988c-0.782,-0.738 3.844,-3.241 7.409,-3.143c8.764,0.241 12.599,2.095 15.877,2.095c3.278,0 7.113,-1.854 15.877,-2.095c2.346,-0.064 5.151,0.997 6.572,1.94c-0.963,0.244 -1.836,0.398 -2.511,0.448c-4.094,0.303 -15.671,2.141 -19.94,2.4c-4.268,0.259 -12.605,1.198 -16.198,2.229c-1.83,0.526 -2.916,1.337 -3.852,2.111l0.001,0.001Zm-51.75,47.231c-0.332,-1.651 0.142,-4.209 1.554,-5.058c1.557,-0.938 4.538,-3.809 6.459,-5.79c2.382,-2.455 4.906,-8.759 6.996,-10.889c4.42,-4.505 6.626,-4.791 6.9,-3.524c0.082,0.375 0.293,1.061 0.582,1.858l-0.364,0.174c-2.948,1.396 -7.079,6.141 -9.098,8.79c-2.019,2.65 -6.667,7.274 -9.836,10.745c-2.361,2.587 -2.477,2.578 -3.192,3.695l-0,-0.001Zm-14.604,17.571c-0.147,-0.243 -0.169,-0.527 0.022,-0.773c0.589,-0.754 2.226,-2.683 3.735,-4.181c1.509,-1.498 3.617,-5.324 4.766,-7.602c0.838,-1.66 2.734,-3.786 3.708,-4.811c0.093,-0.1 0.237,-0.136 0.367,-0.092c0.13,0.044 0.222,0.159 0.234,0.295c0.033,0.533 0.115,1.248 0.316,1.906c-1.88,2.938 -4.085,6.056 -5.47,8.517c-0.961,1.708 -4.231,4.594 -7.68,6.743l0.001,-0.001Zm40.05,-42.476c-0.205,-0.615 -0.509,-1.163 -1.009,-1.541c-1.554,-1.178 0.418,-2.839 2.438,-3.935c2.02,-1.095 4.943,-3.519 6.186,-6.094c1.243,-2.575 3.761,-6.072 6.711,-7.835c2.672,-1.596 3.981,-1.177 4.955,-0.204c-1.374,1.501 -2.913,3.216 -4.902,4.544c-3.851,2.57 -4.61,7.08 -6.682,9.659c-1.445,1.798 -4.799,3.854 -7.697,5.408l0.001,-0.001Zm36.406,36.314c-2.493,-1.951 -5.038,-3.991 -9.104,-5.956c-3.534,-1.709 -2.44,-4.105 -2.117,-5.238c0.899,-3.154 6.16,-8.764 6.351,-5.238c0.296,5.479 9.424,11.525 14.819,11.525c5.395,0 14.522,-6.045 14.819,-11.525c0.089,-1.645 1.283,-1.3 2.622,-0.145c-1.705,4.779 -4.8,9.545 -7.562,11.085c-5.784,3.224 -14.304,1.901 -18.431,4.344c-0.56,0.332 -1.021,0.712 -1.396,1.148l0,0.001Zm-3.089,87.322c0.095,-0.948 0.179,-2.002 0.246,-3.177c0.128,-2.253 -3.273,-16.483 -4.234,-18.859c-1.647,-4.068 -2.515,-13.399 -2.117,-14.668c0.732,-2.335 0.8,-2.944 2.117,-1.048c2.017,2.905 5.074,4.758 7.316,5.646c-0.924,1.926 -1.449,5.104 -1.071,7.732c0.429,2.984 3.147,21.959 -2.257,24.373Zm18.807,-0.612c0.196,-3.806 0.03,-9.138 -0.477,-10.945c-0.981,-3.503 -3.198,-11.386 -3.295,-15.715c-0.055,-2.426 1.658,-7.324 1.658,-7.324c0,0 1.574,3.117 3.173,3.15c1.22,0.025 4.116,-0.945 6.768,-2.916c0.243,3.385 1.69,11.995 -1.919,15.3c-1.835,1.681 -2.685,11.248 -2.519,14c0.135,2.239 -1.659,3.787 -3.388,4.451Zm-22.468,29.066c-1.087,-1.023 -1.577,-2.841 -1.386,-4.391c0.125,-1.012 2.975,-6.278 3.175,-7.334c0.2,-1.056 0.486,-1.49 2.102,-1.583c1.05,-0.061 2.614,-0.667 4.025,-1.277c-1.239,2.086 -3.923,3.711 -0.685,8.679c2.14,3.283 -4.721,1.784 -7.232,5.906l-0.001,0Zm-1.248,-75.221c0.03,-2.091 -0.183,-5.224 -0.139,-6.699c0.155,-5.122 -2.418,-5.329 -6.351,-16.763c-2.467,-7.174 -1.699,-17.435 -1.058,-18.859c1.171,-2.602 4.429,-1.266 6.351,0c1.633,1.076 4.577,3.469 7.798,5.991c-0.114,2.367 0.326,5.45 0.882,9.444c1.15,8.259 -1.255,12.417 -1.026,16.426c0.225,3.936 -0.391,8.275 -6.457,10.459l-0,0.001Zm21.935,-2.878c0.694,-2.255 1.304,-4.38 1.304,-5.916c0,-3.951 -2.73,-12.799 -2.117,-16.763c0.613,-3.964 2.482,-6.452 6.351,-9.429c3.869,-2.978 7.604,-6.068 9.526,-7.334c0.209,-0.137 0.434,-0.276 0.67,-0.41c3.311,1.784 5.035,6.534 1.581,7.784c-4.006,1.449 -13.128,9.04 -12.727,13.092c0.401,4.052 4.803,14.343 1.198,16.514c-2.177,1.311 -4.292,1.821 -5.787,2.463l0,-0.001Zm1.467,77.481c-0.238,-0.937 -0.322,-2.026 -0.392,-3.104c-0.132,-2.067 0.766,-3.981 0.712,-6.071c-0.041,-1.616 -1.308,-4.14 -1.542,-5.073c-0.235,-0.933 0.576,-1.393 2.117,-0.749c0.82,0.343 2.084,0.947 3.346,1.453c0.131,1.188 0.43,2.724 1.958,4.413c2.448,2.704 3.837,4.482 0.553,5.434c-2.794,0.81 -5.924,1.554 -6.753,3.698l0.001,-0.001Z" style="fill:#6e9896;"/><path d="M78.24,86.418c0.675,1.862 1.772,4.326 2.596,4.816c1.299,0.771 4.173,-0.718 4.173,-0.718c0,0 0.268,2.285 -0.405,2.767c-6.016,4.313 -15.282,8.188 -17.675,11.036c-2.392,2.849 -3.343,4.462 -4.381,5.624c-1.038,1.162 -4.785,2.016 -6.068,1.23c-0.358,-0.219 -0.603,-0.719 -0.731,-1.352c0.716,-1.117 0.831,-1.108 3.192,-3.695c3.169,-3.471 7.818,-8.096 9.836,-10.745c2.019,-2.65 6.15,-7.395 9.098,-8.79l0.364,-0.174l0.001,0Zm22.236,-21.112c1.053,1.051 1.714,2.749 3.28,3.244c2.994,0.945 3.362,2.044 0.85,4.747c-2.512,2.703 -9.843,7.29 -11.789,9.275c-1.947,1.985 -3.127,6.01 -5.045,7.205c-1.918,1.195 -5.012,0.37 -5.691,-1.023c-0.46,-0.945 -0.454,-2.541 -0.886,-3.837c2.897,-1.554 6.251,-3.61 7.697,-5.408c2.073,-2.577 2.83,-7.089 6.682,-9.659c1.989,-1.327 3.528,-3.043 4.902,-4.544l0,-0.001Zm-46.18,46.827c0.185,0.605 0.471,1.162 0.91,1.486c0.881,0.65 2.447,0.843 3.439,0.895c0.133,0.01 0.246,0.102 0.283,0.228c0.037,0.127 -0.008,0.263 -0.115,0.344l-0.694,0.513c0.059,0.938 -1.545,3.22 -2.56,4.038c-1.148,0.926 -2.265,4.138 -2.517,5.745c-0.211,1.346 -2.903,1.534 -2.285,-0.444c0.289,-0.924 1.186,-3.449 1.414,-5.071c-0.434,0.293 -0.811,0.541 -1.102,0.718c-2.063,1.254 -7.381,6.255 -8.221,7.079c-0.566,0.555 -1.399,0.232 -1.702,-0.269c3.45,-2.148 6.719,-5.035 7.68,-6.743c1.386,-2.461 3.589,-5.578 5.47,-8.517l0.001,-0.001Zm61.908,13.324c0.569,0.445 1.147,0.896 1.729,1.343c3.869,2.978 5.738,5.465 6.351,9.429c0.613,3.964 -2.117,12.812 -2.117,16.763c0,3.951 4.035,11.814 3.175,15.715c-0.391,1.776 -2.845,4.451 -6.351,4.191c-2.567,-0.19 -5.486,-3.9 -7.409,-5.238c-1.923,-1.339 -2.463,-2.777 -2.117,-4.191c0.089,-0.363 0.128,-0.961 0.139,-1.683c6.066,-2.184 6.682,-6.523 6.457,-10.459c-0.23,-4.01 2.175,-8.168 1.026,-16.426c-0.556,-3.994 -0.996,-7.076 -0.882,-9.444l0,-0.001Zm28.787,-20.803c1.531,1.321 3.25,3.702 3.729,5.383c0.323,1.134 1.417,3.53 -2.117,5.238c-4.295,2.077 -6.894,4.236 -9.526,6.286c-4.193,3.266 -4.192,10.477 -9.526,10.477c-5.335,0 -5.334,-7.211 -9.526,-10.477l-0.422,-0.33c0.375,-0.436 0.835,-0.817 1.396,-1.148c4.128,-2.443 12.648,-1.12 18.431,-4.344c2.762,-1.539 5.858,-6.306 7.562,-11.085l0,-0.001Zm-27.151,71.795c1.033,0.41 1.894,0.614 2.397,0.622c1.619,0.027 3.527,-3.088 3.527,-3.088c0,0 1.771,3.873 1.699,7.296c-0.092,4.329 -2.314,12.212 -3.295,15.715c-0.731,2.61 -0.754,12.56 0,14.668c0.754,2.108 2.015,5.569 -1.058,7.334c-1.039,0.597 -3.795,1.374 -6.351,2.095c-2.556,0.722 -3.473,0.176 -3.175,-2.095c0.254,-1.939 2.083,-2.034 2.93,-10.443c5.404,-2.413 2.685,-21.389 2.257,-24.373c-0.378,-2.628 0.147,-5.805 1.071,-7.732l-0.001,0Zm23.307,-2.26c1.229,-0.914 2.406,-2.042 3.34,-3.386c1.317,-1.896 1.384,-1.288 2.117,1.048c0.398,1.269 -0.47,10.6 -2.117,14.668c-0.961,2.375 -4.362,16.606 -4.234,18.859c0.66,11.589 2.893,11.463 3.175,13.62c0.297,2.271 -0.619,2.817 -3.175,2.095c-2.556,-0.722 -5.311,-1.498 -6.351,-2.095c-3.074,-1.765 -1.812,-5.226 -1.058,-7.334c0.232,-0.647 0.39,-2.035 0.477,-3.722c1.731,-0.664 3.524,-2.212 3.388,-4.451c-0.166,-2.752 0.685,-12.321 2.519,-14c3.609,-3.305 2.162,-11.915 1.919,-15.3l0,-0.001Zm-3.899,48.654c1.108,0.443 2.214,0.811 3.019,0.857c1.616,0.093 1.903,0.526 2.102,1.583c0.2,1.056 3.051,6.322 3.175,7.334c0.277,2.251 -0.883,5.072 -3.223,5.19c-2.341,0.118 -6.842,1.669 -8.111,0.691c-0.617,-0.475 -0.979,-1.224 -1.205,-2.109c0.829,-2.144 3.959,-2.887 6.753,-3.698c3.284,-0.952 1.896,-2.729 -0.553,-5.434c-1.53,-1.689 -1.827,-3.226 -1.958,-4.413l0,-0.001Zm10.025,-103.788c1.936,-1.1 4.638,-1.91 5.681,0.41c0.64,1.424 1.409,11.685 -1.058,18.859c-3.933,11.435 -6.505,11.641 -6.351,16.763c0.06,1.984 -0.346,6.968 0,8.382c0.346,1.413 -0.194,2.852 -2.117,4.191c-1.923,1.339 -4.843,5.049 -7.409,5.238c-3.506,0.26 -5.96,-2.415 -6.351,-4.191c-0.525,-2.386 0.779,-6.252 1.871,-9.799c1.495,-0.642 3.609,-1.152 5.787,-2.463c3.605,-2.171 -0.797,-12.46 -1.198,-16.514c-0.401,-4.052 8.721,-11.643 12.727,-13.092c3.454,-1.25 1.729,-6 -1.581,-7.784l0,0.001Zm-28.504,103.368c0.901,-0.39 1.739,-0.782 2.34,-1.032c1.541,-0.644 2.352,-0.183 2.117,0.749c-0.235,0.933 -1.501,3.458 -1.542,5.073c-0.054,2.09 0.845,4.004 0.712,6.071c-0.134,2.097 -0.326,4.236 -1.595,5.213c-1.269,0.978 -5.77,-0.573 -8.111,-0.691c-0.73,-0.037 -1.345,-0.336 -1.838,-0.799c2.512,-4.122 9.372,-2.622 7.232,-5.906c-3.238,-4.967 -0.555,-6.593 0.685,-8.679l0,0.001Zm31.232,-167.022c0.74,0.49 1.105,0.95 0.837,1.203c-1.235,1.164 -5.923,10.104 -4.234,13.62c0.997,2.077 -3.217,8.259 -6.351,9.429c-3.134,1.17 -6.542,7.334 -12.702,7.334c-6.159,0 -9.568,-6.164 -12.702,-7.334c-3.134,-1.17 -7.348,-7.353 -6.351,-9.429c0.838,-1.745 0.105,-4.829 -0.997,-7.632c0.936,-0.774 2.022,-1.585 3.852,-2.111c3.592,-1.032 11.93,-1.971 16.198,-2.229c4.268,-0.259 15.844,-2.097 19.94,-2.4c0.673,-0.05 1.548,-0.204 2.511,-0.448l-0.001,-0.001Z" style="fill:#658d8c;"/><g id="head"><path d="M115.906,27.512l0,-0.963c0,-4.808 6.703,-8.711 11.643,-8.711c4.94,0 11.643,3.903 11.643,8.711l0,0.963c-0.261,3.502 -2.672,6.68 -7.274,9.525c-0.75,0.464 -1.231,1.257 -1.289,2.132l-0.658,9.78c-0.779,0.181 -1.588,0.278 -2.421,0.278c-0.833,0 -1.642,-0.096 -2.421,-0.278l-0.658,-9.78c-0.059,-0.875 -0.539,-1.668 -1.289,-2.132c-4.602,-2.844 -7.012,-6.022 -7.274,-9.525l-0.002,0Z" style="fill:#658d8c;"/><path d="M125.129,48.949c-5.334,-1.245 -9.223,-6.497 -9.223,-12.242l0,-9.195c0.261,3.502 2.672,6.68 7.274,9.525c0.75,0.464 1.231,1.257 1.289,2.132l0.658,9.78l0.001,0Z" style="fill:#486564;"/><path d="M129.97,48.949l0.658,-9.78c0.059,-0.875 0.539,-1.668 1.289,-2.132c4.602,-2.844 7.012,-6.022 7.274,-9.525l0,9.195c0,5.746 -3.888,10.998 -9.223,12.242l0.001,0Z" style="fill:#354a49;"/></g></g></g></svg>