<?xml version="1.0" encoding="UTF-8" standalone="no"?><!DOCTYPE svg PUBLIC "-//W3C//DTD SVG 1.1//EN" "http://www.w3.org/Graphics/SVG/1.1/DTD/svg11.dtd"><svg width="100%" height="100%" viewBox="0 0 256 256" version="1.1" xmlns="http://www.w3.org/2000/svg" xmlns:xlink="http://www.w3.org/1999/xlink" xml:space="preserve" xmlns:serif="http://www.serif.com/" style="fill-rule:evenodd;clip-rule:evenodd;stroke-linejoin:round;stroke-miterlimit:2;"><g id="gedrag"><path d="M0,166.027l0,-107.314c0,-32.405 26.308,-58.713 58.713,-58.713l138.574,0c16.099,0 30.693,6.493 41.304,17.001l-21.591,117.262l-217,31.764Z" style="fill:#739bb8;"/><path d="M121.52,134.263l117.071,-117.262c10.748,10.643 17.409,25.406 17.409,41.712l0,138.574c0,32.405 -26.308,58.713 -58.713,58.713l-124.52,0l48.752,-121.737l0.001,-0Z" style="fill:#6490b0;"/><path d="M114.851,256l-56.139,0c-16.306,0 -31.068,-6.662 -41.712,-17.409c29.839,-50.319 59.561,-80.72 96.628,-105.392c3.728,-2.482 2.676,-13.816 6.457,-16.112c3.537,-2.148 12.122,-3.345 20.151,-1.041l-4.228,95.119l7.728,16.307l-28.885,28.528l0.001,0Z" style="fill:#5383a4;"/><path d="M130.583,63.22l16.545,-1.071l33.356,31.311l27.055,29.36l-70.073,70.073l3.383,-54.358l-9.362,-32.464l-0.903,-42.851Z" style="fill:#5483a5;fill-opacity:0.57;"/><path d="M117.025,117.581l2.52,18.391l-3.614,7.277l-48.938,45.35l-49.992,49.992c-10.508,-10.611 -17.001,-25.205 -17.001,-41.304l0,-55.199l118.766,-119.956l9.966,28.937l6.198,27.223l-17.904,39.289Z" style="fill:#6390b0;"/><path d="M46.902,122.786l-47.364,47.364l0,86.509l76.375,0l41.694,-41.694l-3.729,-96.858l14.436,-22.44l-2.828,-34.404l-19.231,0.418l-59.352,61.106Z" style="fill:#5989ab;fill-opacity:0.57;"/><path id="shade" d="M123.108,52.894c-0.697,-0.817 -1.108,-1.816 -1.108,-2.894c0,-2.76 2.689,-5 6,-5c2.944,0 5.396,1.771 5.904,4.104c-1.088,-1.274 -2.874,-2.106 -4.892,-2.106c-3.311,0 -6,2.24 -6,5c0,0.306 0.033,0.605 0.096,0.896Zm2.854,41.54c-2.317,-0.238 -2.965,-1.636 -2.965,-1.636c0,0 3.292,-0.753 5.004,-0.753c2.108,0 4.755,0.662 5.999,1.172c0.488,0.2 1.276,0.658 1.463,0.727c-1.654,0.675 -3.522,1.057 -5.462,1.057c-1.41,0 -2.767,-0.199 -4.039,-0.567Zm18.87,-26.79c-1.399,-1.064 -2.329,-2.939 -2.329,-5.072c0,-3.311 2.24,-6 5,-6c1.45,0 2.757,0.743 3.671,1.928c-0.773,-0.588 -1.689,-0.928 -2.671,-0.928c-2.76,0 -5,2.689 -5,6c0,1.571 0.504,3.002 1.329,4.072Zm21.961,20.479c-0.187,-0.14 -0.365,-0.295 -0.535,-0.465c-1.951,-1.951 -1.951,-5.12 0,-7.071c1.951,-1.951 5.12,-1.951 7.071,0c0.17,0.17 0.325,0.349 0.465,0.535c-1.958,-1.472 -4.754,-1.317 -6.536,0.465c-1.782,1.782 -1.937,4.578 -0.465,6.536Zm24.773,21.896c-0.199,-0.122 -0.387,-0.268 -0.559,-0.441c-1.171,-1.171 -1.171,-3.072 0,-4.243c1.171,-1.171 3.072,-1.171 4.243,0c0.172,0.172 0.319,0.36 0.441,0.559c-1.155,-0.705 -2.685,-0.558 -3.683,0.441c-0.999,0.999 -1.145,2.528 -0.441,3.683Z" style="fill:#412927;"/><path id="knee" d="M138.147,158.461c3.855,0 6.984,2.971 6.984,6.63c0,3.659 -3.13,6.63 -6.984,6.63c-3.855,0 -6.984,-2.971 -6.984,-6.63c0,-3.659 3.13,-6.63 6.984,-6.63Zm-0.947,49.89c2.274,0 4.12,1.752 4.12,3.91c0,2.158 -1.846,3.91 -4.12,3.91c-2.274,0 -4.12,-1.752 -4.12,-3.91c0,-2.158 1.846,-3.91 4.12,-3.91Zm-19.433,-49.89c3.855,0 6.984,2.971 6.984,6.63c0,3.659 -3.13,6.63 -6.984,6.63c-3.855,0 -6.984,-2.971 -6.984,-6.63c0,-3.659 3.13,-6.63 6.984,-6.63Zm0.947,49.89c2.274,0 4.12,1.752 4.12,3.91c0,2.158 -1.846,3.91 -4.12,3.91c-2.274,0 -4.12,-1.752 -4.12,-3.91c0,-2.158 1.846,-3.91 4.12,-3.91Zm26.117,-140.707c-0.825,-1.07 -1.329,-2.501 -1.329,-4.072c0,-3.311 2.24,-6 5,-6c0.982,0 1.898,0.34 2.671,0.928c0.825,1.07 1.329,2.501 1.329,4.072c0,3.311 -2.24,6 -5,6c-0.982,0 -1.898,-0.34 -2.671,-0.928Zm21.961,20.479c-1.472,-1.958 -1.317,-4.754 0.465,-6.536c1.782,-1.782 4.578,-1.937 6.536,-0.465c1.472,1.958 1.317,4.754 -0.465,6.536c-1.782,1.782 -4.578,1.937 -6.536,0.465Zm24.773,21.896c-0.705,-1.155 -0.558,-2.685 0.441,-3.683c0.999,-0.999 2.528,-1.145 3.683,-0.441c0.705,1.155 0.558,2.685 -0.441,3.683c-0.999,0.999 -2.528,1.145 -3.683,0.441Zm-80.872,-51.519c0.825,1.07 1.329,2.501 1.329,4.072c0,3.311 -2.24,6 -5,6c-0.982,0 -1.898,-0.34 -2.671,-0.928c-0.825,-1.07 -1.329,-2.501 -1.329,-4.072c0,-3.311 2.24,-6 5,-6c0.982,0 1.898,0.34 2.671,0.928Zm-21.961,22.622c1.472,1.958 1.317,4.754 -0.465,6.536c-1.782,1.782 -4.578,1.937 -6.536,0.465c-1.472,-1.958 -1.317,-4.754 0.465,-6.536c1.782,-1.782 4.578,-1.937 6.536,-0.465Zm-24.773,24.773c0.705,1.155 0.558,2.685 -0.441,3.683c-0.999,0.999 -2.528,1.145 -3.683,0.441c-0.705,-1.155 -0.558,-2.685 0.441,-3.683c0.999,-0.999 2.528,-1.145 3.683,-0.441Zm51.928,3.016c-0.239,-0.936 -0.365,-1.91 -0.365,-2.911c0,-5.455 3.75,-10.13 9.059,-12.057c0.02,0.012 2.353,1.057 5.418,1.057c1.94,-0 3.781,-0.377 5.435,-1.052c0.193,0.07 0.383,0.144 0.572,0.221c3.899,2.33 6.471,6.313 6.471,10.83c0,1.117 -0.157,2.201 -0.453,3.236c1.846,-0.175 3.556,0.307 4.756,1.507c2.618,2.618 1.822,7.664 -1.776,11.261c-3.598,3.598 -8.644,4.394 -11.261,1.776c-1.331,-1.331 -1.78,-3.291 -1.425,-5.369c-1.364,0.383 -2.814,0.589 -4.317,0.589c-1.795,0 -3.514,-0.294 -5.101,-0.831c0.433,2.167 0.003,4.228 -1.38,5.611c-2.618,2.618 -7.664,1.822 -11.261,-1.776c-3.598,-3.598 -4.394,-8.644 -1.776,-11.261c1.762,-1.762 4.626,-1.977 7.406,-0.832Zm7.22,-56.017c-0.063,-0.291 -0.096,-0.59 -0.096,-0.896c0,-2.76 2.689,-5 6,-5c2.018,0 3.805,0.832 4.892,2.106c0.063,0.291 0.096,0.59 0.096,0.896c0,2.76 -2.689,5 -6,5c-2.018,0 -3.805,-0.832 -4.892,-2.106Zm-0.466,39.086c-3.406,-2.074 -5.641,-5.548 -5.641,-9.479c0,-6.347 5.825,-11.5 13,-11.5c1.91,-0 3.724,0.365 5.359,1.021c3.406,2.074 5.641,5.548 5.641,9.479c0,6.347 -5.825,11.5 -13,11.5c-1.91,0 -3.724,-0.365 -5.359,-1.021Z" style="fill:#51302e;"/><path id="light" d="M122.641,91.979c-4.505,-1.807 -7.641,-5.822 -7.641,-10.479c0,-6.347 5.825,-11.5 13,-11.5c2.731,0 5.266,0.746 7.359,2.021c-1.634,-0.656 -3.449,-1.021 -5.359,-1.021c-7.175,0 -13,5.153 -13,11.5c0,3.932 2.235,7.405 5.641,9.479Zm1.94,1.963c-5.309,1.928 -9.059,6.602 -9.059,12.057c0,4.518 2.572,8.5 6.471,10.83c-4.996,-2.051 -8.471,-6.579 -8.471,-11.83c0,-5.598 3.949,-10.374 9.479,-12.203c0.491,0.417 1.02,0.8 1.58,1.146Zm-13.889,-35.443c-0.773,-0.588 -1.689,-0.928 -2.671,-0.928c-2.76,0 -5,2.689 -5,6c0,1.571 0.504,3.002 1.329,4.072c-1.399,-1.064 -2.329,-2.939 -2.329,-5.072c0,-3.311 2.24,-6 5,-6c1.45,0 2.757,0.743 3.671,1.928Zm-21.961,22.622c-1.958,-1.472 -4.754,-1.317 -6.536,0.465c-1.782,1.782 -1.937,4.578 -0.465,6.536c-0.187,-0.14 -0.365,-0.295 -0.535,-0.465c-1.951,-1.951 -1.951,-5.12 0,-7.071c1.951,-1.951 5.12,-1.951 7.071,0c0.17,0.17 0.325,0.349 0.465,0.535Zm-24.773,24.773c-1.155,-0.705 -2.685,-0.558 -3.683,0.441c-0.999,0.999 -1.145,2.528 -0.441,3.683c-0.199,-0.122 -0.387,-0.268 -0.559,-0.441c-1.171,-1.171 -1.171,-3.072 -0,-4.243c1.171,-1.171 3.072,-1.171 4.243,0c0.172,0.172 0.319,0.36 0.441,0.559Z" style="fill:#6b4442;"/><path d="M199.405,109.414c0.271,0.4 0.511,0.796 0.696,1.167c1.086,2.174 3.078,5.825 4.503,7.256c1.426,1.43 2.973,3.271 3.529,3.991c0.556,0.72 -0.793,1.782 -1.587,0.995c-0.794,-0.787 -5.818,-5.561 -7.767,-6.757c-0.275,-0.169 -0.631,-0.404 -1.041,-0.685c0.216,1.548 1.063,3.958 1.336,4.84c0.584,1.888 -1.96,1.709 -2.159,0.424c-0.238,-1.533 -1.293,-4.599 -2.378,-5.483c-0.959,-0.78 -2.475,-2.958 -2.419,-3.854l-0.656,-0.49c-0.101,-0.076 -0.144,-0.206 -0.109,-0.328c0.035,-0.121 0.142,-0.208 0.267,-0.218c0.937,-0.049 2.418,-0.235 3.249,-0.854c0.211,-0.157 0.385,-0.372 0.528,-0.621c0.443,-0.774 0.587,-1.877 0.632,-2.616c0.012,-0.129 0.099,-0.24 0.221,-0.282c0.123,-0.042 0.259,-0.007 0.347,0.088c0.705,0.749 1.92,2.115 2.807,3.426Zm-39.541,-43.281c1.408,1.565 2.553,3.366 3.26,4.847c1.174,2.458 3.935,4.772 5.844,5.817c1.908,1.045 3.771,2.632 2.303,3.756c-1.468,1.124 -1.148,3.804 -1.79,5.133c-0.642,1.33 -3.565,2.117 -5.377,0.976c-1.812,-1.141 -2.927,-4.982 -4.766,-6.877c-1.839,-1.895 -8.765,-6.273 -11.138,-8.853c-2.373,-2.58 -2.026,-3.628 0.803,-4.531c1.17,-0.373 1.805,-1.464 2.512,-2.401c1.013,-1.343 2.173,-2.368 5.268,-0.5c1.108,0.669 2.152,1.599 3.081,2.632Zm23.185,23.392c1.227,2.234 2.503,4.629 3.739,5.916c1.815,1.89 4.631,4.631 6.102,5.526c1.846,1.122 1.996,5.364 0.778,6.118c-1.212,0.75 -4.752,-0.065 -5.733,-1.174c-0.981,-1.109 -1.879,-2.649 -4.139,-5.368c-2.26,-2.719 -11.014,-6.416 -16.698,-10.534c-0.636,-0.461 -0.383,-2.641 -0.383,-2.641c0,0 2.715,1.421 3.942,0.685c0.737,-0.442 1.704,-2.572 2.347,-4.305c0.327,-0.882 0.57,-1.661 0.656,-2.064c0.259,-1.208 2.343,-0.935 6.519,3.364c0.89,0.916 1.863,2.642 2.87,4.477Zm-73.99,-28.811c-1.056,-2.714 -2.47,-5.155 -3.058,-5.715c-0.739,-0.704 3.632,-3.093 7,-3c8.28,0.23 11.903,2 15,2c3.097,0 6.72,-1.77 15,-2c2.216,-0.061 4.866,0.952 6.209,1.852c-0.91,0.233 -1.735,0.38 -2.372,0.428c-3.868,0.289 -14.805,2.044 -18.838,2.291c-4.032,0.247 -11.909,1.143 -15.303,2.128c-1.729,0.502 -2.755,1.276 -3.639,2.015Zm-48.891,45.081c-0.314,-1.576 0.134,-4.017 1.468,-4.828c1.471,-0.895 4.287,-3.636 6.102,-5.526c2.25,-2.343 4.635,-8.36 6.609,-10.393c4.176,-4.3 6.26,-4.573 6.519,-3.364c0.077,0.358 0.277,1.013 0.55,1.773l-0.344,0.166c-2.785,1.332 -6.688,5.861 -8.595,8.39c-1.907,2.529 -6.299,6.943 -9.293,10.256c-2.231,2.469 -2.34,2.461 -3.016,3.527Zm-13.797,16.771c-0.139,-0.232 -0.16,-0.503 0.021,-0.738c0.556,-0.72 2.103,-2.561 3.529,-3.991c1.426,-1.43 3.417,-5.082 4.503,-7.256c0.792,-1.584 2.583,-3.614 3.503,-4.592c0.088,-0.095 0.224,-0.13 0.347,-0.088c0.123,0.042 0.21,0.152 0.221,0.282c0.031,0.509 0.109,1.191 0.299,1.819c-1.776,2.804 -3.859,5.78 -5.168,8.129c-0.908,1.63 -3.997,4.385 -7.256,6.436Zm37.837,-40.542c-0.194,-0.587 -0.481,-1.11 -0.953,-1.471c-1.468,-1.124 0.395,-2.71 2.303,-3.756c1.908,-1.045 4.67,-3.359 5.844,-5.817c1.174,-2.458 3.553,-5.796 6.34,-7.478c2.524,-1.523 3.761,-1.123 4.681,-0.195c-1.298,1.433 -2.752,3.07 -4.631,4.337c-3.638,2.453 -4.355,6.758 -6.313,9.219c-1.365,1.716 -4.534,3.679 -7.272,5.162Zm34.394,34.661c-2.355,-1.862 -4.76,-3.809 -8.601,-5.685c-3.339,-1.631 -2.305,-3.918 -2,-5c0.849,-3.01 5.82,-8.365 6,-5c0.28,5.23 8.903,11 14,11c5.097,-0 13.72,-5.77 14,-11c0.084,-1.57 1.212,-1.241 2.477,-0.138c-1.611,4.561 -4.535,9.11 -7.144,10.58c-5.464,3.077 -13.514,1.814 -17.413,4.146c-0.529,0.317 -0.965,0.68 -1.319,1.096Zm-2.918,83.347c0.09,-0.905 0.169,-1.911 0.232,-3.032c0.121,-2.15 -3.092,-15.733 -4,-18c-1.556,-3.883 -2.376,-12.789 -2,-14c0.692,-2.229 0.756,-2.81 2,-1c1.906,2.773 4.794,4.541 6.912,5.389c-0.873,1.838 -1.369,4.872 -1.012,7.38c0.405,2.848 2.973,20.959 -2.132,23.263Zm17.768,-0.584c0.185,-3.633 0.028,-8.722 -0.451,-10.447c-0.927,-3.344 -3.021,-10.868 -3.113,-15c-0.052,-2.316 1.566,-6.991 1.566,-6.991c0,0 1.487,2.975 2.998,3.007c1.153,0.024 3.889,-0.902 6.394,-2.783c0.23,3.231 1.597,11.449 -1.813,14.603c-1.734,1.604 -2.537,10.736 -2.38,13.363c0.128,2.137 -1.567,3.615 -3.201,4.248Zm-21.227,27.743c-1.027,-0.976 -1.49,-2.712 -1.309,-4.191c0.118,-0.966 2.811,-5.992 3,-7c0.189,-1.008 0.459,-1.422 1.986,-1.511c0.992,-0.058 2.47,-0.637 3.803,-1.219c-1.171,1.991 -3.706,3.542 -0.647,8.284c2.022,3.134 -4.46,1.703 -6.832,5.637Zm-1.179,-71.797c0.028,-1.996 -0.173,-4.986 -0.131,-6.394c0.146,-4.889 -2.284,-5.086 -6,-16c-2.331,-6.847 -1.605,-16.641 -1,-18c1.106,-2.484 4.184,-1.208 6,0c1.543,1.027 4.324,3.311 7.367,5.718c-0.108,2.259 0.308,5.202 0.833,9.014c1.086,7.883 -1.186,11.852 -0.969,15.678c0.213,3.757 -0.369,7.898 -6.1,9.983Zm20.723,-2.747c0.656,-2.152 1.232,-4.181 1.232,-5.647c0,-3.771 -2.579,-12.216 -2,-16c0.579,-3.784 2.345,-6.158 6,-9c3.655,-2.842 7.184,-5.792 9,-7c0.197,-0.131 0.41,-0.263 0.633,-0.391c3.128,1.703 4.757,6.237 1.494,7.43c-3.785,1.383 -12.403,8.628 -12.024,12.496c0.379,3.868 4.538,13.69 1.132,15.762c-2.057,1.251 -4.055,1.738 -5.467,2.351Zm1.386,73.954c-0.225,-0.894 -0.304,-1.934 -0.37,-2.963c-0.125,-1.973 0.724,-3.8 0.673,-5.795c-0.039,-1.542 -1.236,-3.952 -1.457,-4.842c-0.222,-0.891 0.544,-1.33 2,-0.715c0.775,0.327 1.969,0.904 3.161,1.387c0.124,1.134 0.406,2.6 1.85,4.212c2.313,2.581 3.625,4.278 0.522,5.187c-2.64,0.773 -5.597,1.483 -6.38,3.53Z" style="fill:#b05b56;"/><path d="M81.415,83.457c0.638,1.777 1.674,4.129 2.453,4.597c1.227,0.736 3.942,-0.685 3.942,-0.685c0,0 0.253,2.181 -0.383,2.641c-5.684,4.117 -14.438,7.815 -16.698,10.534c-2.26,2.719 -3.158,4.259 -4.139,5.368c-0.981,1.109 -4.521,1.924 -5.733,1.174c-0.338,-0.209 -0.57,-0.686 -0.691,-1.29c0.676,-1.066 0.785,-1.058 3.016,-3.527c2.994,-3.313 7.386,-7.727 9.293,-10.256c1.907,-2.529 5.81,-7.058 8.595,-8.39l0.344,-0.166Zm21.007,-20.151c0.995,1.003 1.619,2.624 3.099,3.096c2.829,0.902 3.176,1.951 0.803,4.531c-2.373,2.58 -9.299,6.958 -11.138,8.853c-1.839,1.895 -2.954,5.736 -4.766,6.877c-1.812,1.141 -4.735,0.353 -5.377,-0.976c-0.435,-0.902 -0.429,-2.425 -0.837,-3.662c2.737,-1.483 5.906,-3.446 7.272,-5.162c1.958,-2.46 2.674,-6.766 6.313,-9.219c1.879,-1.267 3.333,-2.904 4.631,-4.337Zm-43.628,44.695c0.175,0.577 0.445,1.109 0.86,1.418c0.832,0.62 2.312,0.805 3.249,0.854c0.126,0.01 0.232,0.097 0.267,0.218c0.035,0.121 -0.008,0.251 -0.109,0.328l-0.656,0.49c0.056,0.895 -1.46,3.073 -2.419,3.854c-1.085,0.884 -2.14,3.95 -2.378,5.483c-0.199,1.285 -2.743,1.464 -2.159,-0.424c0.273,-0.882 1.12,-3.292 1.336,-4.84c-0.41,0.28 -0.766,0.516 -1.041,0.685c-1.949,1.197 -6.973,5.97 -7.767,6.757c-0.535,0.53 -1.322,0.221 -1.608,-0.257c3.259,-2.05 6.348,-4.806 7.256,-6.436c1.309,-2.349 3.391,-5.324 5.168,-8.129Zm58.487,12.717c0.538,0.425 1.084,0.855 1.633,1.282c3.655,2.842 5.421,5.216 6,9c0.579,3.784 -2,12.229 -2,16c0,3.771 3.812,11.276 3,15c-0.369,1.695 -2.688,4.248 -6,4c-2.425,-0.181 -5.183,-3.722 -7,-5c-1.817,-1.278 -2.327,-2.651 -2,-4c0.084,-0.346 0.121,-0.917 0.131,-1.606c5.731,-2.085 6.313,-6.226 6.1,-9.983c-0.217,-3.827 2.055,-7.796 0.969,-15.678c-0.525,-3.812 -0.941,-6.754 -0.833,-9.014Zm27.196,-19.856c1.446,1.261 3.07,3.533 3.523,5.138c0.305,1.082 1.339,3.369 -2,5c-4.058,1.982 -6.513,4.043 -9,6c-3.961,3.117 -3.96,10 -9,10c-5.04,0 -5.039,-6.883 -9,-10l-0.399,-0.315c0.354,-0.416 0.789,-0.78 1.319,-1.096c3.9,-2.332 11.949,-1.069 17.413,-4.146c2.609,-1.469 5.534,-6.019 7.144,-10.58Zm-25.651,68.527c0.976,0.391 1.789,0.586 2.265,0.594c1.53,0.026 3.332,-2.947 3.332,-2.947c0,0 1.673,3.697 1.605,6.964c-0.087,4.132 -2.186,11.656 -3.113,15c-0.691,2.491 -0.712,11.988 0,14c0.712,2.012 1.904,5.315 -1,7c-0.982,0.57 -3.585,1.311 -6,2c-2.415,0.689 -3.281,0.168 -3,-2c0.24,-1.851 1.968,-1.941 2.768,-9.968c5.105,-2.303 2.537,-20.415 2.132,-23.263c-0.357,-2.508 0.139,-5.541 1.012,-7.38Zm22.019,-2.157c1.161,-0.872 2.273,-1.949 3.155,-3.232c1.244,-1.81 1.308,-1.229 2,1c0.376,1.211 -0.444,10.117 -2,14c-0.908,2.267 -4.121,15.85 -4,18c0.624,11.061 2.733,10.941 3,13c0.281,2.168 -0.585,2.689 -3,2c-2.415,-0.689 -5.018,-1.43 -6,-2c-2.904,-1.685 -1.712,-4.988 -1,-7c0.219,-0.618 0.368,-1.942 0.451,-3.553c1.635,-0.634 3.329,-2.111 3.201,-4.248c-0.157,-2.627 0.647,-11.76 2.38,-13.363c3.41,-3.155 2.043,-11.373 1.813,-14.603Zm-3.684,46.439c1.047,0.423 2.092,0.774 2.852,0.818c1.527,0.089 1.798,0.502 1.986,1.511c0.189,1.008 2.882,6.034 3,7c0.262,2.149 -0.834,4.841 -3.045,4.954c-2.212,0.113 -6.464,1.593 -7.663,0.66c-0.583,-0.453 -0.925,-1.168 -1.138,-2.013c0.783,-2.046 3.74,-2.756 6.38,-3.53c3.103,-0.909 1.791,-2.605 -0.522,-5.187c-1.445,-1.612 -1.726,-3.079 -1.85,-4.212Zm9.471,-99.063c1.829,-1.05 4.382,-1.823 5.367,0.391c0.605,1.359 1.331,11.153 -1,18c-3.716,10.914 -6.146,11.111 -6,16c0.057,1.894 -0.327,6.651 0,8c0.327,1.349 -0.183,2.722 -2,4c-1.817,1.278 -4.575,4.819 -7,5c-3.312,0.248 -5.631,-2.305 -6,-4c-0.496,-2.277 0.736,-5.967 1.768,-9.353c1.412,-0.613 3.41,-1.1 5.467,-2.351c3.406,-2.072 -0.753,-11.893 -1.132,-15.762c-0.379,-3.868 8.239,-11.113 12.024,-12.496c3.263,-1.193 1.633,-5.727 -1.494,-7.43Zm-26.929,98.662c0.851,-0.372 1.643,-0.746 2.211,-0.985c1.456,-0.615 2.222,-0.175 2,0.715c-0.222,0.891 -1.418,3.301 -1.457,4.842c-0.051,1.995 0.798,3.822 0.673,5.795c-0.127,2.002 -0.308,4.043 -1.507,4.976c-1.199,0.933 -5.451,-0.547 -7.663,-0.66c-0.69,-0.035 -1.271,-0.321 -1.736,-0.763c2.373,-3.934 8.854,-2.503 6.832,-5.637c-3.059,-4.741 -0.524,-6.293 0.647,-8.284Zm29.506,-159.418c0.699,0.468 1.044,0.907 0.791,1.148c-1.167,1.111 -5.596,9.644 -4,13c0.942,1.982 -3.039,7.883 -6,9c-2.961,1.117 -6.181,7 -12,7c-5.819,0 -9.039,-5.883 -12,-7c-2.961,-1.117 -6.942,-7.018 -6,-9c0.792,-1.666 0.099,-4.609 -0.942,-7.285c0.884,-0.739 1.91,-1.513 3.639,-2.015c3.394,-0.985 11.271,-1.881 15.303,-2.128c4.032,-0.247 14.969,-2.002 18.838,-2.291c0.636,-0.048 1.462,-0.195 2.372,-0.428Z" style="fill:#a6514c;"/><g id="head"><path d="M117,27.233l-0,-0.919c0,-4.589 6.333,-8.314 11,-8.314c4.667,0 11,3.725 11,8.314l-0,0.919c-0.247,3.343 -2.524,6.376 -6.872,9.091c-0.709,0.443 -1.163,1.2 -1.218,2.035l-0.622,9.335c-0.736,0.173 -1.5,0.265 -2.287,0.265c-0.787,0 -1.551,-0.092 -2.287,-0.265l-0.622,-9.335c-0.056,-0.835 -0.509,-1.592 -1.218,-2.035c-4.348,-2.715 -6.625,-5.748 -6.872,-9.091Z" style="fill:#a6514c;"/><path d="M125.713,47.694c-5.039,-1.188 -8.713,-6.201 -8.713,-11.685l0,-8.776c0.247,3.343 2.524,6.376 6.872,9.091c0.709,0.443 1.163,1.2 1.218,2.035l0.622,9.335Z" style="fill:#6b4442;"/><path d="M130.287,47.694l0.622,-9.335c0.056,-0.835 0.509,-1.592 1.218,-2.035c4.348,-2.715 6.625,-5.748 6.872,-9.091l0,8.776c0,5.484 -3.673,10.497 -8.713,11.685Z" style="fill:#51302e;"/></g></g></svg>