<?xml version="1.0" encoding="UTF-8" standalone="no"?><!DOCTYPE svg PUBLIC "-//W3C//DTD SVG 1.1//EN" "http://www.w3.org/Graphics/SVG/1.1/DTD/svg11.dtd"><svg width="100%" height="100%" viewBox="0 0 256 256" version="1.1" xmlns="http://www.w3.org/2000/svg" xmlns:xlink="http://www.w3.org/1999/xlink" xml:space="preserve" xmlns:serif="http://www.serif.com/" style="fill-rule:evenodd;clip-rule:evenodd;stroke-linejoin:round;stroke-miterlimit:2;"><g id="calendar"><path d="M-0,133.829l0,-75.116c0,-32.405 26.308,-58.713 58.713,-58.713l138.574,0c16.099,0 30.693,6.493 41.304,17.001l-21.591,117.262l-217,-0.434Z" style="fill:#a383ce;"/><path d="M130.061,125.531l108.53,-108.53c10.748,10.643 17.409,25.406 17.409,41.712l0,138.574c0,32.405 -26.308,58.713 -58.713,58.713l-92.602,-0l25.375,-130.469Z" style="fill:#734294;"/><path d="M124.21,256l-65.497,0c-16.306,-0 -31.068,-6.662 -41.712,-17.409l21.999,-119.591l153.37,68.84l-68.16,68.16Z" style="fill:#54366c;"/><path d="M121.52,134.072l-104.519,104.519c-10.508,-10.611 -17.001,-25.205 -17.001,-41.304l0,-105.181l39,-39.277l82.52,81.243Z" style="fill:#67418c;"/><path d="M175,205l-136,-0l0,-112l178,0l0,70l-42,42Z" style="fill:#fff;"/><path d="M175,205l0,-42l42,0l-42,42Z" style="fill:#a6aab5;"/><path d="M141.417,45l4.958,0c3.932,0 7.125,3.193 7.125,7.125l0,14.25c0,3.932 -3.193,7.125 -7.125,7.125l-36.75,0c-3.932,0 -7.125,-3.193 -7.125,-7.125l0,-14.25c0,-3.932 3.193,-7.125 7.125,-7.125l4.958,0c0.747,-6.746 6.474,-12 13.417,-12c6.944,0 12.67,5.254 13.417,12Zm-8.125,-0c-0.654,-2.307 -2.777,-4 -5.293,-4c-2.516,0 -4.639,1.693 -5.293,4l10.585,-0Z" style="fill:#fff;"/><rect x="39" y="52.829" width="178" height="40.171" style="fill:#d01800;"/><g transform="matrix(64,0,0,64,170.6875,164.8125)"></g><text x="85.312px" y="164.812px" style="font-family:'Arial-Black', 'Arial Black', sans-serif;font-weight:900;font-size:64px;">15</text><g transform="matrix(24,0,0,24,176.011719,81.179687)"></g><text x="79.988px" y="81.18px" style="font-family:'Arial-Black', 'Arial Black', sans-serif;font-weight:900;font-size:24px;fill:#fff;fill-opacity:0.76;">Sunday</text></g></svg>