<?xml version="1.0" encoding="UTF-8" standalone="no"?><!DOCTYPE svg PUBLIC "-//W3C//DTD SVG 1.1//EN" "http://www.w3.org/Graphics/SVG/1.1/DTD/svg11.dtd"><svg width="100%" height="100%" viewBox="0 0 256 256" version="1.1" xmlns="http://www.w3.org/2000/svg" xmlns:xlink="http://www.w3.org/1999/xlink" xml:space="preserve" xmlns:serif="http://www.serif.com/" style="fill-rule:evenodd;clip-rule:evenodd;stroke-linecap:round;stroke-linejoin:round;stroke-miterlimit:1.5;"><g id="loop"><path d="M-0,183.829l0,-125.116c0,-32.405 26.308,-58.713 58.713,-58.713l138.574,0c16.099,0 30.693,6.493 41.304,17.001l-21.591,167.262l-217,-0.434Z" style="fill:#00ab89;"/><path d="M121.52,134.263l117.071,-117.262c10.748,10.643 17.409,25.406 17.409,41.712l0,138.574c0,32.405 -26.308,58.713 -58.713,58.713l-127.602,0l51.834,-121.737Z" style="fill:#018d72;"/><path d="M84.022,256l-25.309,-0c-16.306,-0 -31.068,-6.662 -41.712,-17.409l163.342,-163.043c16.746,15.093 19.515,40.538 11.476,73.987l-107.797,106.465Z" style="fill:#06715d;"/><path d="M180.044,75.547l-163.043,163.043c-10.508,-10.611 -17.001,-25.205 -17.001,-41.304l-0,-23.181l92.482,-92.759c32.155,-25.203 61.467,-28.113 87.562,-5.799Z" style="fill:#009578;"/><circle cx="143" cy="113" r="54" style="fill:none;stroke:#fff;stroke-width:12px;"/><path d="M54,202l23.482,-23.482" style="fill:none;stroke:#fff;stroke-width:14px;"/><path d="M69,187l23.482,-23.482" style="fill:none;stroke:#fff;stroke-width:14px;stroke-linecap:butt;"/><circle cx="160" cy="95" r="7" style="fill:#fff;"/><circle cx="145.5" cy="107.5" r="3.5" style="fill:#fff;"/></g></svg>