<?xml version="1.0" encoding="UTF-8" standalone="no"?>
<!DOCTYPE svg PUBLIC "-//W3C//DTD SVG 1.1//EN" "http://www.w3.org/Graphics/SVG/1.1/DTD/svg11.dtd">
<svg width="100%" height="100%" viewBox="0 0 256 256" version="1.1" xmlns="http://www.w3.org/2000/svg" xmlns:xlink="http://www.w3.org/1999/xlink" xml:space="preserve" xmlns:serif="http://www.serif.com/" style="fill-rule:evenodd;clip-rule:evenodd;stroke-linecap:round;stroke-linejoin:round;stroke-miterlimit:1.5;">
    <g id="map">
        <path d="M-0,133.829L0,58.713C0,26.308 26.308,0 58.713,0L197.287,0C213.386,0 227.98,6.493 238.591,17.001L217,134.263L-0,133.829Z" style="fill:rgb(109,215,44);"/>
        <g transform="matrix(1.037037,1.037037,-1.447848,1.447848,234.129257,-132.018855)">
            <path d="M74.092,130.846L74,49.922C84.314,49.886 94.643,52.683 102.505,58.314L169.317,106.17C184.941,117.36 184.941,135.531 169.317,146.722L124.67,178.701L74.092,130.846Z" style="fill:rgb(87,178,39);"/>
        </g>
        <g transform="matrix(0.649414,0.649414,-1.169835,1.169835,184.914995,-25.505978)">
            <path d="M186.777,136.951L119.572,174.259C107.018,181.228 90.523,184.69 74.054,184.646L74.201,95.383L187.423,79.182L186.777,136.951Z" style="fill:rgb(34,113,30);"/>
        </g>
        <g transform="matrix(0.803261,0.803261,-1.048589,1.048589,79.53741,-92.461888)">
            <path d="M167.141,88L167.141,187.675C153.996,187.626 140.87,183.764 130.849,176.087L84.051,140.239L83.879,93.377L167.141,88Z" style="fill:rgb(62,142,27);"/>
        </g>
        <g>
            <path d="M82.467,86.156L127.16,73.12C127.709,72.96 128.291,72.96 128.84,73.12L175.847,86.83L209.886,73.215C210.81,72.845 211.858,72.958 212.682,73.516C213.506,74.074 214,75.005 214,76L214,188C214,189.227 213.253,190.33 212.114,190.785L177.114,204.785C176.492,205.034 175.804,205.068 175.16,204.88L128,191.125L82.84,204.297C82.567,204.376 82.284,204.417 82,204.417L81.775,204.192C81.47,204.169 81.17,204.099 80.886,203.985L47.886,190.785C46.747,190.33 46,189.227 46,188L46,76C46,75.005 46.494,74.074 47.318,73.516C48.142,72.958 49.19,72.845 50.114,73.215L82.467,86.156ZM82,201.2L82,201.417L128,188L176,202L211,188L211,76L176,90L128,76L82,89.417L82,89.2L49,76L49,188L82,201.2Z" style="fill:white;"/>
            <g transform="matrix(-1,0.4,0,0.888889,260,-11.155556)">
                <path d="M49,122.125L49,76L84,76L84,149.125C76.602,127.715 62.651,119.209 49.008,122.131L49,122.125Z" style="fill:rgb(4,84,121);"/>
            </g>
            <g transform="matrix(1.371429,0.4,0,0.888889,60.8,-11.155556)">
                <path d="M49,164.875L49,76L84,76L84,149.125C84,149.125 72.318,149.396 62.854,149.641C53.39,149.885 49,164.875 49,164.875Z" style="fill:rgb(92,151,193);"/>
            </g>
            <g transform="matrix(-1.314286,0.383333,-0,0.888889,192.4,-10.338889)">
                <path d="M49,164.875L49,76L84,76L84,172.281C77.985,180.457 68.115,183.361 62.696,180.344C57.277,177.327 49,164.875 49,164.875Z" style="fill:rgb(4,84,121);"/>
            </g>
            <g transform="matrix(0.942857,0.377143,-0,0.888889,2.8,-10.035556)">
                <path d="M57.28,202L49,202L49,76L84,76L84,172.525C76.495,170.714 55.585,200.432 57.293,201.993L57.28,202Z" style="fill:rgb(92,151,193);"/>
            </g>
            <path d="M176,155L176,202L211,188L211,117L210.992,117.008C197.349,119.868 183.398,133.009 176,155Z" style="fill:rgb(111,150,179);"/>
            <path d="M128,188L128,155C128,155 134.021,143.432 147,147C159.979,150.568 176,155 176,155L176,202L128,188Z" style="fill:rgb(158,193,215);"/>
            <path d="M82,175L82,201.417L128,188L128,155C128,155 117.122,169.241 110,174C102.878,178.759 89.906,179.961 82,175Z" style="fill:rgb(98,148,171);"/>
            <path d="M56.807,191.123L56.819,191.121C55.209,189.09 74.924,170.56 82,175L82,201.2L56.807,191.123Z" style="fill:rgb(168,192,226);"/>
        </g>
        <g transform="matrix(1,0,0,1,0,-9.904293)">
            <path d="M154.5,53C169.126,53 181,64.874 181,79.5C181,94.126 159.333,137 154.5,137C149.667,137 128,94.126 128,79.5C128,64.874 139.874,53 154.5,53Z" style="fill:rgb(186,33,0);"/>
        </g>
        <g transform="matrix(1,0,0,1,0,-10.904293)">
            <circle cx="154.5" cy="81" r="14" style="fill:rgb(128,23,0);"/>
        </g>
    </g>
    <g id="calendar">
        <path d="M-0,170L0,58.713C0,26.308 26.308,0 58.713,0L197.287,0C213.386,0 227.98,6.493 238.591,17.001L217,134.263L-0,170Z" style="fill:rgb(46,168,209);"/>
        <g transform="matrix(1.037037,1.037037,-1.447848,1.447848,234.129257,-132.018855)">
            <path d="M74,124.881L74,49.922C84.314,49.886 94.643,52.683 102.505,58.314L169.317,106.17C184.941,117.36 184.941,135.531 169.317,146.722L124.67,178.701L74,124.881Z" style="fill:rgb(39,131,206);"/>
        </g>
        <g transform="matrix(0.649414,0.649414,-1.169835,1.169835,184.914995,-25.505978)">
            <path d="M156.911,153.531L119.572,174.259C107.018,181.228 90.523,184.69 74.054,184.646L74.368,52.324C99.7,53.48 120.971,61.616 138.324,76.483L156.911,79.024L156.911,153.531Z" style="fill:rgb(29,93,154);"/>
        </g>
        <g transform="matrix(0.803261,0.803261,-1.048589,1.048589,79.53741,-92.461888)">
            <path d="M167.396,40.053L167.141,187.675C153.996,187.626 140.87,183.764 130.849,176.087L101.48,153.59L101.308,96.238L110.933,88.056C116.669,59.144 136.36,44.002 167.396,40.053Z" style="fill:rgb(43,133,193);"/>
        </g>
        <circle cx="128" cy="128" r="44" style="fill:none;stroke:white;stroke-width:8.5px;"/>
        <g transform="matrix(1.340909,0,0,1.340909,-43.636364,-43.636364)">
            <path d="M83.081,142.785C82.464,139.24 81.641,136.367 78.78,134.712C74.581,132.284 70.033,131.684 69.831,128C69.628,124.316 75.309,124.129 78.78,121.288C80.02,120.273 80.971,119.356 81.707,118.345C82.944,114.966 83.669,112.066 82.018,109.202C79.596,105.001 75.957,102.206 77.624,98.915C79.29,95.624 84.303,98.302 88.73,97.577C90.311,97.318 91.594,97 92.737,96.492C95.497,94.185 97.575,92.036 97.577,88.73C97.58,83.88 95.826,79.641 98.915,77.624C102.004,75.607 105.006,80.433 109.202,82.018C110.702,82.584 111.972,82.95 113.215,83.081C116.76,82.464 119.633,81.641 121.288,78.78C123.716,74.581 124.316,70.033 128,69.831C131.684,69.628 131.871,75.309 134.712,78.78C135.727,80.02 136.644,80.971 137.655,81.707C141.034,82.944 143.934,83.669 146.798,82.018C150.999,79.596 153.794,75.957 157.085,77.624C160.376,79.29 157.698,84.303 158.423,88.73C158.682,90.311 159,91.594 159.508,92.737C161.815,95.497 163.964,97.575 167.27,97.577C172.12,97.58 176.359,95.826 178.376,98.915C180.393,102.004 175.567,105.006 173.982,109.202C173.416,110.702 173.05,111.972 172.919,113.215C173.536,116.76 174.359,119.633 177.22,121.288C181.419,123.716 185.967,124.316 186.169,128C186.372,131.684 180.691,131.871 177.22,134.712C175.98,135.727 175.029,136.644 174.293,137.655C173.056,141.034 172.331,143.934 173.982,146.798C176.404,150.999 180.043,153.794 178.376,157.085C176.71,160.376 171.697,157.698 167.27,158.423C165.689,158.682 164.406,159 163.263,159.508C160.503,161.815 158.425,163.964 158.423,167.27C158.42,172.12 160.174,176.359 157.085,178.376C153.996,180.393 150.994,175.567 146.798,173.982C145.298,173.416 144.028,173.05 142.785,172.919C139.24,173.536 136.367,174.359 134.712,177.22C132.284,181.419 131.684,185.967 128,186.169C124.316,186.372 124.129,180.691 121.288,177.22C120.273,175.98 119.356,175.029 118.345,174.293C114.966,173.056 112.066,172.331 109.202,173.982C105.001,176.404 102.206,180.043 98.915,178.376C95.624,176.71 98.302,171.697 97.577,167.27C97.318,165.689 97,164.406 96.492,163.263C94.185,160.503 92.036,158.425 88.73,158.423C83.88,158.42 79.641,160.174 77.624,157.085C75.607,153.996 80.433,150.994 82.018,146.798C82.584,145.298 82.95,144.028 83.081,142.785ZM128,85.119C104.333,85.119 85.119,104.333 85.119,128C85.119,151.667 104.333,170.881 128,170.881C151.667,170.881 170.881,151.667 170.881,128C170.881,104.333 151.667,85.119 128,85.119Z" style="fill:white;"/>
        </g>
        <circle cx="128" cy="128" r="12" style="fill:white;"/>
    </g>
</svg>
