<?xml version="1.0" encoding="UTF-8" standalone="no"?><!DOCTYPE svg PUBLIC "-//W3C//DTD SVG 1.1//EN" "http://www.w3.org/Graphics/SVG/1.1/DTD/svg11.dtd"><svg width="100%" height="100%" viewBox="0 0 256 256" version="1.1" xmlns="http://www.w3.org/2000/svg" xmlns:xlink="http://www.w3.org/1999/xlink" xml:space="preserve" xmlns:serif="http://www.serif.com/" style="fill-rule:evenodd;clip-rule:evenodd;stroke-linejoin:round;stroke-miterlimit:1.5;"><g id="dashboard"><path d="M-0,183.829l0,-125.116c0,-32.405 26.308,-58.713 58.713,-58.713l138.574,0c16.099,0 30.693,6.493 41.304,17.001l-21.591,167.262l-217,-0.434Z" style="fill:#c94a53;"/><path d="M121.52,134.263l117.071,-117.262c10.748,10.643 17.409,25.406 17.409,41.712l0,138.574c0,32.405 -26.308,58.713 -58.713,58.713l-127.602,0l51.834,-121.737Z" style="fill:#9c3048;"/><path d="M164.022,256l-105.309,-0c-16.306,-0 -31.068,-6.662 -41.712,-17.409l163.342,-163.043c16.746,15.093 32.28,132.453 32.28,132.453l-48.6,48Z" style="fill:#641a29;"/><path d="M180.044,75.547l-163.043,163.043c-10.508,-10.611 -17.001,-25.205 -17.001,-41.304l-0,-105.181l46.493,-46.633c0,0 107.456,7.761 133.551,30.074Z" style="fill:#7c1d3f;"/><circle cx="128" cy="128" r="109" style="fill:#fff;stroke:#0a4f78;stroke-width:14px;"/><g><path d="M56,128c0,20.117 8.27,38.317 21.59,51.386c3.546,3.479 3.6,9.182 0.121,12.727c-3.479,3.546 -9.182,3.6 -12.727,0.121c-16.65,-16.337 -26.983,-39.088 -26.983,-64.234l18,0Z" style="fill:#d2d2d2;"/><path d="M218,128c0,25.254 -10.422,48.094 -27.199,64.445c-3.557,3.467 -9.26,3.394 -12.727,-0.163c-3.467,-3.557 -3.394,-9.26 0.163,-12.727c13.421,-13.081 21.762,-31.351 21.762,-51.555l18,0Z" style="fill:#c30a4e;"/><path d="M91.832,65.743c-21.422,12.48 -35.832,35.699 -35.832,62.257l-18,0c0,-33.369 18.199,-62.52 45.205,-78.062l8.627,15.805Z" style="fill:#0a4f78;"/><path d="M172.795,49.938c27.006,15.542 45.205,44.693 45.205,78.062l-18,-0c0,-26.558 -14.41,-49.777 -35.832,-62.257l8.627,-15.805Z" style="fill:#f7b600;"/><path d="M91.832,65.743l-8.627,-15.805c13.195,-7.594 28.492,-11.938 44.795,-11.938c16.304,0 31.601,4.345 44.795,11.938l-8.627,15.805c-10.631,-6.194 -22.988,-9.743 -36.168,-9.743c-13.18,0 -25.537,3.549 -36.168,9.743Z" style="fill:#00a7c3;"/></g><g><circle cx="128" cy="128" r="18" style="fill:#0a4f78;"/><circle cx="128" cy="128" r="9" style="fill:#feae01;"/><circle cx="160.084" cy="79.084" r="4.084" style="fill:#feae01;"/><path d="M189.527,120.729c1.385,1.778 1.067,4.346 -0.711,5.732c-1.778,1.385 -4.346,1.067 -5.732,-0.711c-1.385,-1.778 -1.067,-4.346 0.711,-5.732c1.778,-1.385 4.346,-1.067 5.732,0.711Z" style="fill:#c30a4e;"/><path d="M173.514,170.034c-0.451,2.209 -2.61,3.636 -4.818,3.185c-2.209,-0.451 -3.636,-2.61 -3.185,-4.818c0.451,-2.209 2.61,-3.636 4.818,-3.185c2.209,0.451 3.636,2.61 3.185,4.818Z" style="fill:#36426d;"/><path d="M85.653,173.223c-2.205,-0.466 -3.618,-2.635 -3.152,-4.84c0.466,-2.205 2.635,-3.618 4.84,-3.152c2.205,0.466 3.618,2.635 3.152,4.84c-0.466,2.205 -2.635,3.618 -4.84,3.152Z" style="fill:#d2d2d2;"/><path d="M66.059,126.714c-1.127,-1.952 -0.457,-4.452 1.495,-5.579c1.952,-1.127 4.452,-0.457 5.579,1.495c1.127,1.952 0.457,4.452 -1.495,5.579c-1.952,1.127 -4.452,0.457 -5.579,-1.495Z" style="fill:#0a4f78;"/><path d="M128,128l0,-78.062" style="fill:none;stroke:#feae01;stroke-width:10px;stroke-linecap:round;"/><path d="M155,189.446l0,14.108c0,2.454 -1.992,4.446 -4.446,4.446l-45.108,0c-2.454,0 -4.446,-1.992 -4.446,-4.446l0,-14.108c0,-2.454 1.992,-4.446 4.446,-4.446l45.108,0c2.454,0 4.446,1.992 4.446,4.446Z" style="fill:#0a4f78;"/></g></g><g id="combat"><path d="M-0,183.829l0,-125.116c0,-32.405 26.308,-58.713 58.713,-58.713l138.574,0c16.099,0 30.693,6.493 41.304,17.001l-21.591,167.262l-217,-0.434Z" style="fill:#b4232d;"/><path d="M121.52,134.263l117.071,-117.262c10.748,10.643 17.409,25.406 17.409,41.712l0,138.574c0,32.405 -26.308,58.713 -58.713,58.713l-127.602,0l51.834,-121.737Z" style="fill:#8f1f38;"/><path d="M138.527,256l-79.814,-0c-16.306,-0 -31.068,-6.662 -41.712,-17.409l163.342,-163.043c8.448,7.615 25.786,55.083 25.786,55.083l-24.64,24.491l10.926,47.656l-53.888,53.222Z" style="fill:#7e1d32;"/><path d="M194.19,61.402l-177.189,177.189c-10.508,-10.611 -17.001,-25.205 -17.001,-41.304l-0,-92.487l73.104,-73.243c0,0 22.467,3.671 19.528,36.68c-0.264,2.96 30.345,-3.118 46.347,-8.181c22.046,-6.975 31.815,-21.154 31.815,-21.154c0,0 15.414,15.677 23.395,22.501Z" style="fill:#962037;"/><circle cx="87.367" cy="42.69" r="18.712" style="fill:#ffb74d;"/><circle cx="182.783" cy="52.409" r="18.712" style="fill:#ffb74d;"/><path d="M140.256,115.544l-22.7,3.641c-5.177,0.83 -10.054,-2.698 -10.885,-7.875c-0.83,-5.177 2.698,-10.054 7.875,-10.885l22.051,-3.537l20.701,-25.183c2.595,-3.157 6.919,-4.301 10.735,-2.839l27.488,10.523c2.93,1.122 5.117,3.617 5.844,6.669l8.285,34.751c0.877,3.68 -0.513,7.531 -3.539,9.802c-3.026,2.271 -7.112,2.53 -10.4,0.658l-7.85,-4.467l-1.093,5.405l7.647,52.849l1.663,8.176c1.045,5.138 -2.278,10.158 -7.416,11.203c-5.138,1.045 -10.158,-2.278 -11.203,-7.416l-3.916,-19.255l-9.032,-37.238l-0.95,1.222l-0.512,-10.113l-20.717,28.004l2.122,24.443l-1.606,12.199c-0.684,5.198 -5.46,8.863 -10.659,8.179c-5.198,-0.684 -8.863,-5.46 -8.179,-10.659l4.742,-36.021c0.206,-1.562 0.797,-3.049 1.72,-4.326l17.376,-34.415l2.598,-9.076l-0.022,0.027l7.592,-25.024l-17.76,30.58Z" style="fill:#607d8b;"/><path d="M187.472,137.068l6.943,47.988l1.663,8.176c1.045,5.138 -2.278,10.158 -7.416,11.203c-5.138,1.045 -10.158,-2.278 -11.203,-7.416l-3.916,-19.255l-9.032,-37.238l-0.95,1.222l-0.512,-10.113l-20.717,28.004l2.122,24.443l-1.606,12.199c-0.684,5.198 -5.46,8.863 -10.659,8.179c-5.198,-0.684 -8.863,-5.46 -8.179,-10.659l4.742,-36.021c0.206,-1.562 0.797,-3.049 1.72,-4.326l17.376,-34.415l2.598,-9.076l-0.022,0.027l7.592,-25.024l-17.76,30.58l-22.7,3.641c-5.177,0.83 -10.054,-2.698 -10.885,-7.875c-0.83,-5.177 2.698,-10.054 7.875,-10.885l22.051,-3.537l20.701,-25.183c2.595,-3.157 6.919,-4.301 10.735,-2.839l27.488,10.523c2.93,1.122 5.117,3.617 5.844,6.669l6.505,27.283l-24.146,-15.602c-7.185,-4.643 -16.788,-2.579 -21.431,4.606c-4.643,7.185 -2.579,16.788 4.606,21.431l20.571,13.293Z" style="fill:#607d8b;"/><path d="M144.453,184.082l-2.122,-24.443l21.537,-28.867l0.512,10.113l-17.112,21.819l-2.815,21.378Z" style="fill:#455a64;"/><path d="M140.256,115.544l17.76,-30.58l-7.592,25.024l-1.432,1.742c-1.471,1.79 -3.546,2.98 -5.834,3.347l-2.901,0.465Z" style="fill:#455a64;"/><path d="M61.134,114.024l-9.491,4.4c-4.004,1.856 -8.759,0.711 -11.478,-2.765c-2.719,-3.476 -2.687,-8.367 0.079,-11.806l25.826,-32.121c1.342,-1.67 3.21,-2.837 5.299,-3.311l77.634,-17.637c5.113,-1.162 10.207,2.046 11.369,7.159c1.162,5.113 -2.046,10.207 -7.159,11.369l-47.642,10.823l-9.249,29.671l13.112,41.068c0.533,1.171 0.822,2.438 0.85,3.723l0.894,40.318c0.116,5.242 -4.045,9.592 -9.287,9.708c-5.242,0.116 -9.592,-4.045 -9.708,-9.287l-0.851,-38.369l-8.683,-19.085l-3.628,21.504c-0.089,0.528 -0.223,1.048 -0.4,1.554l-13.043,37.32c-1.73,4.95 -7.153,7.564 -12.102,5.834c-4.95,-1.73 -7.564,-7.153 -5.834,-12.102l12.777,-36.56l0.961,-5.694l-0.245,-35.713Z" style="fill:#607d8b;"/><path d="M80.306,84.279c4.765,0.971 9.003,4.162 11.109,8.948c3.445,7.831 -0.116,16.985 -7.947,20.429l-22.269,9.796l-0.065,-9.428l-7.654,3.549l1.409,-1.743l22.497,-7.667c4.963,-1.691 7.619,-7.094 5.928,-12.057c-1.161,-3.407 -4.071,-5.727 -7.386,-6.299l3.703,-4.58c0.247,-0.306 0.473,-0.623 0.676,-0.948Z" style="fill:#455a64;"/><path d="M175.313,110.757l38.752,25.04" style="fill:none;"/><path d="M174.103,117.814l13.759,8.988l-1.093,5.405l0.703,4.861l-20.571,-13.293c-7.185,-4.643 -9.249,-14.246 -4.606,-21.431c4.643,-7.185 14.246,-9.249 21.431,-4.606l0.186,0.12l1.294,4.426l-1.602,-0.925c-4.541,-2.622 -10.356,-1.063 -12.977,3.477c-2.622,4.541 -1.063,10.356 3.477,12.977Z" style="fill:#455a64;"/></g></svg>