<?xml version="1.0" encoding="UTF-8" standalone="no"?><!DOCTYPE svg PUBLIC "-//W3C//DTD SVG 1.1//EN" "http://www.w3.org/Graphics/SVG/1.1/DTD/svg11.dtd"><svg width="100%" height="100%" viewBox="0 0 256 256" version="1.1" xmlns="http://www.w3.org/2000/svg" xmlns:xlink="http://www.w3.org/1999/xlink" xml:space="preserve" xmlns:serif="http://www.serif.com/" style="fill-rule:evenodd;clip-rule:evenodd;stroke-linejoin:round;stroke-miterlimit:1.5;"><g id="dashboard"><path d="M-0,183.829l0,-125.116c0,-32.405 26.308,-58.713 58.713,-58.713l138.574,0c16.099,0 30.693,6.493 41.304,17.001l-21.591,167.262l-217,-0.434Z" style="fill:#c94a53;"/><path d="M121.52,134.263l117.071,-117.262c10.748,10.643 17.409,25.406 17.409,41.712l0,138.574c0,32.405 -26.308,58.713 -58.713,58.713l-127.602,0l51.834,-121.737Z" style="fill:#9c3048;"/><path d="M164.022,256l-105.309,-0c-16.306,-0 -31.068,-6.662 -41.712,-17.409l163.342,-163.043c16.746,15.093 32.28,132.453 32.28,132.453l-48.6,48Z" style="fill:#641a29;"/><path d="M180.044,75.547l-163.043,163.043c-10.508,-10.611 -17.001,-25.205 -17.001,-41.304l-0,-105.181l46.493,-46.633c0,0 107.456,7.761 133.551,30.074Z" style="fill:#7c1d3f;"/><circle cx="128" cy="128" r="109" style="fill:#fff;stroke:#0a4f78;stroke-width:14px;"/><g><path d="M56,128c0,20.117 8.27,38.317 21.59,51.386c3.546,3.479 3.6,9.182 0.121,12.727c-3.479,3.546 -9.182,3.6 -12.727,0.121c-16.65,-16.337 -26.983,-39.088 -26.983,-64.234l18,0Z" style="fill:#d2d2d2;"/><path d="M218,128c0,25.254 -10.422,48.094 -27.199,64.445c-3.557,3.467 -9.26,3.394 -12.727,-0.163c-3.467,-3.557 -3.394,-9.26 0.163,-12.727c13.421,-13.081 21.762,-31.351 21.762,-51.555l18,0Z" style="fill:#c30a4e;"/><path d="M91.832,65.743c-21.422,12.48 -35.832,35.699 -35.832,62.257l-18,0c0,-33.369 18.199,-62.52 45.205,-78.062l8.627,15.805Z" style="fill:#0a4f78;"/><path d="M172.795,49.938c27.006,15.542 45.205,44.693 45.205,78.062l-18,-0c0,-26.558 -14.41,-49.777 -35.832,-62.257l8.627,-15.805Z" style="fill:#f7b600;"/><path d="M91.832,65.743l-8.627,-15.805c13.195,-7.594 28.492,-11.938 44.795,-11.938c16.304,0 31.601,4.345 44.795,11.938l-8.627,15.805c-10.631,-6.194 -22.988,-9.743 -36.168,-9.743c-13.18,0 -25.537,3.549 -36.168,9.743Z" style="fill:#00a7c3;"/></g><g><circle cx="128" cy="128" r="18" style="fill:#0a4f78;"/><circle cx="128" cy="128" r="9" style="fill:#feae01;"/><circle cx="160.084" cy="79.084" r="4.084" style="fill:#feae01;"/><path d="M189.527,120.729c1.385,1.778 1.067,4.346 -0.711,5.732c-1.778,1.385 -4.346,1.067 -5.732,-0.711c-1.385,-1.778 -1.067,-4.346 0.711,-5.732c1.778,-1.385 4.346,-1.067 5.732,0.711Z" style="fill:#c30a4e;"/><path d="M173.514,170.034c-0.451,2.209 -2.61,3.636 -4.818,3.185c-2.209,-0.451 -3.636,-2.61 -3.185,-4.818c0.451,-2.209 2.61,-3.636 4.818,-3.185c2.209,0.451 3.636,2.61 3.185,4.818Z" style="fill:#36426d;"/><path d="M85.653,173.223c-2.205,-0.466 -3.618,-2.635 -3.152,-4.84c0.466,-2.205 2.635,-3.618 4.84,-3.152c2.205,0.466 3.618,2.635 3.152,4.84c-0.466,2.205 -2.635,3.618 -4.84,3.152Z" style="fill:#d2d2d2;"/><path d="M66.059,126.714c-1.127,-1.952 -0.457,-4.452 1.495,-5.579c1.952,-1.127 4.452,-0.457 5.579,1.495c1.127,1.952 0.457,4.452 -1.495,5.579c-1.952,1.127 -4.452,0.457 -5.579,-1.495Z" style="fill:#0a4f78;"/><path d="M128,128l0,-78.062" style="fill:none;stroke:#feae01;stroke-width:10px;stroke-linecap:round;"/><path d="M155,189.446l0,14.108c0,2.454 -1.992,4.446 -4.446,4.446l-45.108,0c-2.454,0 -4.446,-1.992 -4.446,-4.446l0,-14.108c0,-2.454 1.992,-4.446 4.446,-4.446l45.108,0c2.454,0 4.446,1.992 4.446,4.446Z" style="fill:#0a4f78;"/></g></g></svg>