<?xml version="1.0" encoding="UTF-8" standalone="no"?><!DOCTYPE svg PUBLIC "-//W3C//DTD SVG 1.1//EN" "http://www.w3.org/Graphics/SVG/1.1/DTD/svg11.dtd"><svg width="100%" height="100%" viewBox="0 0 256 256" version="1.1" xmlns="http://www.w3.org/2000/svg" xmlns:xlink="http://www.w3.org/1999/xlink" xml:space="preserve" xmlns:serif="http://www.serif.com/" style="fill-rule:evenodd;clip-rule:evenodd;stroke-linecap:round;stroke-linejoin:round;"><g id="dialog"><path d="M0,170l0,-111.287c0,-32.405 26.308,-58.713 58.713,-58.713l138.574,0c16.099,0 30.693,6.493 41.304,17.001l-21.591,117.262l-217,35.737Z" style="fill:#005d7c;"/><path d="M130.061,125.531l108.53,-108.53c10.748,10.643 17.409,25.406 17.409,41.712l0,138.574c0,32.405 -26.308,58.713 -58.713,58.713l-92.602,0l25.375,-130.469l0.001,-0Z" style="fill:#004d67;"/><path d="M157.647,256l-98.934,-0c-16.306,0 -31.068,-6.662 -41.712,-17.409l113.367,-113.068c15.099,17.804 85.637,65.477 85.637,65.477l-14.598,14.617l0.195,6.364l-43.956,44.02l0,-0.001Z" style="fill:#004157;"/><path d="M130.368,125.632l-113.367,112.959c-10.508,-10.611 -17.001,-25.205 -17.001,-41.304l0,-108.909l43.826,-44.028c0,0 57.472,60.492 86.542,81.281l0,0.001Z" style="fill:#004e69;"/><path d="M59.868,118.415l-6.772,0c-3.134,0 -6.14,-0.987 -8.356,-2.744c-2.216,-1.757 -3.461,-4.14 -3.461,-6.625l0,-54.846c0,-2.485 1.245,-4.868 3.461,-6.625c2.216,-1.757 5.222,-2.744 8.356,-2.744l101.311,0c3.134,0 6.14,0.987 8.356,2.744c2.216,1.757 3.461,4.14 3.461,6.625l0,54.846c0,2.485 -1.245,4.868 -3.461,6.625c-2.216,1.757 -5.222,2.744 -8.356,2.744l-70.904,0l-23.635,18.738l0,-18.738Z" style="fill:#c1dce8;stroke:#000;stroke-width:8px;"/><path d="M196.132,192.432l6.772,0c3.134,0 6.14,-0.987 8.356,-2.744c2.216,-1.757 3.461,-4.14 3.461,-6.625l0,-54.846c0,-2.485 -1.245,-4.868 -3.461,-6.625c-2.216,-1.757 -5.222,-2.744 -8.356,-2.744l-101.311,0c-3.134,0 -6.14,0.987 -8.356,2.744c-2.216,1.757 -3.461,4.14 -3.461,6.625l0,54.846c0,2.485 1.245,4.868 3.461,6.625c2.216,1.757 5.222,2.744 8.356,2.744l70.904,0l23.635,18.738l0,-18.738Z" style="fill:#6395ac;stroke:#000;stroke-width:8px;"/></g></svg>