<?xml version="1.0" encoding="UTF-8" standalone="no"?><!DOCTYPE svg PUBLIC "-//W3C//DTD SVG 1.1//EN" "http://www.w3.org/Graphics/SVG/1.1/DTD/svg11.dtd"><svg width="100%" height="100%" viewBox="0 0 256 256" version="1.1" xmlns="http://www.w3.org/2000/svg" xmlns:xlink="http://www.w3.org/1999/xlink" xml:space="preserve" xmlns:serif="http://www.serif.com/" style="fill-rule:evenodd;clip-rule:evenodd;stroke-linejoin:round;stroke-miterlimit:2;"><g id="help"><path d="M-0,183.829l0,-125.116c0,-32.405 26.308,-58.713 58.713,-58.713l138.574,0c16.099,0 30.693,6.493 41.304,17.001l-21.591,167.262l-217,-0.434Z" style="fill:#3d89c8;"/><path d="M121.52,134.263l117.071,-117.262c10.748,10.643 17.409,25.406 17.409,41.712l0,138.574c0,32.405 -26.308,58.713 -58.713,58.713l-127.602,0l51.834,-121.737Z" style="fill:#1f4b6f;"/><path d="M85.022,256l-26.309,-0c-16.306,-0 -31.068,-6.662 -41.712,-17.409l123.342,-123.116c16.746,15.093 -3.683,89.526 -3.683,89.526l-51.638,51Z" style="fill:#275e8b;"/><path d="M167.044,88.547l-150.043,150.043c-10.508,-10.611 -17.001,-25.205 -17.001,-41.304l-0,-20.181l124.58,-124.697c0,0 16.369,13.825 42.464,36.138Z" style="fill:#3071a8;"/><path d="M178.017,52.409l-10.187,37.207l-53.374,0l10.63,-37.207l52.931,0Zm-13.51,51.602l-27.683,100.989l-53.817,0l28.126,-100.989l53.374,0Z" style="fill:#fff;fill-opacity:0.75;fill-rule:nonzero;"/></g></svg>