<?xml version="1.0" encoding="UTF-8" standalone="no"?><!DOCTYPE svg PUBLIC "-//W3C//DTD SVG 1.1//EN" "http://www.w3.org/Graphics/SVG/1.1/DTD/svg11.dtd"><svg width="100%" height="100%" viewBox="0 0 256 256" version="1.1" xmlns="http://www.w3.org/2000/svg" xmlns:xlink="http://www.w3.org/1999/xlink" xml:space="preserve" xmlns:serif="http://www.serif.com/" style="fill-rule:evenodd;clip-rule:evenodd;stroke-linejoin:round;stroke-miterlimit:2;"><g id="location"><path d="M-0,133.829l0,-75.116c0,-32.405 26.308,-58.713 58.713,-58.713l138.574,0c16.099,0 30.693,6.493 41.304,17.001l-21.591,117.262l-217,-0.434Z" style="fill:#02dbee;"/><path d="M121.52,134.263l117.071,-117.262c10.748,10.643 17.409,25.406 17.409,41.712l0,138.574c0,32.405 -26.308,58.713 -58.713,58.713l-124.52,-0l48.752,-121.737Z" style="fill:#03b7d0;"/><path d="M83,256l-24.287,-0c-16.306,-0 -31.068,-6.662 -41.712,-17.409l104.519,-104.328l7.014,76.766l-45.534,44.971Z" style="fill:#00739c;"/><path d="M121.52,134.072l-104.519,104.519c-10.508,-10.611 -17.001,-25.205 -17.001,-41.304l0,-73.181l87.781,-88.277l33.739,98.243Z" style="fill:#008db0;"/><path d="M128,19.971c33.266,0 60.274,27.008 60.274,60.274c0,33.266 -49.281,130.784 -60.274,130.784c-10.993,0 -60.274,-97.517 -60.274,-130.784c0,-33.266 27.008,-60.274 60.274,-60.274Z" style="fill:#ba2100;"/><circle cx="128" cy="81.383" r="31.843" style="fill:#801700;"/></g></svg>