<?xml version="1.0" encoding="UTF-8" standalone="no"?><!DOCTYPE svg PUBLIC "-//W3C//DTD SVG 1.1//EN" "http://www.w3.org/Graphics/SVG/1.1/DTD/svg11.dtd"><svg width="100%" height="100%" viewBox="0 0 256 256" version="1.1" xmlns="http://www.w3.org/2000/svg" xmlns:xlink="http://www.w3.org/1999/xlink" xml:space="preserve" xmlns:serif="http://www.serif.com/" style="fill-rule:evenodd;clip-rule:evenodd;stroke-linejoin:round;stroke-miterlimit:2;"><g id="map"><path d="M-0,133.829l0,-75.116c0,-32.405 26.308,-58.713 58.713,-58.713l138.574,0c16.099,0 30.693,6.493 41.304,17.001l-21.591,117.262l-217,-0.434Z" style="fill:#6dd72c;"/><path d="M121.52,134.263l117.071,-117.262c10.748,10.643 17.409,25.406 17.409,41.712l0,138.574c0,32.405 -26.308,58.713 -58.713,58.713l-92.602,-0l16.834,-121.737Z" style="fill:#57b227;"/><path d="M146,256l-87.287,-0c-16.306,-0 -31.068,-6.662 -41.712,-17.409l104.519,-104.328l92.48,54.577l-68,67.16Z" style="fill:#22711e;"/><path d="M121.52,134.072l-104.519,104.519c-10.508,-10.611 -17.001,-25.205 -17.001,-41.304l-0,-75.181l49,-49.277l72.52,61.243Z" style="fill:#3e8e1b;"/><g><path d="M82.467,86.156l44.693,-13.036c0.549,-0.16 1.131,-0.16 1.68,-0l47.007,13.71l34.039,-13.616c0.924,-0.37 1.972,-0.257 2.796,0.301c0.824,0.558 1.318,1.489 1.318,2.484l0,112c0,1.227 -0.747,2.33 -1.886,2.785l-35,14c-0.623,0.249 -1.311,0.282 -1.954,0.095l-47.16,-13.755l-45.16,13.172c-0.273,0.08 -0.556,0.12 -0.84,0.12l-0.225,-0.225c-0.305,-0.023 -0.605,-0.092 -0.889,-0.206l-33,-13.2c-1.139,-0.456 -1.886,-1.559 -1.886,-2.785l0,-112c0,-0.995 0.494,-1.926 1.318,-2.484c0.824,-0.558 1.872,-0.671 2.796,-0.301l32.352,12.941Zm-0.467,115.044l0,0.217l46,-13.417l48,14l35,-14l0,-112l-35,14l-48,-14l-46,13.417l0,-0.217l-33,-13.2l0,112l33,13.2Z" style="fill:#fff;"/><path d="M211,117l0,-41l-35,14l0,65c7.398,-21.991 21.349,-35.132 34.992,-37.992l0.008,-0.008Z" style="fill:#045479;"/><path d="M128,155l0,-79l48,14l-0,65c0,0 -16.021,-4.432 -29,-8c-12.979,-3.568 -19,8 -19,8Z" style="fill:#5c97c1;"/><path d="M128,155l-0,-79l-46,13.417l0,85.583c7.906,4.961 20.878,3.759 28,-1c7.122,-4.759 18,-19 18,-19Z" style="fill:#045479;"/><path d="M56.807,191.123l-7.807,-3.123l0,-112l33,13.2l0,85.8c-7.076,-4.44 -26.791,14.09 -25.181,16.121l-0.013,0.001Z" style="fill:#5c97c1;"/><path d="M176,155l0,47l35,-14l0,-71l-0.008,0.008c-13.643,2.86 -27.594,16.001 -34.992,37.992Z" style="fill:#6f96b3;"/><path d="M128,188l0,-33c0,0 6.021,-11.568 19,-8c12.979,3.568 29,8 29,8l0,47l-48,-14Z" style="fill:#9ec1d7;"/><path d="M82,175l0,26.417l46,-13.417l0,-33c0,0 -10.878,14.241 -18,19c-7.122,4.759 -20.094,5.961 -28,1Z" style="fill:#6294ab;"/><path d="M56.807,191.123l0.013,-0.001c-1.61,-2.032 18.105,-20.561 25.181,-16.121l0,26.2l-25.193,-10.077Z" style="fill:#a8c0e2;"/></g><path d="M154.5,43.096c14.626,0 26.5,11.874 26.5,26.5c0,14.626 -21.667,57.5 -26.5,57.5c-4.833,0 -26.5,-42.874 -26.5,-57.5c0,-14.626 11.874,-26.5 26.5,-26.5Z" style="fill:#ba2100;"/><circle cx="154.5" cy="70.096" r="14" style="fill:#801700;"/></g></svg>