<?xml version="1.0" encoding="UTF-8" standalone="no"?><!DOCTYPE svg PUBLIC "-//W3C//DTD SVG 1.1//EN" "http://www.w3.org/Graphics/SVG/1.1/DTD/svg11.dtd"><svg width="100%" height="100%" viewBox="0 0 256 256" version="1.1" xmlns="http://www.w3.org/2000/svg" xmlns:xlink="http://www.w3.org/1999/xlink" xml:space="preserve" xmlns:serif="http://www.serif.com/" style="fill-rule:evenodd;clip-rule:evenodd;stroke-linejoin:round;stroke-miterlimit:2;"><g id="dialog"><path d="M0,170l0,-111.287c0,-32.405 26.308,-58.713 58.713,-58.713l138.574,0c16.099,0 30.693,6.493 41.304,17.001l-21.591,117.262l-217,35.737Z" style="fill:#7c006a;"/><path d="M130.061,125.531l108.53,-108.53c10.748,10.643 17.409,25.406 17.409,41.712l0,138.574c0,32.405 -26.308,58.713 -58.713,58.713l-92.602,0l25.375,-130.469l0.001,0Z" style="fill:#670058;"/><path d="M157.647,256l-98.934,0c-16.306,0 -31.068,-6.662 -41.712,-17.409l113.367,-113.068l13.632,14.477l51,-51c13.454,20.932 25.378,43.022 30,68l-89,99.001l21.647,-0.001Z" style="fill:#57004a;"/><path d="M130.368,125.632l-113.367,112.959c-10.508,-10.611 -17.001,-25.205 -17.001,-41.304l0,-63.287l79.798,-80l72.202,-8l0.999,57l-22.631,22.632Z" style="fill:#69005a;"/><g><path d="M150.054,53.495c-8.136,2.634 -61.397,12.93 -64.456,15.002l0,77.539c0.008,0.081 0,0.171 0,0.252l0,0.309c0,0.041 -0.016,0.073 -0.025,0.114c0.049,3.348 -0.846,6.752 -2.75,10.043c-4.003,6.915 -11.961,12.53 -21.293,15.025c-9.332,2.478 -19.031,1.568 -25.956,-2.438c-4.646,-2.69 -7.746,-6.541 -8.982,-11.14c-0,-0.008 -0.008,-0.016 -0.016,-0.025c-1.237,-4.607 -0.472,-9.499 2.221,-14.147c4.003,-6.923 11.969,-12.534 21.309,-15.028c9.324,-2.478 19.023,-1.568 25.947,2.438c1.17,0.67 2.274,1.449 3.296,2.328l0,-79.424c-0,-2.537 1.461,-2.757 2.815,-3.104c5.798,-1.487 55.604,-9.823 69.252,-14.758c0.13,-0.101 3.989,-1.91 4.103,2.232c0.35,12.733 0.008,82.002 0,82.043c0.049,3.348 -0.086,6.93 -1.99,10.221c-4.003,6.915 -11.961,12.53 -21.293,15.025c-9.332,2.478 -19.031,1.568 -25.956,-2.438c-4.646,-2.69 -7.746,-6.541 -8.982,-11.14c-0,-0.008 -0.008,-0.016 -0.016,-0.025c-1.237,-4.607 -0.472,-9.499 2.221,-14.147c4.003,-6.923 11.969,-12.534 21.309,-15.028c9.324,-2.478 19.023,-1.568 25.947,2.438c1.17,0.67 2.274,1.449 3.296,2.328l0,-54.493Z" style="fill:#3aacff;"/><path d="M211.55,104.674c-5.948,-5.038 -11.562,-9.799 -11.969,-13.87c-0.017,-0.155 -0.098,-0.285 -0.13,-0.439c-0.057,-0.203 -0.097,-0.407 -0.187,-0.593c-0.09,-0.187 -0.212,-0.333 -0.334,-0.496c-0.122,-0.163 -0.228,-0.317 -0.374,-0.447c-0.155,-0.138 -0.326,-0.235 -0.497,-0.341c-0.171,-0.097 -0.325,-0.203 -0.512,-0.276c-0.195,-0.073 -0.407,-0.089 -0.619,-0.122c-0.155,-0.025 -0.293,-0.089 -0.455,-0.089c-0.057,0 -0.098,0.025 -0.155,0.032c-0.049,0 -0.097,-0.024 -0.155,-0.016c-0.155,0.016 -0.284,0.098 -0.431,0.13c-0.212,0.057 -0.415,0.097 -0.61,0.187c-0.179,0.089 -0.325,0.203 -0.48,0.325c-0.163,0.122 -0.325,0.236 -0.464,0.39c-0.13,0.138 -0.22,0.309 -0.325,0.471c-0.106,0.178 -0.22,0.341 -0.285,0.536c-0.073,0.195 -0.09,0.39 -0.122,0.593c-0.025,0.163 -0.097,0.301 -0.097,0.471l0,61.483c-1.022,-0.879 -2.126,-1.658 -3.296,-2.328c-6.924,-4.006 -16.623,-4.916 -25.947,-2.438c-9.341,2.495 -17.306,8.106 -21.309,15.028c-2.693,4.648 -3.458,9.54 -2.221,14.147c0.008,0.008 0.016,0.016 0.016,0.025c1.237,4.599 4.337,8.451 8.982,11.14c6.924,4.006 16.623,4.916 25.956,2.438c9.332,-2.495 17.29,-8.11 21.293,-15.025c1.904,-3.291 2.799,-6.695 2.75,-10.043c0.008,-0.041 0.025,-0.073 0.025,-0.114l0,-0.309c0,-0.081 0.008,-0.171 0,-0.252l0,-35.936c3.059,-2.072 6.086,-2.032 9.43,0.122c7.843,5.038 13.621,19.55 12.262,24.487c-0.016,0.073 0,0.138 -0.016,0.211c-0.041,0.203 -0.041,0.406 -0.041,0.61c0,0.203 0,0.398 0.032,0.593c0.041,0.195 0.122,0.374 0.195,0.56c0.073,0.187 0.138,0.358 0.244,0.528c0.114,0.162 0.252,0.3 0.39,0.447c0.147,0.154 0.285,0.292 0.456,0.414c0.057,0.041 0.098,0.106 0.155,0.138c0.13,0.081 0.277,0.089 0.407,0.146c0.13,0.057 0.228,0.146 0.366,0.187c0.065,0.016 0.13,0 0.203,0.008c0.212,0.049 0.423,0.049 0.643,0.049c0.195,0 0.382,0 0.57,-0.033c0.195,-0.04 0.375,-0.114 0.562,-0.187c0.187,-0.081 0.366,-0.146 0.537,-0.252c0.163,-0.106 0.293,-0.244 0.44,-0.382c0.155,-0.146 0.301,-0.285 0.423,-0.463c0.041,-0.057 0.106,-0.089 0.138,-0.154c15.126,-25.389 -2.538,-40.357 -15.443,-51.294Z" style="fill:#35a6f9;fill-rule:nonzero;"/><path d="M225.854,142.703c-2.53,-7.273 -7.469,-15.057 -13.45,-18.893c-4.239,-2.73 -8.641,-3.291 -12.807,-1.803l0,-19.689c2.286,2.332 5.012,4.656 7.908,7.11c10.781,9.133 21.814,18.543 18.348,33.275Z" style="fill:#f4ce73;fill-rule:nonzero;"/><path d="M172.918,176.534c-6.534,2.56 -12.457,1.316 -15.541,-0.512c-1.627,-0.967 -2.669,-2.194 -2.807,-3.275c-0.147,-1.138 -1.188,-1.95 -2.327,-1.804c-1.139,0.138 -1.953,1.179 -1.806,2.316c0.301,2.421 2.01,4.672 4.809,6.338c4.084,2.422 11.269,3.909 19.194,0.813c1.074,-0.422 1.603,-1.625 1.18,-2.698c-0.423,-1.064 -1.627,-1.592 -2.701,-1.178Z" style="fill:#fff;fill-rule:nonzero;"/><path d="M58.918,159.608c-6.534,2.56 -12.457,1.316 -15.541,-0.512c-1.627,-0.967 -2.669,-2.194 -2.807,-3.275c-0.147,-1.138 -1.188,-1.95 -2.327,-1.804c-1.139,0.138 -1.953,1.179 -1.806,2.316c0.301,2.421 2.01,4.672 4.809,6.338c4.084,2.422 11.269,3.909 19.194,0.813c1.074,-0.422 1.603,-1.625 1.18,-2.698c-0.423,-1.064 -1.627,-1.592 -2.701,-1.178Z" style="fill:#fff;fill-rule:nonzero;"/><path d="M129.623,134.608c-6.534,2.56 -12.457,1.316 -15.541,-0.512c-1.627,-0.967 -2.669,-2.194 -2.807,-3.275c-0.147,-1.138 -1.188,-1.95 -2.327,-1.804c-1.139,0.138 -1.953,1.179 -1.806,2.316c0.301,2.421 2.01,4.672 4.809,6.338c4.084,2.422 11.269,3.909 19.194,0.813c1.074,-0.422 1.603,-1.625 1.18,-2.698c-0.423,-1.064 -1.627,-1.592 -2.701,-1.178Z" style="fill:#fff;fill-rule:nonzero;"/></g></g></svg>