<?xml version="1.0" encoding="UTF-8" standalone="no"?><!DOCTYPE svg PUBLIC "-//W3C//DTD SVG 1.1//EN" "http://www.w3.org/Graphics/SVG/1.1/DTD/svg11.dtd"><svg width="100%" height="100%" viewBox="0 0 256 256" version="1.1" xmlns="http://www.w3.org/2000/svg" xmlns:xlink="http://www.w3.org/1999/xlink" xml:space="preserve" xmlns:serif="http://www.serif.com/" style="fill-rule:evenodd;clip-rule:evenodd;stroke-linejoin:round;stroke-miterlimit:2;"><g id="notebook"><path d="M-0,183.829l0,-125.116c0,-32.405 26.308,-58.713 58.713,-58.713l138.574,0c16.099,0 30.693,6.493 41.304,17.001l-21.591,167.262l-217,-0.434Z" style="fill:#840;"/><path d="M121.52,134.263l117.071,-117.262c10.748,10.643 17.409,25.406 17.409,41.712l0,138.574c0,32.405 -26.308,58.713 -58.713,58.713l-127.602,0l51.834,-121.737Z" style="fill:#840;"/><path d="M147.91,256l-89.197,-0c-16.306,-0 -31.068,-6.662 -41.712,-17.409l110.999,-181.591l102.508,117.422l-82.598,81.578Z" style="fill:#6c3600;"/><path d="M180.044,75.547l-163.043,163.043c-10.508,-10.611 -17.001,-25.205 -17.001,-41.304l-0,-115.181l46.493,-46.633c0,0 107.456,17.761 133.551,40.074Z" style="fill:#773c00;"/><path d="M217,48.708l0,145.584c0,5.91 -4.798,10.708 -10.708,10.708l-156.584,0c-5.91,0 -10.708,-4.798 -10.708,-10.708l0,-145.584c0,-5.91 4.798,-10.708 10.708,-10.708l156.584,0c5.91,0 10.708,4.798 10.708,10.708Z" style="fill:#462300;"/><g id="note"><path d="M210,37.75l0,14.25l-164,0l0,-14.25c0,-2.622 2.128,-4.75 4.75,-4.75l154.5,0c2.622,0 4.75,2.128 4.75,4.75Z" style="fill:#b36114;"/><path d="M210,193.187l0,-141.187l-164,0l0,140.14c0,2.683 2.178,4.86 4.86,4.86l155.326,0c2.105,0 3.813,-1.709 3.813,-3.813Z" style="fill:#f2f1df;"/><rect x="46" y="52" width="164" height="5" style="fill:#c1c0b2;"/><rect x="46" y="77" width="164" height="5" style="fill:#c1c0b2;"/><rect x="46" y="102" width="164" height="5" style="fill:#c1c0b2;"/><rect x="46" y="127" width="164" height="5" style="fill:#c1c0b2;"/><rect x="46" y="152" width="164" height="5" style="fill:#c1c0b2;"/><rect x="46" y="177" width="164" height="5" style="fill:#c1c0b2;"/></g><g id="pencil"><path d="M155.015,77.504l12.501,0.227l7.071,7.071l-19.092,19.092l-6.348,-6.464l-0.524,-13.534l6.392,-6.392Z" style="fill:#f4d17f;"/><path d="M227.091,175.491l-6.721,-6.721c-0.682,-0.682 -0.682,-1.79 -0,-2.472l16.62,-16.62c0.682,-0.682 1.79,-0.682 2.472,0l6.721,6.721c0.682,0.682 0.682,1.79 0,2.472l-16.62,16.62c-0.682,0.682 -1.79,0.682 -2.472,-0Z" style="fill:#c8dbff;"/><path d="M229.741,152.685l3.536,3.536l6.364,-6.364l-3.536,-3.536l-6.364,6.364Z" style="fill:#717171;"/><path d="M223.377,159.049l3.536,3.536l6.364,-6.364l-3.536,-3.536l-6.364,6.364Z" style="fill:#666;"/><path d="M217.013,165.413l3.536,3.536l6.364,-6.364l-3.536,-3.536l-6.364,6.364Z" style="fill:#515151;"/><path d="M221.256,161.17l-65.054,-65.054l11.667,-11.667l65.054,65.054l-11.667,11.667Z" style="fill:#ce6f18;"/><path d="M167.515,77.732l68.589,68.589l-6.364,6.364l-68.589,-68.589c1.756,1.756 4.608,1.756 6.364,0c1.756,-1.756 1.756,-4.608 0,-6.364Z" style="fill:#ef811c;"/><path d="M161.151,84.095l68.589,68.589l-6.364,6.364l-68.589,-68.589c1.756,1.756 4.608,1.756 6.364,0c1.756,-1.756 1.756,-4.608 0,-6.364Z" style="fill:#ce6f18;"/><path d="M154.787,90.459l68.589,68.589l-6.364,6.364l-67.851,-67.952c1.756,1.756 3.981,0.975 5.625,-0.637c1.773,-1.739 1.756,-4.608 0,-6.364Z" style="fill:#b36114;"/><path d="M148.622,83.897l-0.552,-6.519l6.945,0.126l-6.392,6.392Z" style="fill:#333;"/></g></g></svg>