<?xml version="1.0" encoding="UTF-8" standalone="no"?><!DOCTYPE svg PUBLIC "-//W3C//DTD SVG 1.1//EN" "http://www.w3.org/Graphics/SVG/1.1/DTD/svg11.dtd"><svg width="100%" height="100%" viewBox="0 0 256 256" version="1.1" xmlns="http://www.w3.org/2000/svg" xmlns:xlink="http://www.w3.org/1999/xlink" xml:space="preserve" xmlns:serif="http://www.serif.com/" style="fill-rule:evenodd;clip-rule:evenodd;stroke-linecap:round;stroke-linejoin:round;stroke-miterlimit:1.5;"><g id="persons"><path d="M-0,163.829l0,-105.116c0,-32.405 26.308,-58.713 58.713,-58.713l138.574,0c16.099,0 30.693,6.493 41.304,17.001l-21.591,147.262l-217,-0.434Z" style="fill:#ff7187;"/><path d="M121.52,134.263l117.071,-117.262c10.748,10.643 17.409,25.406 17.409,41.712l0,138.574c0,32.405 -26.308,58.713 -58.713,58.713l-124.52,-0l48.752,-121.737Z" style="fill:#fe4155;"/><path d="M155,256l-96.287,-0c-16.306,-0 -31.068,-6.662 -41.712,-17.409l104.519,-104.328l79.014,76.766l-45.534,44.971Z" style="fill:#c43242;"/><path d="M96.52,159.072l-79.519,79.519c-10.508,-10.611 -17.001,-25.205 -17.001,-41.304l0,-94.181l32.945,-33.131l27.836,74.939l35.739,14.159Z" style="fill:#bb5363;"/><g><path d="M178.909,94.929l0,9.926c0,2.353 -1.91,4.263 -4.263,4.263c-2.353,0 -4.263,-1.91 -4.263,-4.263l0,-9.926c0,-2.353 1.91,-4.263 4.263,-4.263c2.353,0 4.263,1.91 4.263,4.263Z" style="fill:#fff;"/><path d="M241.863,94.929l0,9.926c0,2.353 -1.91,4.263 -4.263,4.263c-2.353,0 -4.263,-1.91 -4.263,-4.263l0,-9.926c0,-2.353 1.91,-4.263 4.263,-4.263c2.353,0 4.263,1.91 4.263,4.263Z" style="fill:#d8e3f5;"/><path d="M213.98,104.029l0,64.896c0,1.756 -1.426,3.182 -3.182,3.182l-9.843,0c-1.756,0 -3.182,-1.426 -3.182,-3.182l0,-64.896c0,-1.756 1.426,-3.182 3.182,-3.182l9.843,0c1.756,0 3.182,1.426 3.182,3.182Z" style="fill:#d8e3f5;"/><path d="M205.876,58.854l0,15.27" style="fill:none;stroke:#dcdbe9;stroke-width:4.5px;"/><path d="M244.591,143.676l0,39.884l-60.643,0c-5.378,0 -9.744,-4.366 -9.744,-9.744l0,-30.139c0,-5.378 4.366,-9.744 9.744,-9.744l50.899,0c5.378,0 9.744,4.366 9.744,9.744Z" style="fill:#fff;"/><path d="M238.043,84.618l0,32.458c0,5.792 -4.702,10.494 -10.494,10.494l-38.146,0c-5.792,0 -10.494,-4.702 -10.494,-10.494l0,-32.458c0,-5.792 4.702,-10.494 10.494,-10.494l38.146,0c5.792,0 10.494,4.702 10.494,10.494Z" style="fill:#d8e3f5;"/><path d="M233.337,84.618l0,32.458c0,5.792 -4.702,10.494 -10.494,10.494l-38.146,0c-5.792,0 -10.494,-4.702 -10.494,-10.494l0,-32.458c0,-5.792 4.702,-10.494 10.494,-10.494l38.146,0c5.792,0 10.494,4.702 10.494,10.494Z" style="fill:#fff;"/><path d="M229.313,94.539l0,12.616c0,4.244 -3.446,7.69 -7.69,7.69l-31.546,0c-4.244,0 -7.69,-3.446 -7.69,-7.69l0,-12.616c0,-4.244 3.446,-7.69 7.69,-7.69l31.546,0c4.244,0 7.69,3.446 7.69,7.69Z" style="fill:#44465d;"/><path d="M210.966,58.854c0,2.809 -2.281,5.09 -5.09,5.09c-2.809,0 -5.09,-2.281 -5.09,-5.09c0,-2.809 2.281,-5.09 5.09,-5.09c2.809,0 5.09,2.281 5.09,5.09Z" style="fill:#f2fef9;"/><path d="M198.46,100.7c0,2.431 -1.973,4.404 -4.404,4.404c-2.431,0 -4.404,-1.973 -4.404,-4.404c0,-2.431 1.973,-4.404 4.404,-4.404c2.431,0 4.404,1.973 4.404,4.404Z" style="fill:#fcb537;"/><path d="M220.831,100.7c0,2.431 -1.973,4.404 -4.404,4.404c-2.431,0 -4.404,-1.973 -4.404,-4.404c0,-2.431 1.973,-4.404 4.404,-4.404c2.431,0 4.404,1.973 4.404,4.404Z" style="fill:#fcb537;"/></g><g id="vrouw"><path d="M60.696,143.792l-6.461,0c-4.029,0 -7.3,-3.271 -7.3,-7.3l0,-7.906c0,-2.989 2.426,-5.415 5.415,-5.415l8.242,0c3.192,0 5.784,2.592 5.784,5.784l0,9.158c0,3.135 -2.545,5.68 -5.68,5.68Z" style="fill:#d1ac82;"/><path d="M75.397,135.194l8.74,0c8.755,0 15.863,7.28 15.863,16.247l0,33.119l-87,0l0,-33.119c0,-8.967 7.108,-16.247 15.863,-16.247l8.574,0c0,10.729 8.505,19.439 18.98,19.439c10.475,0 18.98,-8.71 18.98,-19.439Z" style="fill:#c7094f;"/><path d="M69.906,135.194l5.491,0c0,10.729 -8.505,19.439 -18.98,19.439c-10.475,0 -18.98,-8.71 -18.98,-19.439l5.491,0c0,7.625 6.044,13.815 13.489,13.815c7.445,0 13.489,-6.19 13.489,-13.815Z" style="fill:#ffb600;"/><path d="M69.906,135.194c0,7.625 -6.044,13.815 -13.489,13.815c-7.445,0 -13.489,-6.19 -13.489,-13.815l26.978,0Z" style="fill:#eec79e;"/><path d="M85.481,84.243l0,37.727c0,4.754 -3.86,8.614 -8.614,8.614l-39.177,0c-5.613,0 -10.171,-4.557 -10.171,-10.171l0,-35.018c0,-13.64 11.074,-24.713 24.713,-24.713l9.688,0c13.003,0 23.56,10.557 23.56,23.56Z" style="fill:#084f7b;"/><path d="M85.636,100.033l0,4.956c0,3.09 -2.509,5.599 -5.599,5.599l-48.209,0c-2.293,0 -4.154,-1.861 -4.154,-4.154l0,-6.322c0,-2.448 1.988,-4.436 4.436,-4.436l49.169,0c2.405,0 4.357,1.952 4.357,4.357Z" style="fill:#d1ac82;"/><path d="M80.295,94.761l0,17.725c0,9.989 -8.11,18.098 -18.098,18.098l-10.92,0c-10.586,0 -19.181,-8.595 -19.181,-19.181l0,-16.385c0,-7.914 6.425,-14.339 14.339,-14.339l19.778,0c7.772,0 14.082,6.31 14.082,14.082Z" style="fill:#eac8a2;"/><path d="M83.806,88.258l0,7.419l-17.167,0c-8.29,0 -15.02,-6.73 -15.02,-15.02l0,-1.852c0,-3.104 2.52,-5.624 5.624,-5.624l11.486,0c8.321,0 15.077,6.756 15.077,15.077Z" style="fill:#0a4f78;"/></g><g id="man"><path d="M210.406,200.323c-4.416,-15.937 -6.224,-21.502 -16.502,-30.369c-6.197,-5.346 -25.642,-10.938 -25.642,-10.938c-9.526,-1.762 -13.902,1.405 -15.247,7.473c0,0 0.52,3.317 4.851,5.544c4.331,2.228 6.346,14.759 7.623,22.177c0.863,5.014 3.346,25.126 10.4,24.949c3.256,-0.081 2.576,-0.051 4.14,-0.189c12.766,-1.231 23.815,-8.37 30.376,-18.648Z" style="fill:#ffdc40;"/><path d="M45.594,200.323c5.802,-13.165 8.303,-21.502 16.502,-30.369c5.557,-6.009 25.642,-10.938 25.642,-10.938c9.526,-1.762 13.902,1.405 15.247,7.473c0,0 -0.52,3.317 -4.851,5.544c-4.331,2.228 -6.346,14.759 -7.623,22.177c-1.264,7.342 -13.98,18.64 -14.54,24.76c-12.766,-1.231 -23.815,-8.37 -30.376,-18.648Z" style="fill:#ffdc40;"/><path d="M175.927,219.16c0.109,-6.155 4.041,-29.748 -3.939,-37.701c-7.98,-7.954 -12.117,-11.056 -18.462,-10.812c-6.345,0.244 -10.536,6.034 -45.684,2.079c-4.339,-0.488 -11.936,44.031 -9.76,46.434" style="fill:#ffc838;"/><path d="M78.951,219.161c-2.774,-0.127 -4.855,-0.262 -4.854,-0.403c0.007,-6.718 2.743,-29.509 10.558,-37.299c7.98,-7.954 12.117,-11.056 18.462,-10.812c6.345,0.244 7.821,2.568 7.623,6.93c-0.197,4.362 0.79,21.161 -1.386,23.563c-2.176,2.402 -5.611,12.153 -2.079,18.019" style="fill:#feb333;"/><path d="M97.524,170.598c3.524,3.096 7.614,5.602 11.83,6.98c9.818,3.209 28.415,3.787 38.117,0.693c8.839,-2.818 18.246,-13.504 20.098,-19.255c1.853,-5.751 1.044,-16.154 -13.168,-21.635c-9.092,-3.506 -16.288,-7.331 -26.336,-6.93c-0.917,0.037 -1.877,0.106 -2.869,0.205c10.092,10.976 -6.338,34.568 -13.071,31.675c-7.007,-3.01 -12.502,2.484 -14.602,8.267Z" style="fill:#fee77f;"/><path d="M125.196,130.656c-9.874,0.987 -22.966,4.953 -29.704,9.498c-5.686,3.835 -10.611,11.023 -6.93,18.862c1.924,4.097 5.104,8.193 8.961,11.582c2.1,-5.783 7.595,-11.277 14.602,-8.267c6.733,2.892 23.163,-20.699 13.071,-31.675Z" style="fill:#ffdc40;"/><path d="M146.085,199.755l0,-25.698" style="fill:none;stroke:#fff;stroke-width:10px;"/><path d="M109.353,199.755l0,-25.698" style="fill:none;stroke:#fff;stroke-width:10px;"/><path d="M122.089,126.47c1.87,-1.013 3.882,-1.563 5.976,-1.563c9.945,0 18.019,12.422 18.019,27.722c0,15.3 -8.074,27.722 -18.019,27.722c-4.628,0 -8.85,-2.69 -12.043,-7.108c7.011,-3.796 12.043,-14.08 12.043,-26.158c0,-8.18 -2.308,-15.538 -5.976,-20.614Z" style="fill:#feaa7b;"/><path d="M116.023,173.242c-3.668,-5.076 -5.976,-12.434 -5.976,-20.614c0,-12.078 5.032,-22.362 12.043,-26.158c3.668,5.076 5.976,12.434 5.976,20.614c0,12.078 -5.032,22.362 -12.043,26.158Z" style="fill:#fc945f;"/><path d="M117.475,112.628c-8.449,0.064 -15.182,-0.596 -16.438,-2.275c-3.695,-4.939 -6.134,-10.84 -6.237,-19.405c-0.104,-8.565 0.581,-20.366 7.623,-27.722c4.667,-4.874 4.45,-4.467 11.089,-7.623c2.417,-1.149 6.186,-1.765 5.544,-2.771c-1.466,-2.298 -3.644,-3.46 2.977,-3.466c1.811,-0.002 4.454,0.222 7.48,0.714c0.411,0.603 0.835,1.281 1.325,2.058c2.923,4.638 3.309,8.908 0,11.089c-4.896,3.226 -2.772,9.703 -2.772,9.703c0,0 -4.038,2.342 -6.033,6.237c-1.995,3.895 -0.22,11.118 -2.977,13.168c-2.907,2.162 -2.492,14.325 -1.581,20.294Z" style="fill:#753615;"/><path d="M129.513,50.079c8.038,1.306 18.775,4.5 23.768,10.375c6.873,8.086 8.956,14.461 8.744,20.791c-0.212,6.331 -0.738,19.725 -3.465,24.949c-1.8,3.448 -24.677,6.308 -41.084,6.433c-0.912,-5.969 -1.326,-18.132 1.581,-20.294c2.756,-2.05 0.982,-9.273 2.977,-13.168c1.995,-3.895 6.033,-6.237 6.033,-6.237c0,0 -2.124,-6.477 2.772,-9.703c3.309,-2.181 2.923,-6.45 0,-11.089c-0.49,-0.777 -0.913,-1.456 -1.325,-2.058Z" style="fill:#925330;"/><path d="M103.116,102.036c-3.252,-0.864 -4.081,-4.107 -7.087,-1.786c0,0 -3.655,0.859 -1.922,5.944c1.733,5.085 1.123,6.485 2.079,8.316c0.956,1.831 2.822,5.31 6.237,3.465" style="fill:#fb935e;"/><path d="M153.242,102.036c3.252,-0.864 4.081,-4.107 7.087,-1.786c0,0 3.655,0.859 1.922,5.944c-1.733,5.085 -1.123,6.485 -2.079,8.316c-0.956,1.831 -2.822,5.31 -6.237,3.465" style="fill:#ffa97b;"/><path d="M127.186,72.956c0.297,-0.011 0.59,-0.02 0.879,-0.027l0.022,0c6.986,0.167 16.381,1.502 20.769,5.544c4.393,4.046 5.289,7.75 4.385,10.396c-0.453,1.326 -0.225,2.942 0.1,4.358c0.424,1.848 1.864,5.155 2.446,6.731c1.164,3.153 0.388,5.135 0,7.623c-0.388,2.489 -0.801,7.504 -1.386,12.475c-0.585,4.97 -3.566,7.402 -7.623,13.168c-2.319,3.295 -12.877,4.707 -22.258,4.236c0.022,-0.253 0.048,-0.51 0.08,-0.771l-4.851,-11.089c-2.362,-1.848 -2.533,-5.295 -1.386,-9.703c-1.243,-0.943 -3.095,-20.746 0.693,-23.563c2.756,-2.05 0.982,-9.273 2.977,-13.168c1.413,-2.759 3.852,-5.087 5.154,-6.21Z" style="fill:#ffc7ac;"/><path d="M124.52,137.459c-7.034,-0.353 -13.406,-1.765 -15.145,-4.236c-4.057,-5.766 -7.038,-8.197 -7.623,-13.168c-0.585,-4.97 -0.998,-9.986 -1.386,-12.475c-0.388,-2.489 -1.164,-4.471 0,-7.623c0.582,-1.575 2.021,-4.882 2.446,-6.731c0.325,-1.416 0.553,-3.032 0.1,-4.358c-0.904,-2.646 -0.008,-6.35 4.385,-10.396c4.207,-3.874 13.894,-5.288 20.769,-5.544c-1.302,1.123 -4.62,3.478 -6.033,6.237c-1.995,3.895 -0.22,11.118 -2.977,13.168c-3.788,2.817 -1.936,22.621 -0.693,23.563c-1.146,4.407 -0.976,7.854 1.386,9.703l4.851,11.089c-0.032,0.261 -0.059,0.518 -0.08,0.771Z" style="fill:#feaa7b;"/><path d="M117.994,117.518c3.385,-1.359 7.239,-1.851 8.453,-2.314c0.662,-0.252 1.261,0.183 1.619,1.004c0.358,-0.821 0.957,-1.256 1.619,-1.004c1.651,0.63 8.185,1.313 11.782,4.158c3.428,2.712 5.082,4.375 5.042,8.536c2.994,-1.938 5.679,-4.479 7.962,-6.654c-2.374,13.916 -11.278,25.823 -22.381,28.186l0.134,-0.268c-5.946,-1.616 -8.436,-5.812 -7.623,-12.475l-0.188,-0.429c1.119,-0.674 2.024,-1.748 2.654,-3.08c0.18,-0.389 0.57,-0.639 0.998,-0.639l0,-0.011l0.214,-0.001c0.304,-0.001 0.58,0.179 0.702,0.458c0.903,2.039 2.437,3.508 4.389,3.929c3.468,0.747 7.099,-2.063 8.705,-6.465l-0.609,0c-2.352,-2.818 -3.328,-3.635 -6.93,-4.851c-3.603,-1.216 -4.481,-0.861 -6.237,-4.851c-0.088,-0.201 -0.166,-0.402 -0.233,-0.603c-0.067,0.2 -0.144,0.402 -0.233,0.603c-1.756,3.99 -2.635,3.635 -6.237,4.851c-0.596,0.201 -1.121,0.392 -1.592,0.582l-0.255,-0.582c-2.064,-1.615 -2.455,-4.451 -1.755,-8.081Z" style="fill:#925330;"/><path d="M132.09,149.43c-1.313,0.279 -2.657,0.425 -4.024,0.425c-12.929,0 -23.751,-13.05 -26.405,-28.612c2.283,2.175 4.969,4.715 7.962,6.654c-0.04,-4.161 1.614,-5.824 5.042,-8.536c0.952,-0.753 2.11,-1.355 3.329,-1.844c-0.699,3.63 -0.309,6.466 1.755,8.081l0.255,0.582c-2.372,0.96 -3.376,1.918 -5.339,4.269l-0.609,0c1.606,4.402 5.238,7.213 8.705,6.465c0.591,-0.127 1.143,-0.351 1.652,-0.657l0.188,0.429c-0.813,6.663 1.678,10.859 7.623,12.475l-0.134,0.268Z" style="fill:#73351a;"/></g></g></svg>