<?xml version="1.0" encoding="UTF-8" standalone="no"?><!DOCTYPE svg PUBLIC "-//W3C//DTD SVG 1.1//EN" "http://www.w3.org/Graphics/SVG/1.1/DTD/svg11.dtd"><svg width="100%" height="100%" viewBox="0 0 256 256" version="1.1" xmlns="http://www.w3.org/2000/svg" xmlns:xlink="http://www.w3.org/1999/xlink" xml:space="preserve" xmlns:serif="http://www.serif.com/" style="fill-rule:evenodd;clip-rule:evenodd;stroke-linecap:round;stroke-linejoin:round;stroke-miterlimit:1.5;"><g id="persons"><path d="M-0,133.829l0,-75.116c0,-32.405 26.308,-58.713 58.713,-58.713l138.574,0c16.099,0 30.693,6.493 41.304,17.001l-21.591,117.262l-217,-0.434Z" style="fill:#ff7187;"/><path d="M121.52,134.263l117.071,-117.262c10.748,10.643 17.409,25.406 17.409,41.712l0,138.574c0,32.405 -26.308,58.713 -58.713,58.713l-124.52,-0l48.752,-121.737Z" style="fill:#fe4155;"/><path d="M83,256l-24.287,-0c-16.306,-0 -31.068,-6.662 -41.712,-17.409l104.519,-104.328l7.014,76.766l-45.534,44.971Z" style="fill:#d9576b;"/><path d="M121.52,134.072l-104.519,104.519c-10.508,-10.611 -17.001,-25.205 -17.001,-41.304l0,-73.181l87.781,-88.277l33.739,98.243Z" style="fill:#df5f6c;"/><g><path d="M246.811,228.82c-6.372,-22.996 -8.98,-31.026 -23.811,-43.82c-8.942,-7.714 -37,-15.783 -37,-15.783c-13.745,-2.542 -20.059,2.028 -22,10.783c0,0 0.75,4.786 7,8c6.25,3.214 9.157,21.296 11,32c1.246,7.235 4.828,36.255 15.007,36c4.697,-0.117 3.717,-0.073 5.974,-0.273c18.42,-1.776 34.363,-12.078 43.83,-26.907Z" style="fill:#ffdc40;"/><path d="M9,228.82c8.372,-18.996 11.98,-31.026 23.811,-43.82c8.018,-8.671 37,-15.783 37,-15.783c13.745,-2.542 20.059,2.028 22,10.783c0,0 -0.75,4.786 -7,8c-6.25,3.214 -9.157,21.296 -11,32c-1.824,10.594 -20.172,26.896 -20.981,35.727c-18.42,-1.776 -34.363,-12.078 -43.83,-26.907Z" style="fill:#ffdc40;"/><path d="M197.06,256c0.157,-8.881 5.83,-42.923 -5.684,-54.4c-11.514,-11.476 -17.484,-15.952 -26.639,-15.6c-9.155,0.352 -15.202,8.706 -65.918,3c-6.261,-0.704 -17.222,63.534 -14.082,67" style="fill:#ffc838;"/><path d="M57.131,256.002c-4.003,-0.183 -7.005,-0.378 -7.005,-0.582c0.01,-9.693 3.957,-42.579 15.234,-53.82c11.514,-11.476 17.484,-15.952 26.639,-15.6c9.155,0.352 11.284,3.706 11,10c-0.284,6.294 1.14,30.534 -2,34c-3.14,3.466 -8.096,17.536 -3,26" style="fill:#feb333;"/><path d="M83.931,185.929c5.085,4.467 10.987,8.083 17.069,10.071c14.167,4.631 41,5.464 55,1c12.754,-4.067 26.327,-19.485 29,-27.783c2.673,-8.298 1.507,-23.309 -19,-31.217c-13.119,-5.059 -23.502,-10.578 -38,-10c-1.324,0.053 -2.708,0.152 -4.14,0.295c14.562,15.838 -9.145,49.878 -18.86,45.705c-10.11,-4.343 -18.039,3.584 -21.069,11.929Z" style="fill:#fee77f;"/><path d="M123.86,128.295c-14.247,1.424 -33.138,7.147 -42.86,13.705c-8.204,5.534 -15.311,15.905 -10,27.217c2.776,5.912 7.364,11.822 12.931,16.712c3.03,-8.345 10.959,-16.272 21.069,-11.929c9.715,4.174 33.422,-29.867 18.86,-45.705Z" style="fill:#ffdc40;"/><path d="M154,228l0,-37.08" style="fill:none;stroke:#fff;stroke-width:10px;"/><path d="M101,228l0,-37.08" style="fill:none;stroke:#fff;stroke-width:10px;"/><path d="M119.377,122.256c2.699,-1.461 5.601,-2.256 8.623,-2.256c14.35,0 26,17.923 26,40c0,22.077 -11.65,40 -26,40c-6.678,0 -12.771,-3.881 -17.377,-10.256c10.117,-5.477 17.377,-20.317 17.377,-37.744c0,-11.803 -3.33,-22.42 -8.623,-29.744Z" style="fill:#feaa7b;"/><path d="M110.623,189.744c-5.293,-7.324 -8.623,-17.941 -8.623,-29.744c0,-17.428 7.26,-32.267 17.377,-37.744c5.293,7.324 8.623,17.941 8.623,29.744c0,17.428 -7.26,32.267 -17.377,37.744Z" style="fill:#fc945f;"/><path d="M112.719,102.283c-12.191,0.093 -21.907,-0.86 -23.719,-3.283c-5.331,-7.127 -8.851,-15.642 -9,-28c-0.149,-12.358 0.839,-29.387 11,-40c6.734,-7.033 6.421,-6.445 16,-11c3.488,-1.658 8.926,-2.547 8,-3.999c-2.115,-3.315 -5.258,-4.993 4.295,-5.001c2.613,-0.002 6.427,0.321 10.793,1.03c0.593,0.87 1.205,1.848 1.912,2.97c4.218,6.693 4.775,12.854 0,16c-7.065,4.655 -4,14 -4,14c0,0 -5.827,3.38 -8.705,9c-2.878,5.62 -0.318,16.042 -4.295,19c-4.195,3.119 -3.596,20.67 -2.281,29.283Z" style="fill:#753615;"/><path d="M130.088,12.03c11.598,1.884 27.09,6.494 34.295,14.97c9.917,11.667 12.923,20.865 12.616,30c-0.306,9.135 -1.065,28.462 -5,36c-2.597,4.976 -35.607,9.102 -59.281,9.283c-1.316,-8.612 -1.914,-26.164 2.281,-29.283c3.977,-2.958 1.417,-13.38 4.295,-19c2.878,-5.62 8.705,-9 8.705,-9c0,0 -3.065,-9.345 4,-14c4.775,-3.146 4.218,-9.307 0,-16c-0.707,-1.122 -1.318,-2.101 -1.912,-2.97Z" style="fill:#925330;"/><path d="M92,87c-4.692,-1.246 -5.888,-5.926 -10.226,-2.576c0,0 -5.274,1.24 -2.774,8.576c2.5,7.337 1.621,9.358 3,12c1.379,2.642 4.071,7.662 9,5" style="fill:#fb935e;"/><path d="M164.327,87c4.692,-1.246 5.888,-5.926 10.226,-2.576c0,0 5.274,1.24 2.774,8.576c-2.5,7.337 -1.621,9.358 -3,12c-1.379,2.642 -4.071,7.662 -9,5" style="fill:#ffa97b;"/><path d="M126.732,45.039c0.428,-0.016 0.851,-0.029 1.268,-0.039l0.031,0c10.08,0.242 23.636,2.168 29.969,8c6.339,5.838 7.632,11.182 6.327,15c-0.654,1.913 -0.325,4.245 0.144,6.288c0.612,2.667 2.69,7.439 3.529,9.712c1.68,4.549 0.56,7.409 0,11c-0.56,3.591 -1.156,10.828 -2,18c-0.844,7.172 -5.146,10.68 -11,19c-3.346,4.754 -18.58,6.792 -32.116,6.112c0.031,-0.365 0.07,-0.736 0.116,-1.112l-7,-16c-3.408,-2.667 -3.654,-7.641 -2,-14c-1.793,-1.36 -4.466,-29.935 1,-34c3.977,-2.958 1.417,-13.38 4.295,-19c2.039,-3.981 5.558,-7.341 7.436,-8.961Z" style="fill:#ffc7ac;"/><path d="M122.884,138.112c-10.15,-0.51 -19.344,-2.547 -21.853,-6.112c-5.854,-8.32 -10.156,-11.828 -11,-19c-0.844,-7.172 -1.44,-14.409 -2,-18c-0.56,-3.591 -1.68,-6.451 0,-11c0.839,-2.273 2.917,-7.045 3.529,-9.712c0.469,-2.044 0.798,-4.375 0.144,-6.288c-1.305,-3.818 -0.012,-9.162 6.327,-15c6.07,-5.59 20.047,-7.631 29.969,-8c-1.879,1.62 -6.666,5.018 -8.705,9c-2.878,5.62 -0.318,16.042 -4.295,19c-5.466,4.065 -2.793,32.64 -1,34c-1.654,6.359 -1.408,11.333 2,14l7,16c-0.046,0.376 -0.084,0.747 -0.116,1.112Z" style="fill:#feaa7b;"/><path d="M113.467,109.339c4.884,-1.961 10.445,-2.671 12.197,-3.339c0.955,-0.364 1.819,0.264 2.336,1.449c0.517,-1.185 1.381,-1.813 2.336,-1.449c2.382,0.908 11.811,1.895 17,6c4.947,3.913 7.333,6.312 7.276,12.316c4.32,-2.797 8.194,-6.463 11.489,-9.601c-3.425,20.079 -16.274,37.261 -32.294,40.671l0.193,-0.386c-8.579,-2.331 -12.173,-8.386 -11,-18l-0.271,-0.619c1.614,-0.972 2.921,-2.522 3.829,-4.445c0.26,-0.562 0.822,-0.921 1.441,-0.921l0.001,-0.015l0.308,-0.001c0.439,-0.002 0.837,0.258 1.013,0.66c1.302,2.942 3.517,5.062 6.333,5.669c5.004,1.078 10.244,-2.977 12.561,-9.329l-0.879,0c-3.394,-4.066 -4.802,-5.245 -10,-7c-5.198,-1.755 -6.466,-1.242 -9,-7c-0.128,-0.29 -0.239,-0.58 -0.336,-0.87c-0.097,0.289 -0.208,0.58 -0.336,0.87c-2.534,5.758 -3.802,5.245 -9,7c-0.861,0.291 -1.617,0.565 -2.297,0.84l-0.368,-0.84c-2.978,-2.331 -3.542,-6.422 -2.533,-11.661Z" style="fill:#925330;"/><path d="M133.807,155.386c-1.895,0.403 -3.834,0.614 -5.807,0.614c-18.656,0 -34.27,-18.831 -38.101,-41.285c3.295,3.138 7.169,6.804 11.489,9.601c-0.058,-6.004 2.329,-8.403 7.276,-12.316c1.374,-1.087 3.044,-1.955 4.803,-2.661c-1.009,5.239 -0.445,9.33 2.533,11.661l0.368,0.84c-3.422,1.384 -4.871,2.767 -7.703,6.16l-0.879,0c2.317,6.352 7.557,10.407 12.561,9.329c0.852,-0.184 1.65,-0.506 2.383,-0.948l0.271,0.619c-1.173,9.614 2.421,15.669 11,18l-0.193,0.386Z" style="fill:#73351a;"/></g></g></svg>