<?xml version="1.0" encoding="UTF-8" standalone="no"?><!DOCTYPE svg PUBLIC "-//W3C//DTD SVG 1.1//EN" "http://www.w3.org/Graphics/SVG/1.1/DTD/svg11.dtd"><svg width="100%" height="100%" viewBox="0 0 256 256" version="1.1" xmlns="http://www.w3.org/2000/svg" xmlns:xlink="http://www.w3.org/1999/xlink" xml:space="preserve" xmlns:serif="http://www.serif.com/" style="fill-rule:evenodd;clip-rule:evenodd;stroke-linejoin:round;stroke-miterlimit:2;"><g id="scene"><path d="M-0,133.829l0,-75.116c0,-32.405 26.308,-58.713 58.713,-58.713l138.574,0c16.099,0 30.693,6.493 41.304,17.001l-21.591,117.262l-217,-0.434Z" style="fill:#fed891;"/><path d="M130.061,125.531l108.53,-108.53c10.748,10.643 17.409,25.406 17.409,41.712l0,138.574c0,32.405 -26.308,58.713 -58.713,58.713l-92.602,-0l25.375,-130.469Z" style="fill:#dab171;"/><path d="M144.21,256l-85.497,0c-16.306,-0 -31.068,-6.662 -41.712,-17.409l21.999,-119.591l178,74l-72.79,63Z" style="fill:#9b6630;"/><path d="M121.52,134.072l-104.519,104.519c-10.508,-10.611 -17.001,-25.205 -17.001,-41.304l0,-105.181l39,-39.277l82.52,81.243Z" style="fill:#bf834d;"/><path d="M82.592,193l-43.592,-0l0,-112l155.592,0l-112,112Z" style="fill:#140911;"/><path d="M174.592,81l42.408,0l0,112l-154.408,0l112,-112Z" style="fill:#291f27;"/><rect x="39" y="52.829" width="178" height="30.171" style="fill:#130911;"/><g><path d="M202.704,54.915l8.592,11l-18,0l-8.592,-11l18,0Z" style="fill:#fff;"/><path d="M174.704,54.915l8.592,11l-18,0l-8.592,-11l18,0Z" style="fill:#fff;"/><path d="M146.704,54.915l8.592,11l-18,0l-8.592,-11l18,0Z" style="fill:#fff;"/><path d="M118.704,54.915l8.592,11l-18,0l-8.592,-11l18,0Z" style="fill:#fff;"/><path d="M90.704,54.915l8.592,11l-18,0l-8.592,-11l18,0Z" style="fill:#fff;"/><path d="M62.704,54.915l8.592,11l-18,0l-8.592,-11l18,0Z" style="fill:#fff;"/></g><g><path d="M202.704,79.915l8.592,-11l-18,0l-8.592,11l18,0Z" style="fill:#fff;"/><path d="M174.704,79.915l8.592,-11l-18,0l-8.592,11l18,0Z" style="fill:#fff;"/><path d="M146.704,79.915l8.592,-11l-18,0l-8.592,11l18,0Z" style="fill:#fff;"/><path d="M118.704,79.915l8.592,-11l-18,0l-8.592,11l18,0Z" style="fill:#fff;"/><path d="M90.704,79.915l8.592,-11l-18,0l-8.592,11l18,0Z" style="fill:#fff;"/><path d="M62.704,79.915l8.592,-11l-18,0l-8.592,11l18,0Z" style="fill:#fff;"/></g></g></svg>