<?xml version="1.0" encoding="UTF-8" standalone="no"?><!DOCTYPE svg PUBLIC "-//W3C//DTD SVG 1.1//EN" "http://www.w3.org/Graphics/SVG/1.1/DTD/svg11.dtd"><svg width="100%" height="100%" viewBox="0 0 256 256" version="1.1" xmlns="http://www.w3.org/2000/svg" xmlns:xlink="http://www.w3.org/1999/xlink" xml:space="preserve" xmlns:serif="http://www.serif.com/" style="fill-rule:evenodd;clip-rule:evenodd;stroke-linejoin:round;stroke-miterlimit:2;"><g id="sound"><path d="M0,170l0,-111.287c0,-32.405 26.308,-58.713 58.713,-58.713l138.574,0c16.099,0 30.693,6.493 41.304,17.001l-21.591,117.262l-217,35.737Z" style="fill:#7c1700;"/><path d="M130.061,125.531l108.53,-108.53c10.748,10.643 17.409,25.406 17.409,41.712l0,138.574c0,32.405 -26.308,58.713 -58.713,58.713l-92.602,0l25.375,-130.469l0.001,0Z" style="fill:#671300;stroke:#671300;stroke-width:1px;"/><path d="M157.647,256l-98.934,0c-16.306,0 -31.068,-6.662 -41.712,-17.409l113.367,-113.068l13.632,14.477l51,-51c13.454,20.932 25.378,43.022 30,68l-89,99.001l21.647,-0.001Z" style="fill:#571000;stroke:#571000;stroke-width:1px;"/><path d="M194,62l-176.999,176.591c-10.508,-10.611 -17.001,-25.205 -17.001,-41.304l0,-73.287l90.798,-91c41.1,-2.08 75.937,6.821 103.202,29Z" style="fill:#691300;stroke:#691300;stroke-width:1px;"/><path d="M65,65l122.983,122.983l-81.983,7.017l-26,26l-47,-49l25,-23l7,-84Z" style="fill:#ffdd68;stroke:#ffdd68;stroke-width:8px;stroke-linecap:round;stroke-miterlimit:1.5;"/><circle cx="126" cy="127" r="17" style="fill:#ffdd68;"/><path d="M97,37c75,-15 136,35 119.386,119.386" style="fill:none;stroke:#ffcc1d;stroke-width:15px;stroke-linecap:round;stroke-miterlimit:1.5;"/><path d="M103,61.758c53.028,-13.417 102.983,27.04 89,87.242" style="fill:none;stroke:#ffcf2a;stroke-width:15px;stroke-linecap:round;stroke-miterlimit:1.5;"/><path d="M112.015,86.211c36.304,-7.261 63.027,15.942 54.985,56.789" style="fill:none;stroke:#ffdd68;stroke-width:15px;stroke-linecap:round;stroke-miterlimit:1.5;"/></g></svg>