<?xml version="1.0" encoding="UTF-8" standalone="no"?><!DOCTYPE svg PUBLIC "-//W3C//DTD SVG 1.1//EN" "http://www.w3.org/Graphics/SVG/1.1/DTD/svg11.dtd"><svg width="100%" height="100%" viewBox="0 0 256 256" version="1.1" xmlns="http://www.w3.org/2000/svg" xmlns:xlink="http://www.w3.org/1999/xlink" xml:space="preserve" xmlns:serif="http://www.serif.com/" style="fill-rule:evenodd;clip-rule:evenodd;stroke-linecap:round;stroke-linejoin:round;stroke-miterlimit:1.5;"><g id="scene"><path d="M-0,197.287l0,-138.574c0,-32.405 26.308,-58.713 58.713,-58.713l138.574,0c16.099,0 30.693,6.493 41.304,17.001l-65.429,147.201l-156.161,74.388c-10.508,-10.611 -17.001,-25.205 -17.001,-41.304Z" style="fill:#fed891;"/><path d="M197.287,256l-138.574,-0c-16.306,-0 -31.068,-6.662 -41.712,-17.409l112.981,-112.653l0.079,-0.406l108.53,-108.53c10.748,10.643 17.409,25.406 17.409,41.712l0,138.574c0,32.405 -26.308,58.713 -58.713,58.713Z" style="fill:#dab171;"/><path d="M110.57,256l-51.858,0c-16.202,-0 -30.88,-6.577 -41.508,-17.205l110.795,-110.795l107.17,6.263l-45.355,42.935l-4.252,5.919l-51.062,48.337l-1.022,2.861l-22.908,21.685Z" style="fill:#c39e65;"/><path d="M110.57,256l-51.858,0c-16.202,-0 -31.084,-6.782 -41.712,-17.409l110.999,-110.591l5.478,106.315l-22.908,21.685Z" style="fill:#a08153;"/><path d="M128,128l-110.999,110.591c-10.508,-10.611 -17.001,-25.205 -17.001,-41.304l-0,-54.012l119.295,-119.555l8.705,104.279Z" style="fill:#cdae75;"/><path d="M128.187,127.8l-111.186,110.791c-10.508,-10.611 -17.001,-25.205 -17.001,-41.304l-0,-54.012l22.007,-22.055l106.18,6.58Z" style="fill:#ac9262;"/><g><circle cx="128" cy="128" r="64" style="fill:#fff;fill-opacity:0.36;"/><path d="M128,49c43.601,0 79,35.399 79,79c0,43.601 -35.399,79 -79,79c-43.601,0 -79,-35.399 -79,-79c0,-43.601 35.399,-79 79,-79Zm0,15c-35.323,0 -64,28.677 -64,64c0,35.323 28.677,64 64,64c35.323,0 64,-28.677 64,-64c0,-35.323 -28.677,-64 -64,-64Z" style="fill:#962037;"/><path d="M28,128l200,0" style="fill:none;stroke:#962037;stroke-width:19px;"/><path d="M128,28.003l0,200" style="fill:none;stroke:#962037;stroke-width:19px;"/></g></g></svg>