<?xml version="1.0" encoding="UTF-8" standalone="no"?><!DOCTYPE svg PUBLIC "-//W3C//DTD SVG 1.1//EN" "http://www.w3.org/Graphics/SVG/1.1/DTD/svg11.dtd"><svg width="100%" height="100%" viewBox="0 0 256 256" version="1.1" xmlns="http://www.w3.org/2000/svg" xmlns:xlink="http://www.w3.org/1999/xlink" xml:space="preserve" xmlns:serif="http://www.serif.com/" style="fill-rule:evenodd;clip-rule:evenodd;stroke-linejoin:round;stroke-miterlimit:2;"><g id="vehicles"><path d="M-0,163.829l0,-105.116c0,-32.405 26.308,-58.713 58.713,-58.713l138.574,0c16.099,0 30.693,6.493 41.304,17.001l-21.591,147.262l-217,-0.434Z" style="fill:#fad976;"/><path d="M121.52,134.263l117.071,-117.262c10.748,10.643 17.409,25.406 17.409,41.712l0,138.574c0,32.405 -26.308,58.713 -58.713,58.713l-124.52,-0l48.752,-121.737Z" style="fill:#f8cc47;"/><path d="M141,256l-82.287,-0c-16.306,-0 -31.068,-6.662 -41.712,-17.409l104.519,-104.328l98.014,40.223l-17.262,17.049l-0.015,3.965l-61.257,60.5Z" style="fill:#edb409;"/><path d="M96.52,159.072l-79.519,79.519c-10.508,-10.611 -17.001,-25.205 -17.001,-41.304l-0,-58.181l67.511,-67.697l-6.73,72.504l35.739,15.159Z" style="fill:#f7bf17;"/><g><path d="M86,174.125l0,15.25c0,4.208 -3.417,7.625 -7.625,7.625l-19.75,0c-4.208,0 -7.625,-3.417 -7.625,-7.625l0,-15.25c0,-4.208 3.417,-7.625 7.625,-7.625l19.75,0c4.208,0 7.625,3.417 7.625,7.625Z" style="fill:#424242;"/><path d="M51,181.515l16.801,-8.843c0.437,-0.23 0.96,-0.23 1.397,-0l16.801,8.843l0,3.39l-17.5,-9.211l-17.5,9.211l0,-3.39Z" style="fill:#393939;"/><path d="M51,187.515l16.801,-8.843c0.437,-0.23 0.96,-0.23 1.397,-0l16.801,8.843l0,1.735c0,0.538 -0.055,1.064 -0.16,1.572l-17.34,-9.126l-17.34,9.126c-0.105,-0.508 -0.16,-1.033 -0.16,-1.572l0,-1.735Z" style="fill:#393939;"/><path d="M52.159,193.327c0.134,-0.268 0.35,-0.499 0.635,-0.651l15,-8c0.455,-0.243 1.002,-0.235 1.45,0.021l14,8c0.659,0.377 0.924,1.18 0.647,1.865c-0.302,0.321 -0.631,0.615 -0.984,0.881c-0.374,0.105 -0.788,0.067 -1.151,-0.141l-13.281,-7.589l-14.269,7.61c-0.055,0.03 -0.112,0.055 -0.169,0.077c-0.744,-0.571 -1.381,-1.274 -1.877,-2.073Z" style="fill:#393939;"/><path d="M56.539,196.679l11.255,-6.003c0.455,-0.243 1.002,-0.235 1.45,0.021l10.703,6.116c-0.546,0.122 -1.114,0.187 -1.697,0.187l-4.023,0l-5.752,-3.287l-6.162,3.287l-3.562,0c-0.768,0 -1.511,-0.112 -2.211,-0.321Z" style="fill:#393939;"/><path d="M51,178.906l0,-3.39l16.801,-8.843c0.437,-0.23 0.96,-0.23 1.397,-0l16.801,8.843l0,3.39l-17.5,-9.211l-17.5,9.211Z" style="fill:#393939;"/></g><g><path d="M205,174.125l0,15.25c0,4.208 -3.417,7.625 -7.625,7.625l-19.75,0c-4.208,0 -7.625,-3.417 -7.625,-7.625l0,-15.25c0,-4.208 3.417,-7.625 7.625,-7.625l19.75,0c4.208,0 7.625,3.417 7.625,7.625Z" style="fill:#424242;"/><path d="M170,181.515l16.801,-8.843c0.437,-0.23 0.96,-0.23 1.397,-0l16.801,8.843l0,3.39l-17.5,-9.211l-17.5,9.211l0,-3.39Z" style="fill:#393939;"/><path d="M170,187.515l16.801,-8.843c0.437,-0.23 0.96,-0.23 1.397,-0l16.801,8.843l0,1.735c0,0.538 -0.055,1.064 -0.16,1.572l-17.34,-9.126l-17.34,9.126c-0.105,-0.508 -0.16,-1.033 -0.16,-1.572l0,-1.735Z" style="fill:#393939;"/><path d="M171.159,193.327c0.134,-0.268 0.35,-0.499 0.635,-0.651l15,-8c0.455,-0.243 1.002,-0.235 1.45,0.021l14,8c0.659,0.377 0.924,1.18 0.647,1.865c-0.302,0.321 -0.631,0.615 -0.984,0.881c-0.374,0.105 -0.788,0.067 -1.151,-0.141l-13.281,-7.589l-14.269,7.61c-0.055,0.03 -0.112,0.055 -0.169,0.077c-0.744,-0.571 -1.381,-1.274 -1.877,-2.073Z" style="fill:#393939;"/><path d="M175.539,196.679l11.255,-6.003c0.455,-0.243 1.002,-0.235 1.45,0.021l10.703,6.116c-0.546,0.122 -1.114,0.187 -1.697,0.187l-4.023,0l-5.752,-3.287l-6.162,3.287l-3.562,0c-0.768,0 -1.511,-0.112 -2.211,-0.321Z" style="fill:#393939;"/><path d="M170,178.906l0,-3.39l16.801,-8.843c0.437,-0.23 0.96,-0.23 1.397,-0l16.801,8.843l0,3.39l-17.5,-9.211l-17.5,9.211Z" style="fill:#393939;"/></g><g><path d="M223,155l0,11.027c0,6.996 -5.68,12.676 -12.676,12.676l-164.649,0c-6.996,0 -12.676,-5.68 -12.676,-12.676l0,-11.027l190,0Z" style="fill:#ac2f2b;"/><rect x="33" y="128" width="190" height="27" style="fill:#d03531;"/><path d="M37.159,113.797c4.148,-6.432 32.841,-45.997 32.841,-45.997c1.863,-2.519 5.113,-4.818 8.6,-6.555c2.924,-1.989 6.073,-3.245 8.926,-3.245l80.949,0c2.852,0 6.002,1.256 8.926,3.245c3.487,1.737 6.737,4.035 8.6,6.555c0,0 28.693,39.565 32.841,45.997c2.674,4.146 4.159,14.203 4.159,14.203l-190,0c0,0 1.486,-10.057 4.159,-14.203Z" style="fill:#e43a35;"/></g><path d="M133.172,100l-74.172,0c0,0 0.954,-5.172 2.671,-7.304c2.663,-3.308 19.087,-23.656 19.087,-23.656c1.196,-1.296 3.283,-2.478 5.522,-3.371c1.877,-1.023 3.9,-1.669 5.731,-1.669l49.733,0l-8.571,36Z" style="fill:#bababa;"/><path d="M157.655,64.725c0.697,0.258 10.39,0.577 11.065,0.944c2.239,0.893 4.326,2.075 5.522,3.371c0,0 18.424,20.348 21.087,23.656c1.717,2.132 2.671,7.304 2.671,7.304l-48.744,0l8.399,-35.275Z" style="fill:#bababa;"/><path d="M144.828,64l9.161,-0c0.246,0 0.495,0.012 0.747,0.034l-8.563,35.966l-9.916,0l8.571,-36Z" style="fill:#bababa;"/><path d="M133.172,100l8.571,-36l3.084,0l-8.571,36l-3.084,0Z" style="fill:#d1d6d9;"/><path d="M146.172,100l8.563,-35.966c0.95,0.085 1.938,0.327 2.92,0.69l-8.399,35.275l-3.084,0Z" style="fill:#d1d6d9;"/><path d="M81,141.5c0,4.139 -3.361,7.5 -7.5,7.5l-18,0c-4.139,0 -7.5,-3.361 -7.5,-7.5c0,-4.139 3.361,-7.5 7.5,-7.5l18,0c4.139,0 7.5,3.361 7.5,7.5Z" style="fill:#ffb200;"/><path d="M207,141.5c0,4.139 -3.361,7.5 -7.5,7.5l-18,0c-4.139,0 -7.5,-3.361 -7.5,-7.5c0,-4.139 3.361,-7.5 7.5,-7.5l18,0c4.139,0 7.5,3.361 7.5,7.5Z" style="fill:#ffb200;"/><circle cx="59.5" cy="164.5" r="6.5" style="fill:#fff;"/><circle cx="194" cy="164.5" r="6.5" style="fill:#fff;"/><path d="M141,141c0,1.104 -0.896,2 -2,2l-33,0c-1.104,0 -2,-0.896 -2,-2c0,-1.104 0.896,-2 2,-2l33,0c1.104,0 2,0.896 2,2Z" style="fill:#fff;"/><path d="M151.672,141c0,1.104 -0.896,2 -2,2l-33,0c-1.104,0 -2,-0.896 -2,-2c0,-1.104 0.896,-2 2,-2l33,0c1.104,0 2,0.896 2,2Z" style="fill:#fff;"/><path d="M146.5,151c0,1.104 -0.896,2 -2,2l-33,0c-1.104,0 -2,-0.896 -2,-2c0,-1.104 0.896,-2 2,-2l33,0c1.104,0 2,0.896 2,2Z" style="fill:#fff;"/></g></svg>