<?xml version="1.0" encoding="UTF-8" standalone="no"?><!DOCTYPE svg PUBLIC "-//W3C//DTD SVG 1.1//EN" "http://www.w3.org/Graphics/SVG/1.1/DTD/svg11.dtd"><svg width="100%" height="100%" viewBox="0 0 256 256" version="1.1" xmlns="http://www.w3.org/2000/svg" xmlns:xlink="http://www.w3.org/1999/xlink" xml:space="preserve" xmlns:serif="http://www.serif.com/" style="fill-rule:evenodd;clip-rule:evenodd;stroke-linejoin:round;stroke-miterlimit:1.5;"><g id="location"><path d="M-0,133.829l0,-75.116c0,-32.405 26.308,-58.713 58.713,-58.713l138.574,0c16.099,0 30.693,6.493 41.304,17.001l-21.591,117.262l-217,-0.434Z" style="fill:#02dbee;"/><path d="M121.52,134.263l117.071,-117.262c10.748,10.643 17.409,25.406 17.409,41.712l0,138.574c0,32.405 -26.308,58.713 -58.713,58.713l-124.52,-0l48.752,-121.737Z" style="fill:#03b7d0;"/><path d="M83,256l-24.287,-0c-16.306,-0 -31.068,-6.662 -41.712,-17.409l104.519,-104.328l7.014,76.766l-45.534,44.971Z" style="fill:#00739c;"/><path d="M121.52,134.072l-104.519,104.519c-10.508,-10.611 -17.001,-25.205 -17.001,-41.304l0,-73.181l87.781,-88.277l33.739,98.243Z" style="fill:#008db0;"/><path d="M128,19.971c33.266,0 60.274,27.008 60.274,60.274c0,33.266 -49.281,130.784 -60.274,130.784c-10.993,0 -60.274,-97.517 -60.274,-130.784c0,-33.266 27.008,-60.274 60.274,-60.274Z" style="fill:#ba2100;"/><circle cx="128" cy="81.383" r="31.843" style="fill:#801700;"/></g><g id="gedrag"><path d="M-0,166.027l0,-107.314c0,-32.405 26.308,-58.713 58.713,-58.713l138.574,0c16.099,0 30.693,6.493 41.304,17.001l-21.591,117.262l-217,31.764Z" style="fill:#42ae68;"/><path d="M121.52,134.263l117.071,-117.262c10.748,10.643 17.409,25.406 17.409,41.712l0,138.574c0,32.405 -26.308,58.713 -58.713,58.713l-124.52,-0l48.752,-121.737Z" style="fill:#3a995c;"/><path d="M132.984,256l-74.272,-0c-16.306,-0 -31.068,-6.662 -41.712,-17.409l104.519,-104.328l45.754,66.235l21.077,0.819l-55.367,54.683Z" style="fill:#347b4d;"/><path d="M114.863,164.131l-47.871,24.468l-49.992,49.992c-10.508,-10.611 -17.001,-25.205 -17.001,-41.304l-0,-46.97l123.702,-124.942l19.141,19.07l-7.913,33.847l27.214,22.133l-47.281,63.706Z" style="fill:#3b975c;"/><g id="menneke"><path d="M210.203,81.431c0.746,-0.415 1.804,0.003 2.072,0.442c0.503,0.823 0.229,1.891 -0.612,2.384l-7.972,4.67c-0.472,0.277 -6.215,2.719 -11.878,1.949c-5.663,-0.77 -4.898,-8.277 -4.441,-9.013l6.475,-10.427c0.509,-0.82 1.602,-1.081 2.439,-0.582c0.837,0.498 1.657,2.16 1.148,2.979l-0.163,0.263c-0.794,0.875 -1.424,1.772 -1.798,2.639c-0.398,0.92 -0.522,1.823 -0.34,2.668c0.141,0.656 -0.229,1.797 -0.689,2.875c-0.459,1.074 -1.017,2.11 -1.54,2.444c-0.547,0.349 -1.254,0.476 -0.897,1.012c0.357,0.536 1.091,0.687 1.638,0.337c0.769,-0.491 1.916,-1.773 2.591,-3.353c0.674,-1.577 0.92,-3.177 0.713,-4.137c-0.116,-0.538 0.029,-1.357 0.357,-1.949c0.157,-0.284 0.67,-0.717 0.977,-0.96c0.282,-0.222 8.006,-4.825 8.006,-4.825c0.841,-0.493 1.932,-0.224 2.435,0.599c0.503,0.823 0.229,1.891 -0.612,2.384l-3.953,2.316l-2.753,1.509c-0.152,0.083 -0.278,0.194 -0.375,0.323l-0.161,0.296c-0.112,0.305 -0.093,0.653 0.081,0.958c0.287,0.501 0.899,0.713 1.433,0.524l1.99,-1.072l5.822,-3.438c0.63,-0.302 1.642,0.03 1.991,0.6c0.337,0.551 0.628,1.613 0.116,1.973l-8.482,4.384c-0.578,0.299 -0.799,1 -0.494,1.565c0.305,0.565 1.022,0.782 1.599,0.484l5.277,-2.819Z" style="fill:#ffc7ac;"/><path d="M197.434,74.832l0.845,-0.465l-0.131,0.211c1.758,-1.085 7.629,-4.591 7.629,-4.591l0.007,-0.004c1.311,-0.768 3.01,-0.343 3.794,0.94c0.795,1.3 0.369,2.99 -0.96,3.768l-3.953,2.316l-0.025,0.014l-2.753,1.509c-0.01,0.006 -0.02,0.012 -0.028,0.019l-0.057,0.105c-0.002,0.027 0.004,0.054 0.018,0.08c0.038,0.066 0.113,0.097 0.188,0.088l1.876,-1.011l5.805,-3.428c0.025,-0.015 0.05,-0.028 0.076,-0.041c0.523,-0.251 1.205,-0.274 1.829,-0.081c0.619,0.192 1.16,0.591 1.447,1.06c0.34,0.556 0.616,1.481 0.517,2.159l-0.086,0.355l-0.178,0.366l-0.183,0.232l-0.233,0.201c-0.037,0.026 -0.075,0.049 -0.116,0.07l-8.482,4.384c-0.076,0.039 -0.113,0.128 -0.073,0.202c0.049,0.09 0.165,0.118 0.258,0.071l5.262,-2.811c0.714,-0.392 1.602,-0.349 2.292,-0.071c0.521,0.21 0.916,0.554 1.109,0.87c0.795,1.3 0.369,2.99 -0.96,3.768l-7.972,4.67c-0.498,0.292 -6.548,2.889 -12.518,2.077c-3.965,-0.539 -5.305,-3.847 -5.567,-6.642c-0.116,-1.236 -0.02,-2.353 0.114,-3.024c0.085,-0.425 0.207,-0.721 0.297,-0.865l6.475,-10.427c0.793,-1.277 2.495,-1.691 3.8,-0.914c0.677,0.403 1.375,1.35 1.653,2.298c0.226,0.772 0.168,1.529 -0.167,2.068l-0.85,0.472l-0.315,-0.567c0.05,-0.057 0.101,-0.114 0.152,-0.17l0.163,-0.263c0.509,-0.82 -0.31,-2.481 -1.148,-2.979c-0.837,-0.498 -1.93,-0.237 -2.439,0.582l-6.475,10.427c-0.457,0.735 -1.222,8.242 4.441,9.013c5.663,0.77 11.406,-1.672 11.878,-1.949l7.972,-4.67c0.841,-0.493 1.115,-1.561 0.612,-2.384c-0.268,-0.438 -1.326,-0.857 -2.072,-0.442l-5.277,2.819c-0.578,0.299 -1.294,0.082 -1.599,-0.484c-0.305,-0.565 -0.084,-1.267 0.494,-1.565l8.482,-4.384c0.512,-0.36 0.221,-1.422 -0.116,-1.973c-0.348,-0.57 -1.361,-0.901 -1.991,-0.6l-5.822,3.438l-1.99,1.072c-0.521,0.184 -1.116,-0.013 -1.411,-0.487c0.331,-0.034 0.623,-0.231 0.779,-0.524l-0.804,0.482c-0.113,-0.199 -0.159,-0.417 -0.146,-0.629l0.229,0.381l-0.223,-0.446c0.011,-0.088 0.031,-0.175 0.062,-0.258l0.161,-0.296c0.097,-0.129 0.223,-0.24 0.375,-0.323l2.753,-1.509l3.953,-2.316c0.841,-0.493 1.115,-1.561 0.612,-2.384c-0.503,-0.823 -1.594,-1.091 -2.435,-0.599c0,0 -7.724,4.603 -8.006,4.825c-0.308,0.242 -0.82,0.676 -0.977,0.96c-0.328,0.592 -0.473,1.411 -0.357,1.949c0.207,0.96 -0.039,2.56 -0.713,4.137c-0.676,1.58 -1.822,2.862 -2.591,3.353c-0.547,0.349 -1.281,0.198 -1.638,-0.337c-0.357,-0.536 0.35,-0.662 0.897,-1.012c0.523,-0.334 1.081,-1.37 1.54,-2.444c0.461,-1.077 0.831,-2.219 0.689,-2.875c-0.182,-0.845 -0.057,-1.747 0.34,-2.668c0.35,-0.81 0.923,-1.646 1.644,-2.467l0.317,0.565Zm0.335,-0.016l-0.498,0.279l0.298,-0.132l0.095,-0.077c0.015,-0.012 0.051,-0.036 0.105,-0.071Z" style="fill:#eeb194;"/><path d="M64.24,116.777c-0.364,0.761 -1.475,1.017 -1.952,0.811c-0.896,-0.388 -1.303,-1.414 -0.907,-2.292l3.754,-8.319c0.222,-0.493 3.47,-5.733 8.547,-8.305c5.078,-2.572 8.882,3.989 8.943,4.848l0.865,12.173c0.068,0.957 -0.67,1.788 -1.648,1.854c-0.978,0.067 -2.627,-0.827 -2.695,-1.784l-0.022,-0.307c0.132,-1.163 -0.132,-1.436 -0.829,-1.571c-0.324,-0.063 -0.819,0.484 -0.928,0.855c-0.099,0.341 -3.69,8.465 -3.69,8.465c-0.396,0.877 -1.445,1.275 -2.341,0.888c-0.896,-0.388 -1.303,-1.414 -0.907,-2.292l1.862,-4.125l1.358,-2.788c0.075,-0.154 0.112,-0.316 0.115,-0.476l-0.043,-0.332c-0.089,-0.312 -0.309,-0.586 -0.631,-0.736c-0.53,-0.247 -1.154,-0.074 -1.48,0.382l-0.992,2l-2.725,6.097c-0.336,0.602 -1.359,0.904 -1.979,0.636c-0.601,-0.26 -1.465,-0.962 -1.259,-1.545l4.339,-8.373c0.296,-0.57 0.062,-1.268 -0.52,-1.557c-0.583,-0.289 -1.296,-0.061 -1.591,0.509l-2.645,5.284Z" style="fill:#ffc7ac;"/><path d="M79.147,116.764l-0.998,-0.936l-0.021,-0.291l0.997,0.921l-0.947,-1.06c-0.702,1.675 -3.585,8.213 -3.585,8.213l-0.003,0.007c-0.618,1.369 -2.251,1.999 -3.65,1.394c-1.415,-0.612 -2.046,-2.236 -1.421,-3.621l1.862,-4.125l0.012,-0.027l1.358,-2.788l0.008,-0.02l-0.015,-0.113c-0.017,-0.028 -0.043,-0.052 -0.076,-0.067c-0.071,-0.033 -0.154,-0.024 -0.212,0.024l-0.932,1.879l-2.717,6.079c-0.012,0.027 -0.025,0.053 -0.04,0.079c-0.282,0.505 -0.829,0.915 -1.458,1.112c-0.613,0.192 -1.284,0.174 -1.791,-0.045c-0.6,-0.26 -1.364,-0.854 -1.68,-1.458l-0.139,-0.337l-0.071,-0.402l0.013,-0.297l0.073,-0.302c0.015,-0.044 0.034,-0.086 0.055,-0.127l4.339,-8.373c0.039,-0.075 -0,-0.164 -0.077,-0.202c-0.093,-0.046 -0.209,-0.019 -0.257,0.072l-2.637,5.269c-0.354,0.729 -1.109,1.203 -1.842,1.367c-0.544,0.122 -1.063,0.066 -1.404,-0.081c-1.415,-0.612 -2.046,-2.236 -1.421,-3.621l3.754,-8.319c0.235,-0.52 3.646,-6.07 9.007,-8.786c3.543,-1.795 6.58,0.138 8.436,2.264c0.822,0.942 1.403,1.906 1.688,2.529c0.182,0.396 0.256,0.707 0.268,0.876l0.865,12.173c0.107,1.503 -1.042,2.818 -2.578,2.923c-0.784,0.053 -1.903,-0.322 -2.683,-0.934c-0.637,-0.5 -1.032,-1.15 -1.077,-1.776c0.037,0.523 0.473,0.929 0.997,0.929c0.171,-0 0.337,-0.044 0.483,-0.124c0.578,0.558 1.549,0.953 2.211,0.908c0.978,-0.067 1.716,-0.897 1.648,-1.854l-0.865,-12.173c-0.061,-0.859 -3.865,-7.42 -8.943,-4.848c-5.078,2.572 -8.325,7.812 -8.547,8.305l-3.754,8.319c-0.396,0.877 0.01,1.904 0.907,2.292c0.477,0.206 1.588,-0.05 1.952,-0.811l2.645,-5.284c0.296,-0.57 1.008,-0.798 1.591,-0.509c0.583,0.289 0.816,0.987 0.52,1.557l-4.339,8.373c-0.206,0.583 0.658,1.286 1.259,1.545c0.621,0.268 1.643,-0.034 1.979,-0.636l2.725,-6.097l0.992,-2c0.325,-0.456 0.95,-0.629 1.48,-0.382c0.322,0.15 0.542,0.424 0.631,0.736l0.043,0.332c-0.003,0.16 -0.04,0.322 -0.115,0.476l-1.358,2.788l-1.862,4.125c-0.396,0.877 0.01,1.904 0.907,2.292c0.896,0.388 1.946,-0.01 2.341,-0.888c0,0 3.591,-8.124 3.69,-8.465c0.108,-0.372 0.604,-0.918 0.928,-0.855c0.697,0.135 0.96,0.408 0.829,1.571l0.022,0.307c0.017,0.234 0.127,0.463 0.3,0.676l-0.3,0.324Z" style="fill:#eeb194;"/><g><path d="M89.209,209.026c0.291,-1.067 0.504,-2.311 0.494,-3.65c-0.031,-4.068 -0.782,-16.448 -0.782,-16.448l-8.831,-10.333l-10.224,8.014l19.344,22.419Z" style="fill:#ee7644;"/><path d="M69.865,186.608l-2.843,2.228l20.68,23.801c0,0 0.914,-1.437 1.507,-3.611l-19.344,-22.419Z" style="fill:#233656;"/></g><g><path d="M186.57,200.205c-0.977,-0.555 -2.148,-1.084 -3.47,-1.425c-4.015,-1.037 -16.397,-3.573 -16.397,-3.573l-12.418,5.661l5.296,11.793l26.989,-12.455Z" style="fill:#ee7644;"/><path d="M159.581,212.66l1.473,3.279l28.69,-13.359c0,0 -1.183,-1.244 -3.174,-2.375l-26.989,12.455Z" style="fill:#233656;"/></g><g><path d="M114.812,109.695l20.972,21.969l-11.305,31.417c-0.236,0.593 -0.535,1.16 -0.89,1.693l-33.595,29.304l-11.888,-13.876l24.486,-22.904l12.219,-47.603Z" style="fill:#3db9b1;"/><path d="M130.64,146.964l-2.807,6.461l-17.997,-23.795l1.925,-10.547l18.879,27.88Z" style="fill:#1e3e57;"/><path d="M108.413,120.026l27.202,-7.07l21.694,37.363c0.335,0.545 0.612,1.123 0.826,1.724l12.436,43.701l-17.316,7.006l-15.264,-39.238l-29.577,-43.486Z" style="fill:#3db9b1;"/></g><g><path d="M190.749,85.825c-24.573,10.12 -23.166,8.86 -27.524,11.265l-27.221,-26.505" style="fill:none;stroke:#2c75aa;stroke-width:16px;"/><path d="M145.205,66.877c5.525,8.811 8.421,18.551 8.722,32.378l-7.908,-7.557l-0.814,-24.82Z" style="fill:#1e6091;"/><path d="M101.763,120.562l41.342,0.065c0,0 6.095,-40.212 4.253,-48.74c-1.439,-6.662 -7.379,-12.971 -17.83,-12.618c-7.252,0.245 -17.627,14.891 -17.892,17.372" style="fill:#2c75aa;"/><path d="M124.966,78.712l-16.364,11.204l2.212,-9.422l14.151,-1.782Z" style="fill:#1e6091;"/><path d="M76.735,100.538c13.281,-26.049 11.136,-21.637 13.162,-26.114l41.307,-5.373" style="fill:none;stroke:#2c75aa;stroke-width:17px;"/></g><g><path d="M150.386,28.312c0,0 0.218,7.079 1.184,9.269c0.965,2.19 2.319,6.776 2.367,8.11c0.048,1.334 -2.367,1.159 -2.367,1.159c0,0 0.811,7.816 -2.367,9.269c-3.178,1.452 -14.18,3.071 -18.938,-3.476c-4.759,-6.547 -6.905,-14.145 -4.735,-18.393c2.17,-4.248 12.47,-9.276 17.755,-7.095c5.284,2.181 7.102,1.159 7.102,1.159Z" style="fill:#ffc7ac;"/><path d="M150.426,29.27l0.959,-0.989c0,0 0.173,6.795 1.099,8.896c1.008,2.288 2.402,7.084 2.452,8.477c0.037,1.029 -0.603,1.659 -1.484,1.965c-0.264,0.092 -0.55,0.148 -0.819,0.183c0.059,1.403 0.056,3.939 -0.561,5.964c-0.457,1.499 -1.261,2.716 -2.454,3.261c-2.009,0.918 -6.982,1.921 -11.724,1.069c-3.25,-0.584 -6.378,-2.031 -8.439,-4.866c-2.956,-4.067 -4.927,-8.531 -5.554,-12.397c-0.443,-2.729 -0.214,-5.176 0.738,-7.039c1.16,-2.271 4.454,-4.801 8.203,-6.422c3.775,-1.631 7.979,-2.317 10.823,-1.143c4.249,1.754 6.272,1.19 6.272,1.19l0.232,0.978c-0.618,0.191 -2.625,0.515 -6.885,-1.243c-5.284,-2.181 -15.585,2.847 -17.755,7.095c-2.17,4.248 -0.024,11.846 4.735,18.393c4.759,6.547 15.76,4.928 18.938,3.476c3.178,-1.452 2.367,-9.269 2.367,-9.269c0,0 2.415,0.175 2.367,-1.159c-0.048,-1.334 -1.402,-5.92 -2.367,-8.11c-0.746,-1.692 -1.046,-6.3 -1.143,-8.31Z" style="fill:#eeb194;"/><path d="M153.967,19.215c2.777,1.636 4.082,4.213 3.521,6.095c-0.764,2.564 -2.85,8.359 -5.918,7.636c-3.068,-0.723 -13.411,-2.149 -15.387,0c-1.976,2.149 -0.401,4.775 0,5.793c0.87,2.205 -1.831,6.167 -3.551,0c-0.403,-1.443 -4.916,0.908 -4.735,3.476c0.193,2.742 3.551,4.634 3.551,4.634c0.028,3.536 -1.233,5.775 -3.551,6.951c0,0 -9.341,-14.513 -7.102,-23.171c0.824,-3.187 1.795,-4.492 5.108,-7.572c2.742,-2.55 10.332,-2.184 13.83,-1.696c1.502,0.209 3.331,-1.69 5.811,-2.817c0.211,-0.403 0.394,-0.776 0.544,-1.095c1.067,-2.268 -1.797,-4.665 4.465,-0.384c1.277,0.873 2.427,1.412 3.413,2.151Z" style="fill:#753615;"/></g><g><path d="M66.101,215.818l135.928,0" style="fill:none;stroke:#fff;stroke-width:2px;stroke-linecap:round;"/><path d="M49.134,215.818l9.659,0" style="fill:none;stroke:#fff;stroke-width:2px;stroke-linecap:round;"/><path d="M65.57,152.676l40.541,0" style="fill:none;stroke:#fff;stroke-width:2px;stroke-linecap:round;"/><path d="M50.089,166.372l28.614,0" style="fill:none;stroke:#fff;stroke-width:2px;stroke-linecap:round;"/><path d="M36.149,166.372l7.347,0" style="fill:none;stroke:#fff;stroke-width:2px;stroke-linecap:round;"/><path d="M54.044,180.723l16.32,0" style="fill:none;stroke:#fff;stroke-width:2px;stroke-linecap:round;"/><path d="M40.428,180.723l3.499,0" style="fill:none;stroke:#fff;stroke-width:2px;stroke-linecap:round;"/><path d="M55.485,139.509l56.25,0" style="fill:none;stroke:#fff;stroke-width:2px;stroke-linecap:round;"/><path d="M40.235,139.509l5.821,0" style="fill:none;stroke:#fff;stroke-width:2px;stroke-linecap:round;"/><path d="M213.209,215.597l-12.923,7.707l0,-15.415l12.923,7.707Z" style="fill:#ee7644;"/></g></g></g></svg>