<?xml version="1.0" encoding="UTF-8" standalone="no"?><!DOCTYPE svg PUBLIC "-//W3C//DTD SVG 1.1//EN" "http://www.w3.org/Graphics/SVG/1.1/DTD/svg11.dtd"><svg width="100%" height="100%" viewBox="0 0 96 96" version="1.1" xmlns="http://www.w3.org/2000/svg" xmlns:xlink="http://www.w3.org/1999/xlink" xml:space="preserve" xmlns:serif="http://www.serif.com/" style="fill-rule:evenodd;clip-rule:evenodd;stroke-linejoin:round;stroke-miterlimit:2;"><g id="close"><path d="M35.272,48l-22.777,-22.777c-3.512,-3.512 -3.512,-9.216 0,-12.728c3.512,-3.512 9.216,-3.512 12.728,0l22.777,22.777l22.777,-22.777c3.512,-3.512 9.216,-3.512 12.728,0c3.512,3.512 3.512,9.216 -0,12.728l-22.777,22.777l22.777,22.777c3.512,3.512 3.512,9.216 -0,12.728c-3.512,3.512 -9.216,3.512 -12.728,-0l-22.777,-22.777l-22.777,22.777c-3.512,3.512 -9.216,3.512 -12.728,-0c-3.512,-3.512 -3.512,-9.216 0,-12.728l22.777,-22.777Z"/><path d="M47.717,26.081l-16.102,-16.102l33.407,-0l-16.102,16.102l-0.283,0.919l-0.318,-0.318l-0.318,0.318l-0.283,-0.919Z"/><path d="M12.235,49l-3.927,3.927l0,-9.855l3.927,3.927l15.515,0c0.552,-0 1,0.448 1,1c0,0.552 -0.448,1 -1,1l-15.515,0Z"/><path d="M83.765,47l3.927,-3.927l0,9.855l-3.927,-3.927l-15.515,0c-0.552,0 -1,-0.448 -1,-1c-0,-0.552 0.448,-1 1,-1l15.515,0Z"/></g></svg>