<?xml version="1.0" encoding="UTF-8" standalone="no"?><!DOCTYPE svg PUBLIC "-//W3C//DTD SVG 1.1//EN" "http://www.w3.org/Graphics/SVG/1.1/DTD/svg11.dtd"><svg width="100%" height="100%" viewBox="0 0 96 96" version="1.1" xmlns="http://www.w3.org/2000/svg" xmlns:xlink="http://www.w3.org/1999/xlink" xml:space="preserve" xmlns:serif="http://www.serif.com/" style="fill-rule:evenodd;clip-rule:evenodd;stroke-linecap:round;stroke-linejoin:round;stroke-miterlimit:1.5;"><g id="exit"><path d="M88.5,27.75l0,40.5c0,11.176 -9.074,20.25 -20.25,20.25l-40.5,0c-11.176,0 -20.25,-9.074 -20.25,-20.25l0,-40.5c0,-11.176 9.074,-20.25 20.25,-20.25l40.5,0c11.176,0 20.25,9.074 20.25,20.25Z" style="fill:none;stroke:#17100e;stroke-opacity:0.14;stroke-width:2px;"/><path d="M48,83.25l0,-19.5l-2.672,2.672" style="fill:none;stroke:#17100e;stroke-width:2px;"/><path d="M48,63.75l2.672,2.672" style="fill:none;stroke:#17100e;stroke-width:2px;"/><path d="M12.75,48l19.5,0l-2.672,-2.672" style="fill:none;stroke:#17100e;stroke-width:2px;"/><path d="M32.25,48l-2.672,2.672" style="fill:none;stroke:#17100e;stroke-width:2px;"/><path d="M48,12.75l0,19.5l2.672,-2.672" style="fill:none;stroke:#17100e;stroke-width:2px;"/><path d="M48,32.25l-2.672,-2.672" style="fill:none;stroke:#17100e;stroke-width:2px;"/><path d="M83.25,48l-19.5,0l2.672,2.672" style="fill:none;stroke:#17100e;stroke-width:2px;"/><path d="M63.75,48l2.672,-2.672" style="fill:none;stroke:#17100e;stroke-width:2px;"/><rect x="23.999" y="23.999" width="48.003" height="48.003" style="fill:none;stroke:#17100e;stroke-opacity:0.23;stroke-width:2px;"/><path d="M37.393,48l-8.256,-8.256c-2.927,-2.927 -2.927,-7.68 0,-10.607c2.927,-2.927 7.68,-2.927 10.607,0l8.256,8.256l8.256,-8.256c2.927,-2.927 7.68,-2.927 10.607,0c2.927,2.927 2.927,7.68 0,10.607l-8.256,8.256l8.256,8.256c2.927,2.927 2.927,7.68 0,10.607c-2.927,2.927 -7.68,2.927 -10.607,0l-8.256,-8.256l-8.256,8.256c-2.927,2.927 -7.68,2.927 -10.607,0c-2.927,-2.927 -2.927,-7.68 0,-10.607l8.256,-8.256Zm7.778,0l-9.54,9.54c-0.781,0.781 -0.781,2.048 0,2.828c0.781,0.781 2.048,0.781 2.828,0l9.54,-9.54l9.54,9.54c0.781,0.781 2.048,0.781 2.828,0c0.781,-0.781 0.781,-2.048 0,-2.828l-9.54,-9.54l9.54,-9.54c0.781,-0.781 0.781,-2.048 0,-2.828c-0.781,-0.781 -2.048,-0.781 -2.828,0l-9.54,9.54l-9.54,-9.54c-0.781,-0.781 -2.048,-0.781 -2.828,0c-0.781,0.781 -0.781,2.048 0,2.828l9.54,9.54Z" style="fill:#17100e;"/></g></svg>