<?xml version="1.0" encoding="UTF-8" standalone="no"?><!DOCTYPE svg PUBLIC "-//W3C//DTD SVG 1.1//EN" "http://www.w3.org/Graphics/SVG/1.1/DTD/svg11.dtd"><svg width="100%" height="100%" viewBox="0 0 96 96" version="1.1" xmlns="http://www.w3.org/2000/svg" xmlns:xlink="http://www.w3.org/1999/xlink" xml:space="preserve" xmlns:serif="http://www.serif.com/" style="fill-rule:evenodd;clip-rule:evenodd;stroke-linecap:round;stroke-linejoin:round;stroke-miterlimit:1.5;"><g id="info"><path d="M30,48l0,30.75" style="fill:none;stroke:#17100e;stroke-width:5px;"/><circle cx="48" cy="78.75" r="7.5" style="fill:#17100e;"/><path d="M51.922,65.642c-1.142,0.702 -2.485,1.108 -3.922,1.108c-4.139,0 -7.5,-3.361 -7.5,-7.5l0,-8.25c0,-4.139 3.361,-7.5 7.5,-7.5c4.967,0 9,-4.033 9,-9c0,-4.967 -4.033,-9 -9,-9c-4.456,0 -8.16,3.246 -8.875,7.5l-0.111,-0c0,4.338 -3.522,7.86 -7.86,7.86c-4.338,0 -7.86,-3.522 -7.86,-7.86c0,-0.165 0.005,-0.328 0.015,-0.491c3.884,-1.285 6.69,-4.947 6.69,-9.259c0,-1.619 -0.395,-3.146 -1.095,-4.49c4.541,-5.501 11.411,-9.01 19.095,-9.01c13.66,0 24.75,11.09 24.75,24.75c0,7.164 -3.05,13.621 -7.922,18.142c-1.241,-0.573 -2.622,-0.892 -4.078,-0.892c-5.381,0 -9.75,4.369 -9.75,9.75c0,1.481 0.331,2.885 0.922,4.142Z" style="fill:#17100e;"/></g></svg>