<?xml version="1.0" encoding="UTF-8" standalone="no"?><!DOCTYPE svg PUBLIC "-//W3C//DTD SVG 1.1//EN" "http://www.w3.org/Graphics/SVG/1.1/DTD/svg11.dtd"><svg width="100%" height="100%" viewBox="0 0 96 96" version="1.1" xmlns="http://www.w3.org/2000/svg" xmlns:xlink="http://www.w3.org/1999/xlink" xml:space="preserve" xmlns:serif="http://www.serif.com/" style="fill-rule:evenodd;clip-rule:evenodd;stroke-linecap:round;stroke-linejoin:round;stroke-miterlimit:1.5;"><g id="save"><path d="M72.001,18.75l0,21l-47.987,0l0,-21l47.987,0Zm-24,18.75c0.586,0 1.162,-0.228 1.593,-0.659l6.629,-6.629c0.878,-0.878 0.878,-2.304 0,-3.182c-0.878,-0.878 -2.304,-0.878 -3.182,-0l-2.788,2.788l0,-6.568c-0,-1.242 -1.008,-2.25 -2.25,-2.25l-0.004,0c-1.242,0 -2.25,1.008 -2.25,2.25l0,6.568l-2.788,-2.788c-0.878,-0.878 -2.304,-0.878 -3.182,0c-0.878,0.878 -0.878,2.304 0,3.182l6.629,6.629c0.431,0.431 1.007,0.659 1.593,0.659Z" style="fill:#17100e;"/><rect x="24.014" y="48" width="47.987" height="8.25" style="fill:#17100e;"/><path d="M64.151,85.5l-32.295,-0c-0.492,0 -0.965,-0.196 -1.313,-0.544c-0.348,-0.348 -0.544,-0.82 -0.544,-1.313l-0,-15.423c0,-1.227 0.994,-2.221 2.221,-2.221l31.566,0c1.227,0 2.221,0.994 2.221,2.221l-0,15.423c0,0.492 -0.196,0.965 -0.544,1.313c-0.348,0.348 -0.82,0.544 -1.313,0.544Z" style="fill:none;stroke:#17100e;stroke-width:3px;"/><path d="M64.812,85.5l-33.616,0c-0.767,-0 -1.504,-0.298 -2.057,-0.83l-19.143,-18.46c-0.636,-0.614 -0.996,-1.459 -0.996,-2.343l0,-50.694c-0,-0.51 0.203,-0.999 0.563,-1.359c0.361,-0.361 0.85,-0.563 1.359,-0.563l74.163,0c0.51,-0 0.999,0.203 1.359,0.563c0.361,0.361 0.563,0.85 0.563,1.359l0,50.694c-0,0.884 -0.359,1.73 -0.996,2.343l-19.143,18.46c-0.552,0.533 -1.289,0.83 -2.057,0.83Z" style="fill:none;stroke:#17100e;stroke-width:3px;"/><path d="M78,85.5l9.008,0" style="fill:none;stroke:#17100e;stroke-width:3px;"/><path d="M81.75,79.5l5.258,0" style="fill:none;stroke:#17100e;stroke-width:3px;"/></g></svg>